<svg width="379" height="116" viewBox="0 0 379 116" fill="none" xmlns="http://www.w3.org/2000/svg">
<rect width="379" height="116" rx="10" fill="#009793"/>
<path d="M283.632 101.4C284.149 101.4 284.579 101.573 284.92 101.92C285.267 102.261 285.44 102.688 285.44 103.2C285.44 103.707 285.267 104.133 284.92 104.48C284.579 104.827 284.149 105 283.632 105H282.344V107H281.6V101.4H283.632ZM283.632 104.304C283.941 104.304 284.197 104.2 284.4 103.992C284.603 103.779 284.704 103.515 284.704 103.2C284.704 102.88 284.603 102.616 284.4 102.408C284.197 102.2 283.941 102.096 283.632 102.096H282.344V104.304H283.632ZM289.318 106.496C288.907 106.901 288.409 107.104 287.822 107.104C287.235 107.104 286.737 106.901 286.326 106.496C285.921 106.091 285.718 105.592 285.718 105C285.718 104.408 285.921 103.909 286.326 103.504C286.737 103.099 287.235 102.896 287.822 102.896C288.409 102.896 288.907 103.099 289.318 103.504C289.729 103.909 289.934 104.408 289.934 105C289.934 105.592 289.729 106.091 289.318 106.496ZM287.822 106.424C288.222 106.424 288.558 106.288 288.83 106.016C289.102 105.744 289.238 105.405 289.238 105C289.238 104.595 289.102 104.256 288.83 103.984C288.558 103.712 288.222 103.576 287.822 103.576C287.427 103.576 287.094 103.712 286.822 103.984C286.55 104.256 286.414 104.595 286.414 105C286.414 105.405 286.55 105.744 286.822 106.016C287.094 106.288 287.427 106.424 287.822 106.424ZM295.31 103H296.038L294.798 107H294.086L293.15 104.04L292.214 107H291.502L290.262 103H290.99L291.87 106.04L292.814 103H293.486L294.43 106.048L295.31 103ZM297.086 105.32C297.156 105.677 297.318 105.955 297.574 106.152C297.836 106.349 298.156 106.448 298.534 106.448C299.062 106.448 299.446 106.253 299.686 105.864L300.278 106.2C299.889 106.803 299.302 107.104 298.518 107.104C297.884 107.104 297.366 106.907 296.966 106.512C296.572 106.112 296.374 105.608 296.374 105C296.374 104.397 296.569 103.896 296.958 103.496C297.348 103.096 297.852 102.896 298.47 102.896C299.057 102.896 299.534 103.104 299.902 103.52C300.276 103.931 300.462 104.427 300.462 105.008C300.462 105.109 300.454 105.213 300.438 105.32H297.086ZM298.47 103.552C298.097 103.552 297.788 103.659 297.542 103.872C297.297 104.08 297.145 104.36 297.086 104.712H299.758C299.7 104.333 299.55 104.045 299.31 103.848C299.07 103.651 298.79 103.552 298.47 103.552ZM301.958 103.672C302.188 103.176 302.604 102.928 303.206 102.928V103.656C302.865 103.64 302.572 103.731 302.326 103.928C302.081 104.125 301.958 104.443 301.958 104.88V107H301.262V103H301.958V103.672ZM304.157 105.32C304.226 105.677 304.389 105.955 304.645 106.152C304.906 106.349 305.226 106.448 305.605 106.448C306.133 106.448 306.517 106.253 306.757 105.864L307.349 106.2C306.959 106.803 306.373 107.104 305.589 107.104C304.954 107.104 304.437 106.907 304.037 106.512C303.642 106.112 303.445 105.608 303.445 105C303.445 104.397 303.639 103.896 304.029 103.496C304.418 103.096 304.922 102.896 305.541 102.896C306.127 102.896 306.605 103.104 306.973 103.52C307.346 103.931 307.533 104.427 307.533 105.008C307.533 105.109 307.525 105.213 307.509 105.32H304.157ZM305.541 103.552C305.167 103.552 304.858 103.659 304.613 103.872C304.367 104.08 304.215 104.36 304.157 104.712H306.829C306.77 104.333 306.621 104.045 306.381 103.848C306.141 103.651 305.861 103.552 305.541 103.552ZM311.637 101.4H312.333V107H311.637V106.312C311.29 106.84 310.786 107.104 310.125 107.104C309.565 107.104 309.088 106.901 308.693 106.496C308.298 106.085 308.101 105.587 308.101 105C308.101 104.413 308.298 103.917 308.693 103.512C309.088 103.101 309.565 102.896 310.125 102.896C310.786 102.896 311.29 103.16 311.637 103.688V101.4ZM310.213 106.432C310.618 106.432 310.957 106.296 311.229 106.024C311.501 105.747 311.637 105.405 311.637 105C311.637 104.595 311.501 104.256 311.229 103.984C310.957 103.707 310.618 103.568 310.213 103.568C309.813 103.568 309.477 103.707 309.205 103.984C308.933 104.256 308.797 104.595 308.797 105C308.797 105.405 308.933 105.747 309.205 106.024C309.477 106.296 309.813 106.432 310.213 106.432ZM317.595 102.896C318.155 102.896 318.633 103.101 319.027 103.512C319.422 103.917 319.619 104.413 319.619 105C319.619 105.587 319.422 106.085 319.027 106.496C318.633 106.901 318.155 107.104 317.595 107.104C316.934 107.104 316.43 106.84 316.083 106.312V107H315.387V101.4H316.083V103.688C316.43 103.16 316.934 102.896 317.595 102.896ZM317.507 106.432C317.907 106.432 318.243 106.296 318.515 106.024C318.787 105.747 318.923 105.405 318.923 105C318.923 104.595 318.787 104.256 318.515 103.984C318.243 103.707 317.907 103.568 317.507 103.568C317.102 103.568 316.763 103.707 316.491 103.984C316.219 104.256 316.083 104.595 316.083 105C316.083 105.405 316.219 105.747 316.491 106.024C316.763 106.296 317.102 106.432 317.507 106.432ZM323.086 103H323.83L322.198 107.248C322.027 107.701 321.787 108.045 321.478 108.28C321.174 108.52 320.822 108.627 320.422 108.6V107.952C320.912 107.989 321.272 107.717 321.502 107.136L321.574 106.984L319.83 103H320.574L321.934 106.136L323.086 103Z" fill="white"/>
<path d="M332.635 100.404C332.292 100.061 331.736 100.061 331.394 100.404L328.387 103.411C328.043 103.755 328.044 104.313 328.389 104.655L331.359 107.6C331.702 107.941 332.256 107.94 332.598 107.598L332.937 107.259C333.051 107.144 333.051 106.959 332.937 106.845L331.942 105.85C331.713 105.621 331.713 105.251 331.942 105.022L332.752 104.212C332.866 104.098 332.866 103.913 332.752 103.798L332.175 103.222C332.061 103.108 331.876 103.108 331.761 103.222L330.924 104.059C330.81 104.174 330.625 104.174 330.51 104.059L330.496 104.044C330.381 103.93 330.381 103.745 330.496 103.63L332.972 101.154C333.086 101.04 333.086 100.855 332.972 100.74L332.635 100.404Z" fill="white"/>
<path d="M332.582 102.403L333.401 101.584C333.515 101.469 333.7 101.469 333.814 101.584L335.616 103.385C335.959 103.728 335.959 104.284 335.616 104.627L333.79 106.453C333.675 106.567 333.49 106.567 333.376 106.453L332.561 105.638C332.447 105.524 332.447 105.339 332.561 105.224L333.568 104.217C333.682 104.103 333.682 103.918 333.568 103.803L332.582 102.817C332.467 102.702 332.467 102.517 332.582 102.403Z" fill="#24CA7A"/>
<path d="M340 101.286V106.769H341.037V104.476H342.911V103.566H341.037V102.197H343.057V101.286H340Z" fill="white"/>
<path d="M344.388 101.486C344.063 101.486 343.804 101.745 343.804 102.07C343.804 102.396 344.063 102.655 344.388 102.655C344.714 102.655 344.973 102.396 344.973 102.07C344.973 101.745 344.714 101.486 344.388 101.486ZM343.897 103.366V106.769H344.88V103.366H343.897Z" fill="white"/>
<path d="M345.918 103.366V106.769H346.901V104.762C346.901 104.39 347.26 104.024 347.679 104.024C348.137 104.024 348.39 104.383 348.39 104.815V106.769H349.374V104.549C349.374 103.626 348.609 103.26 347.911 103.26C347.539 103.26 347.16 103.453 346.901 103.752V103.366H345.918Z" fill="white"/>
<path d="M350.353 101.286V106.769H352.3C353.424 106.769 354.075 106.164 354.075 105.261C354.075 104.397 353.59 103.991 352.872 103.871C353.357 103.639 353.59 103.207 353.59 102.682C353.59 101.665 352.872 101.286 351.902 101.286H350.353ZM351.39 102.09H351.623C352.247 102.09 352.586 102.31 352.586 102.782C352.586 103.307 352.241 103.526 351.623 103.526H351.39V102.09ZM351.39 104.423H351.948C352.613 104.423 352.985 104.662 352.985 105.221C352.985 105.726 352.613 105.965 351.948 105.965H351.39V104.423Z" fill="white"/>
<path d="M354.594 105.068C354.594 106.131 355.458 106.876 356.588 106.876C357.718 106.876 358.582 106.131 358.582 105.068C358.582 104.004 357.718 103.26 356.588 103.26C355.458 103.26 354.594 104.004 354.594 105.068ZM355.618 105.068C355.618 104.503 356.036 104.097 356.588 104.097C357.14 104.097 357.558 104.503 357.558 105.068C357.558 105.633 357.14 106.038 356.588 106.038C356.036 106.038 355.618 105.633 355.618 105.068Z" fill="white"/>
<path d="M359.068 103.366L360.317 104.988L358.868 106.769H360.051L360.922 105.666L361.792 106.769H362.975L361.527 104.988L362.776 103.366H361.633L360.922 104.303L360.211 103.366H359.068Z" fill="white"/>
<path d="M137.152 63.6L134.176 68.604V72H133.06V68.592L130.096 63.6H131.344L133.624 67.536L135.904 63.6H137.152ZM141.903 71.244C141.287 71.852 140.539 72.156 139.659 72.156C138.779 72.156 138.031 71.852 137.415 71.244C136.807 70.636 136.503 69.888 136.503 69C136.503 68.112 136.807 67.364 137.415 66.756C138.031 66.148 138.779 65.844 139.659 65.844C140.539 65.844 141.287 66.148 141.903 66.756C142.519 67.364 142.827 68.112 142.827 69C142.827 69.888 142.519 70.636 141.903 71.244ZM139.659 71.136C140.259 71.136 140.763 70.932 141.171 70.524C141.579 70.116 141.783 69.608 141.783 69C141.783 68.392 141.579 67.884 141.171 67.476C140.763 67.068 140.259 66.864 139.659 66.864C139.067 66.864 138.567 67.068 138.159 67.476C137.751 67.884 137.547 68.392 137.547 69C137.547 69.608 137.751 70.116 138.159 70.524C138.567 70.932 139.067 71.136 139.659 71.136ZM148.198 66H149.242V72H148.198V71.136C147.774 71.816 147.126 72.156 146.254 72.156C145.55 72.156 144.986 71.936 144.562 71.496C144.138 71.048 143.926 70.444 143.926 69.684V66H144.97V69.624C144.97 70.112 145.102 70.492 145.366 70.764C145.63 71.028 145.994 71.16 146.458 71.16C146.978 71.16 147.398 71 147.718 70.68C148.038 70.352 148.198 69.852 148.198 69.18V66ZM158.799 66H159.843V72H158.799V70.968C158.279 71.76 157.523 72.156 156.531 72.156C155.691 72.156 154.975 71.852 154.383 71.244C153.791 70.628 153.495 69.88 153.495 69C153.495 68.12 153.791 67.376 154.383 66.768C154.975 66.152 155.691 65.844 156.531 65.844C157.523 65.844 158.279 66.24 158.799 67.032V66ZM156.663 71.148C157.271 71.148 157.779 70.944 158.187 70.536C158.595 70.12 158.799 69.608 158.799 69C158.799 68.392 158.595 67.884 158.187 67.476C157.779 67.06 157.271 66.852 156.663 66.852C156.063 66.852 155.559 67.06 155.151 67.476C154.743 67.884 154.539 68.392 154.539 69C154.539 69.608 154.743 70.12 155.151 70.536C155.559 70.944 156.063 71.148 156.663 71.148ZM162.469 67.008C162.813 66.264 163.437 65.892 164.341 65.892V66.984C163.829 66.96 163.389 67.096 163.021 67.392C162.653 67.688 162.469 68.164 162.469 68.82V72H161.425V66H162.469V67.008ZM165.766 69.48C165.87 70.016 166.114 70.432 166.498 70.728C166.89 71.024 167.37 71.172 167.938 71.172C168.73 71.172 169.306 70.88 169.666 70.296L170.554 70.8C169.97 71.704 169.09 72.156 167.914 72.156C166.962 72.156 166.186 71.86 165.586 71.268C164.994 70.668 164.698 69.912 164.698 69C164.698 68.096 164.99 67.344 165.574 66.744C166.158 66.144 166.914 65.844 167.842 65.844C168.722 65.844 169.438 66.156 169.99 66.78C170.55 67.396 170.83 68.14 170.83 69.012C170.83 69.164 170.818 69.32 170.794 69.48H165.766ZM167.842 66.828C167.282 66.828 166.818 66.988 166.45 67.308C166.082 67.62 165.854 68.04 165.766 68.568H169.774C169.686 68 169.462 67.568 169.102 67.272C168.742 66.976 168.322 66.828 167.842 66.828ZM175.822 64.908C175.622 64.908 175.454 64.84 175.318 64.704C175.182 64.568 175.114 64.404 175.114 64.212C175.114 64.02 175.182 63.856 175.318 63.72C175.454 63.576 175.622 63.504 175.822 63.504C176.014 63.504 176.178 63.576 176.314 63.72C176.45 63.856 176.518 64.02 176.518 64.212C176.518 64.404 176.45 64.568 176.314 64.704C176.178 64.84 176.014 64.908 175.822 64.908ZM175.294 72.36V66H176.338V72.36C176.338 73.136 176.142 73.708 175.75 74.076C175.358 74.452 174.782 74.612 174.022 74.556V73.548C174.462 73.588 174.782 73.516 174.982 73.332C175.19 73.148 175.294 72.824 175.294 72.36ZM182.065 66H183.109V72H182.065V71.136C181.641 71.816 180.993 72.156 180.121 72.156C179.417 72.156 178.853 71.936 178.429 71.496C178.005 71.048 177.793 70.444 177.793 69.684V66H178.837V69.624C178.837 70.112 178.969 70.492 179.233 70.764C179.497 71.028 179.861 71.16 180.325 71.16C180.845 71.16 181.265 71 181.585 70.68C181.905 70.352 182.065 69.852 182.065 69.18V66ZM185.587 67.62C185.587 67.852 185.703 68.04 185.935 68.184C186.167 68.32 186.447 68.432 186.775 68.52C187.103 68.6 187.431 68.696 187.759 68.808C188.087 68.912 188.367 69.096 188.599 69.36C188.831 69.616 188.947 69.948 188.947 70.356C188.947 70.9 188.735 71.336 188.311 71.664C187.895 71.992 187.359 72.156 186.703 72.156C186.119 72.156 185.619 72.028 185.203 71.772C184.787 71.516 184.491 71.176 184.315 70.752L185.215 70.236C185.311 70.524 185.491 70.752 185.755 70.92C186.019 71.088 186.335 71.172 186.703 71.172C187.047 71.172 187.331 71.108 187.555 70.98C187.779 70.844 187.891 70.636 187.891 70.356C187.891 70.124 187.775 69.94 187.543 69.804C187.311 69.66 187.031 69.548 186.703 69.468C186.375 69.38 186.047 69.28 185.719 69.168C185.391 69.056 185.111 68.872 184.879 68.616C184.647 68.36 184.531 68.032 184.531 67.632C184.531 67.112 184.731 66.684 185.131 66.348C185.539 66.012 186.047 65.844 186.655 65.844C187.143 65.844 187.575 65.956 187.951 66.18C188.335 66.396 188.623 66.7 188.815 67.092L187.939 67.584C187.723 67.072 187.295 66.816 186.655 66.816C186.359 66.816 186.107 66.888 185.899 67.032C185.691 67.168 185.587 67.364 185.587 67.62ZM193.212 67.008H191.616V70.26C191.616 70.556 191.672 70.768 191.784 70.896C191.904 71.016 192.084 71.08 192.324 71.088C192.564 71.088 192.86 71.08 193.212 71.064V72C192.3 72.12 191.632 72.048 191.208 71.784C190.784 71.512 190.572 71.004 190.572 70.26V67.008H189.384V66H190.572V64.632L191.616 64.32V66H193.212V67.008ZM202.451 66H203.495V72H202.451V70.968C201.931 71.76 201.175 72.156 200.183 72.156C199.343 72.156 198.627 71.852 198.035 71.244C197.443 70.628 197.147 69.88 197.147 69C197.147 68.12 197.443 67.376 198.035 66.768C198.627 66.152 199.343 65.844 200.183 65.844C201.175 65.844 201.931 66.24 202.451 67.032V66ZM200.315 71.148C200.923 71.148 201.431 70.944 201.839 70.536C202.247 70.12 202.451 69.608 202.451 69C202.451 68.392 202.247 67.884 201.839 67.476C201.431 67.06 200.923 66.852 200.315 66.852C199.715 66.852 199.211 67.06 198.803 67.476C198.395 67.884 198.191 68.392 198.191 69C198.191 69.608 198.395 70.12 198.803 70.536C199.211 70.944 199.715 71.148 200.315 71.148ZM211.161 64.452C210.105 64.364 209.577 64.82 209.577 65.82V66H211.161V67.008H209.577V72H208.533V67.008H207.573V66H208.533V65.82C208.533 65.012 208.757 64.4 209.205 63.984C209.661 63.568 210.313 63.388 211.161 63.444V64.452ZM212.36 69.48C212.464 70.016 212.708 70.432 213.092 70.728C213.484 71.024 213.964 71.172 214.532 71.172C215.324 71.172 215.9 70.88 216.26 70.296L217.148 70.8C216.564 71.704 215.684 72.156 214.508 72.156C213.556 72.156 212.78 71.86 212.18 71.268C211.588 70.668 211.292 69.912 211.292 69C211.292 68.096 211.584 67.344 212.168 66.744C212.752 66.144 213.508 65.844 214.436 65.844C215.316 65.844 216.032 66.156 216.584 66.78C217.144 67.396 217.424 68.14 217.424 69.012C217.424 69.164 217.412 69.32 217.388 69.48H212.36ZM214.436 66.828C213.876 66.828 213.412 66.988 213.044 67.308C212.676 67.62 212.448 68.04 212.36 68.568H216.368C216.28 68 216.056 67.568 215.696 67.272C215.336 66.976 214.916 66.828 214.436 66.828ZM225.458 66H226.55L224.69 72H223.622L222.218 67.56L220.814 72H219.746L217.886 66H218.978L220.298 70.56L221.714 66H222.722L224.138 70.572L225.458 66ZM231.524 67.62C231.524 67.852 231.64 68.04 231.872 68.184C232.104 68.32 232.384 68.432 232.712 68.52C233.04 68.6 233.368 68.696 233.696 68.808C234.024 68.912 234.304 69.096 234.536 69.36C234.768 69.616 234.884 69.948 234.884 70.356C234.884 70.9 234.672 71.336 234.248 71.664C233.832 71.992 233.296 72.156 232.64 72.156C232.056 72.156 231.556 72.028 231.14 71.772C230.724 71.516 230.428 71.176 230.252 70.752L231.152 70.236C231.248 70.524 231.428 70.752 231.692 70.92C231.956 71.088 232.272 71.172 232.64 71.172C232.984 71.172 233.268 71.108 233.492 70.98C233.716 70.844 233.828 70.636 233.828 70.356C233.828 70.124 233.712 69.94 233.48 69.804C233.248 69.66 232.968 69.548 232.64 69.468C232.312 69.38 231.984 69.28 231.656 69.168C231.328 69.056 231.048 68.872 230.816 68.616C230.584 68.36 230.468 68.032 230.468 67.632C230.468 67.112 230.668 66.684 231.068 66.348C231.476 66.012 231.984 65.844 232.592 65.844C233.08 65.844 233.512 65.956 233.888 66.18C234.272 66.396 234.56 66.7 234.752 67.092L233.876 67.584C233.66 67.072 233.232 66.816 232.592 66.816C232.296 66.816 232.044 66.888 231.836 67.032C231.628 67.168 231.524 67.364 231.524 67.62ZM239.15 67.008H237.554V70.26C237.554 70.556 237.61 70.768 237.722 70.896C237.842 71.016 238.022 71.08 238.262 71.088C238.502 71.088 238.798 71.08 239.15 71.064V72C238.238 72.12 237.57 72.048 237.146 71.784C236.722 71.512 236.51 71.004 236.51 70.26V67.008H235.322V66H236.51V64.632L237.554 64.32V66H239.15V67.008ZM240.813 69.48C240.917 70.016 241.161 70.432 241.545 70.728C241.937 71.024 242.417 71.172 242.985 71.172C243.777 71.172 244.353 70.88 244.713 70.296L245.601 70.8C245.017 71.704 244.137 72.156 242.961 72.156C242.009 72.156 241.233 71.86 240.633 71.268C240.041 70.668 239.745 69.912 239.745 69C239.745 68.096 240.037 67.344 240.621 66.744C241.205 66.144 241.961 65.844 242.889 65.844C243.769 65.844 244.485 66.156 245.037 66.78C245.597 67.396 245.877 68.14 245.877 69.012C245.877 69.164 245.865 69.32 245.841 69.48H240.813ZM242.889 66.828C242.329 66.828 241.865 66.988 241.497 67.308C241.129 67.62 240.901 68.04 240.813 68.568H244.821C244.733 68 244.509 67.568 244.149 67.272C243.789 66.976 243.369 66.828 242.889 66.828ZM250.389 65.844C251.229 65.844 251.945 66.152 252.537 66.768C253.129 67.376 253.425 68.12 253.425 69C253.425 69.88 253.129 70.628 252.537 71.244C251.945 71.852 251.229 72.156 250.389 72.156C249.397 72.156 248.641 71.76 248.121 70.968V74.4H247.077V66H248.121V67.032C248.641 66.24 249.397 65.844 250.389 65.844ZM250.257 71.148C250.857 71.148 251.361 70.944 251.769 70.536C252.177 70.12 252.381 69.608 252.381 69C252.381 68.392 252.177 67.884 251.769 67.476C251.361 67.06 250.857 66.852 250.257 66.852C249.649 66.852 249.141 67.06 248.733 67.476C248.325 67.884 248.121 68.392 248.121 69C248.121 69.608 248.325 70.12 248.733 70.536C249.141 70.944 249.649 71.148 250.257 71.148ZM255.442 67.62C255.442 67.852 255.558 68.04 255.79 68.184C256.022 68.32 256.302 68.432 256.63 68.52C256.958 68.6 257.286 68.696 257.614 68.808C257.942 68.912 258.222 69.096 258.454 69.36C258.686 69.616 258.802 69.948 258.802 70.356C258.802 70.9 258.59 71.336 258.166 71.664C257.75 71.992 257.214 72.156 256.558 72.156C255.974 72.156 255.474 72.028 255.058 71.772C254.642 71.516 254.346 71.176 254.17 70.752L255.07 70.236C255.166 70.524 255.346 70.752 255.61 70.92C255.874 71.088 256.19 71.172 256.558 71.172C256.902 71.172 257.186 71.108 257.41 70.98C257.634 70.844 257.746 70.636 257.746 70.356C257.746 70.124 257.63 69.94 257.398 69.804C257.166 69.66 256.886 69.548 256.558 69.468C256.23 69.38 255.902 69.28 255.574 69.168C255.246 69.056 254.966 68.872 254.734 68.616C254.502 68.36 254.386 68.032 254.386 67.632C254.386 67.112 254.586 66.684 254.986 66.348C255.394 66.012 255.902 65.844 256.51 65.844C256.998 65.844 257.43 65.956 257.806 66.18C258.19 66.396 258.478 66.7 258.67 67.092L257.794 67.584C257.578 67.072 257.15 66.816 256.51 66.816C256.214 66.816 255.962 66.888 255.754 67.032C255.546 67.168 255.442 67.364 255.442 67.62ZM266.122 64.452C265.066 64.364 264.538 64.82 264.538 65.82V66H266.122V67.008H264.538V72H263.494V67.008H262.534V66H263.494V65.82C263.494 65.012 263.718 64.4 264.166 63.984C264.622 63.568 265.274 63.388 266.122 63.444V64.452ZM271.653 71.244C271.037 71.852 270.289 72.156 269.409 72.156C268.529 72.156 267.781 71.852 267.165 71.244C266.557 70.636 266.253 69.888 266.253 69C266.253 68.112 266.557 67.364 267.165 66.756C267.781 66.148 268.529 65.844 269.409 65.844C270.289 65.844 271.037 66.148 271.653 66.756C272.269 67.364 272.577 68.112 272.577 69C272.577 69.888 272.269 70.636 271.653 71.244ZM269.409 71.136C270.009 71.136 270.513 70.932 270.921 70.524C271.329 70.116 271.533 69.608 271.533 69C271.533 68.392 271.329 67.884 270.921 67.476C270.513 67.068 270.009 66.864 269.409 66.864C268.817 66.864 268.317 67.068 267.909 67.476C267.501 67.884 267.297 68.392 267.297 69C267.297 69.608 267.501 70.116 267.909 70.524C268.317 70.932 268.817 71.136 269.409 71.136ZM274.852 67.008C275.196 66.264 275.82 65.892 276.724 65.892V66.984C276.212 66.96 275.772 67.096 275.404 67.392C275.036 67.688 274.852 68.164 274.852 68.82V72H273.808V66H274.852V67.008ZM285.725 66H286.757V71.748C286.757 72.636 286.457 73.324 285.857 73.812C285.257 74.308 284.537 74.556 283.697 74.556C283.025 74.556 282.445 74.428 281.957 74.172C281.469 73.924 281.101 73.564 280.853 73.092L281.765 72.576C282.093 73.248 282.745 73.584 283.721 73.584C284.345 73.584 284.833 73.42 285.185 73.092C285.545 72.764 285.725 72.316 285.725 71.748V70.896C285.197 71.696 284.445 72.096 283.469 72.096C282.613 72.096 281.889 71.792 281.297 71.184C280.705 70.576 280.409 69.836 280.409 68.964C280.409 68.092 280.705 67.356 281.297 66.756C281.889 66.148 282.613 65.844 283.469 65.844C284.453 65.844 285.205 66.24 285.725 67.032V66ZM282.065 70.488C282.473 70.896 282.981 71.1 283.589 71.1C284.197 71.1 284.705 70.896 285.113 70.488C285.521 70.08 285.725 69.572 285.725 68.964C285.725 68.364 285.521 67.86 285.113 67.452C284.705 67.044 284.197 66.84 283.589 66.84C282.981 66.84 282.473 67.044 282.065 67.452C281.657 67.86 281.453 68.364 281.453 68.964C281.453 69.572 281.657 70.08 282.065 70.488ZM289.071 69.48C289.175 70.016 289.419 70.432 289.803 70.728C290.195 71.024 290.675 71.172 291.243 71.172C292.035 71.172 292.611 70.88 292.971 70.296L293.859 70.8C293.275 71.704 292.395 72.156 291.219 72.156C290.267 72.156 289.491 71.86 288.891 71.268C288.299 70.668 288.003 69.912 288.003 69C288.003 68.096 288.295 67.344 288.879 66.744C289.463 66.144 290.219 65.844 291.147 65.844C292.027 65.844 292.743 66.156 293.295 66.78C293.855 67.396 294.135 68.14 294.135 69.012C294.135 69.164 294.123 69.32 294.099 69.48H289.071ZM291.147 66.828C290.587 66.828 290.123 66.988 289.755 67.308C289.387 67.62 289.159 68.04 289.071 68.568H293.079C292.991 68 292.767 67.568 292.407 67.272C292.047 66.976 291.627 66.828 291.147 66.828ZM298.423 67.008H296.827V70.26C296.827 70.556 296.883 70.768 296.995 70.896C297.115 71.016 297.295 71.08 297.535 71.088C297.775 71.088 298.071 71.08 298.423 71.064V72C297.511 72.12 296.843 72.048 296.419 71.784C295.995 71.512 295.783 71.004 295.783 70.26V67.008H294.595V66H295.783V64.632L296.827 64.32V66H298.423V67.008ZM302.607 67.008H301.011V70.26C301.011 70.556 301.067 70.768 301.179 70.896C301.299 71.016 301.479 71.08 301.719 71.088C301.959 71.088 302.255 71.08 302.607 71.064V72C301.695 72.12 301.027 72.048 300.603 71.784C300.179 71.512 299.967 71.004 299.967 70.26V67.008H298.779V66H299.967V64.632L301.011 64.32V66H302.607V67.008ZM304.371 64.908C304.171 64.908 304.003 64.84 303.867 64.704C303.731 64.568 303.663 64.404 303.663 64.212C303.663 64.02 303.731 63.856 303.867 63.72C304.003 63.576 304.171 63.504 304.371 63.504C304.563 63.504 304.727 63.576 304.863 63.72C304.999 63.856 305.067 64.02 305.067 64.212C305.067 64.404 304.999 64.568 304.863 64.704C304.727 64.84 304.563 64.908 304.371 64.908ZM303.843 72V66H304.887V72H303.843ZM309.468 65.844C310.172 65.844 310.736 66.068 311.16 66.516C311.584 66.956 311.796 67.556 311.796 68.316V72H310.752V68.376C310.752 67.888 310.62 67.512 310.356 67.248C310.092 66.976 309.728 66.84 309.264 66.84C308.744 66.84 308.324 67.004 308.004 67.332C307.684 67.652 307.524 68.148 307.524 68.82V72H306.479V66H307.524V66.864C307.948 66.184 308.596 65.844 309.468 65.844ZM318.233 66H319.265V71.748C319.265 72.636 318.965 73.324 318.365 73.812C317.765 74.308 317.045 74.556 316.205 74.556C315.533 74.556 314.953 74.428 314.465 74.172C313.977 73.924 313.609 73.564 313.361 73.092L314.273 72.576C314.601 73.248 315.253 73.584 316.229 73.584C316.853 73.584 317.341 73.42 317.693 73.092C318.053 72.764 318.233 72.316 318.233 71.748V70.896C317.705 71.696 316.953 72.096 315.977 72.096C315.121 72.096 314.397 71.792 313.805 71.184C313.213 70.576 312.917 69.836 312.917 68.964C312.917 68.092 313.213 67.356 313.805 66.756C314.397 66.148 315.121 65.844 315.977 65.844C316.961 65.844 317.713 66.24 318.233 67.032V66ZM314.573 70.488C314.981 70.896 315.489 71.1 316.097 71.1C316.705 71.1 317.213 70.896 317.621 70.488C318.029 70.08 318.233 69.572 318.233 68.964C318.233 68.364 318.029 67.86 317.621 67.452C317.213 67.044 316.705 66.84 316.097 66.84C315.489 66.84 314.981 67.044 314.573 67.452C314.165 67.86 313.961 68.364 313.961 68.964C313.961 69.572 314.165 70.08 314.573 70.488ZM134.98 80H136.096L133.648 86.372C133.392 87.052 133.032 87.568 132.568 87.92C132.112 88.28 131.584 88.44 130.984 88.4V87.428C131.72 87.484 132.26 87.076 132.604 86.204L132.712 85.976L130.096 80H131.212L133.252 84.704L134.98 80ZM141.797 85.244C141.181 85.852 140.433 86.156 139.553 86.156C138.673 86.156 137.925 85.852 137.309 85.244C136.701 84.636 136.397 83.888 136.397 83C136.397 82.112 136.701 81.364 137.309 80.756C137.925 80.148 138.673 79.844 139.553 79.844C140.433 79.844 141.181 80.148 141.797 80.756C142.413 81.364 142.721 82.112 142.721 83C142.721 83.888 142.413 84.636 141.797 85.244ZM139.553 85.136C140.153 85.136 140.657 84.932 141.065 84.524C141.473 84.116 141.677 83.608 141.677 83C141.677 82.392 141.473 81.884 141.065 81.476C140.657 81.068 140.153 80.864 139.553 80.864C138.961 80.864 138.461 81.068 138.053 81.476C137.645 81.884 137.441 82.392 137.441 83C137.441 83.608 137.645 84.116 138.053 84.524C138.461 84.932 138.961 85.136 139.553 85.136ZM148.092 80H149.136V86H148.092V85.136C147.668 85.816 147.02 86.156 146.148 86.156C145.444 86.156 144.88 85.936 144.456 85.496C144.032 85.048 143.82 84.444 143.82 83.684V80H144.864V83.624C144.864 84.112 144.996 84.492 145.26 84.764C145.524 85.028 145.888 85.16 146.352 85.16C146.872 85.16 147.292 85 147.612 84.68C147.932 84.352 148.092 83.852 148.092 83.18V80ZM151.77 81.008C152.114 80.264 152.738 79.892 153.642 79.892V80.984C153.13 80.96 152.69 81.096 152.322 81.392C151.954 81.688 151.77 82.164 151.77 82.82V86H150.726V80H151.77V81.008ZM158.887 84.944H162.511V86H157.771V77.6H158.887V84.944ZM168.352 85.244C167.736 85.852 166.988 86.156 166.108 86.156C165.228 86.156 164.48 85.852 163.864 85.244C163.256 84.636 162.952 83.888 162.952 83C162.952 82.112 163.256 81.364 163.864 80.756C164.48 80.148 165.228 79.844 166.108 79.844C166.988 79.844 167.736 80.148 168.352 80.756C168.968 81.364 169.276 82.112 169.276 83C169.276 83.888 168.968 84.636 168.352 85.244ZM166.108 85.136C166.708 85.136 167.212 84.932 167.62 84.524C168.028 84.116 168.232 83.608 168.232 83C168.232 82.392 168.028 81.884 167.62 81.476C167.212 81.068 166.708 80.864 166.108 80.864C165.516 80.864 165.016 81.068 164.608 81.476C164.2 81.884 163.996 82.392 163.996 83C163.996 83.608 164.2 84.116 164.608 84.524C165.016 84.932 165.516 85.136 166.108 85.136ZM175.475 80H176.519V86H175.475V84.968C174.955 85.76 174.199 86.156 173.207 86.156C172.367 86.156 171.651 85.852 171.059 85.244C170.467 84.628 170.171 83.88 170.171 83C170.171 82.12 170.467 81.376 171.059 80.768C171.651 80.152 172.367 79.844 173.207 79.844C174.199 79.844 174.955 80.24 175.475 81.032V80ZM173.339 85.148C173.947 85.148 174.455 84.944 174.863 84.536C175.271 84.12 175.475 83.608 175.475 83C175.475 82.392 175.271 81.884 174.863 81.476C174.455 81.06 173.947 80.852 173.339 80.852C172.739 80.852 172.235 81.06 171.827 81.476C171.419 81.884 171.215 82.392 171.215 83C171.215 83.608 171.419 84.12 171.827 84.536C172.235 84.944 172.739 85.148 173.339 85.148ZM181.089 79.844C181.793 79.844 182.357 80.068 182.781 80.516C183.205 80.956 183.417 81.556 183.417 82.316V86H182.373V82.376C182.373 81.888 182.241 81.512 181.977 81.248C181.713 80.976 181.349 80.84 180.885 80.84C180.365 80.84 179.945 81.004 179.625 81.332C179.305 81.652 179.145 82.148 179.145 82.82V86H178.101V80H179.145V80.864C179.569 80.184 180.217 79.844 181.089 79.844Z" fill="white"/>
<path d="M136.352 30.224C134.667 30.224 133.275 29.664 132.176 28.544C131.077 27.424 130.528 26.0427 130.528 24.4C130.528 22.7467 131.077 21.3653 132.176 20.256C133.275 19.136 134.667 18.576 136.352 18.576C137.365 18.576 138.299 18.816 139.152 19.296C140.016 19.7653 140.688 20.4053 141.168 21.216L139.264 22.32C138.987 21.8187 138.592 21.4293 138.08 21.152C137.568 20.864 136.992 20.72 136.352 20.72C135.264 20.72 134.384 21.0613 133.712 21.744C133.051 22.4267 132.72 23.312 132.72 24.4C132.72 25.4773 133.051 26.3573 133.712 27.04C134.384 27.7227 135.264 28.064 136.352 28.064C136.992 28.064 137.568 27.9253 138.08 27.648C138.603 27.36 138.997 26.9707 139.264 26.48L141.168 27.584C140.688 28.3947 140.021 29.04 139.168 29.52C138.315 29.9893 137.376 30.224 136.352 30.224ZM149.291 29.008C148.47 29.8187 147.467 30.224 146.283 30.224C145.099 30.224 144.097 29.8187 143.275 29.008C142.465 28.1867 142.059 27.184 142.059 26C142.059 24.816 142.465 23.8187 143.275 23.008C144.097 22.1867 145.099 21.776 146.283 21.776C147.467 21.776 148.47 22.1867 149.291 23.008C150.113 23.8187 150.523 24.816 150.523 26C150.523 27.184 150.113 28.1867 149.291 29.008ZM144.731 27.584C145.147 28 145.665 28.208 146.283 28.208C146.902 28.208 147.419 28 147.835 27.584C148.251 27.168 148.459 26.64 148.459 26C148.459 25.36 148.251 24.832 147.835 24.416C147.419 24 146.902 23.792 146.283 23.792C145.665 23.792 145.147 24 144.731 24.416C144.326 24.832 144.123 25.36 144.123 26C144.123 26.64 144.326 27.168 144.731 27.584ZM160.823 21.776C161.741 21.776 162.471 22.0747 163.015 22.672C163.57 23.2693 163.847 24.0693 163.847 25.072V30H161.783V25.216C161.783 24.736 161.666 24.3627 161.431 24.096C161.197 23.8293 160.866 23.696 160.439 23.696C159.97 23.696 159.602 23.8507 159.335 24.16C159.079 24.4693 158.951 24.9173 158.951 25.504V30H156.887V25.216C156.887 24.736 156.77 24.3627 156.535 24.096C156.301 23.8293 155.97 23.696 155.543 23.696C155.085 23.696 154.717 23.8507 154.439 24.16C154.173 24.4693 154.039 24.9173 154.039 25.504V30H151.975V22H154.039V22.848C154.519 22.1333 155.261 21.776 156.263 21.776C157.245 21.776 157.97 22.16 158.439 22.928C158.973 22.16 159.767 21.776 160.823 21.776ZM170.256 21.776C171.334 21.776 172.251 22.1867 173.008 23.008C173.776 23.8187 174.16 24.816 174.16 26C174.16 27.184 173.776 28.1867 173.008 29.008C172.251 29.8187 171.334 30.224 170.256 30.224C169.136 30.224 168.272 29.8347 167.664 29.056V33.2H165.6V22H167.664V22.944C168.272 22.1653 169.136 21.776 170.256 21.776ZM168.288 27.632C168.704 28.048 169.232 28.256 169.872 28.256C170.512 28.256 171.04 28.048 171.456 27.632C171.883 27.2053 172.096 26.6613 172.096 26C172.096 25.3387 171.883 24.8 171.456 24.384C171.04 23.9573 170.512 23.744 169.872 23.744C169.232 23.744 168.704 23.9573 168.288 24.384C167.872 24.8 167.664 25.3387 167.664 26C167.664 26.6613 167.872 27.2053 168.288 27.632ZM175.616 30V18.32H177.68V30H175.616ZM181.313 26.848C181.59 27.8507 182.342 28.352 183.569 28.352C184.358 28.352 184.956 28.0853 185.361 27.552L187.025 28.512C186.236 29.6533 185.073 30.224 183.537 30.224C182.214 30.224 181.153 29.824 180.353 29.024C179.553 28.224 179.153 27.216 179.153 26C179.153 24.7947 179.548 23.792 180.337 22.992C181.126 22.1813 182.14 21.776 183.377 21.776C184.55 21.776 185.516 22.1813 186.273 22.992C187.041 23.8027 187.425 24.8053 187.425 26C187.425 26.2667 187.398 26.5493 187.345 26.848H181.313ZM181.281 25.248H185.361C185.244 24.704 184.998 24.2987 184.625 24.032C184.262 23.7653 183.846 23.632 183.377 23.632C182.822 23.632 182.364 23.776 182.001 24.064C181.638 24.3413 181.398 24.736 181.281 25.248ZM193.208 23.984H191.4V27.312C191.4 27.5893 191.469 27.792 191.608 27.92C191.746 28.048 191.949 28.1227 192.216 28.144C192.482 28.1547 192.813 28.1493 193.208 28.128V30C191.789 30.16 190.786 30.0267 190.2 29.6C189.624 29.1733 189.336 28.4107 189.336 27.312V23.984H187.944V22H189.336V20.384L191.4 19.76V22H193.208V23.984ZM196.157 26.848C196.434 27.8507 197.186 28.352 198.413 28.352C199.202 28.352 199.799 28.0853 200.205 27.552L201.869 28.512C201.079 29.6533 199.917 30.224 198.381 30.224C197.058 30.224 195.997 29.824 195.197 29.024C194.397 28.224 193.997 27.216 193.997 26C193.997 24.7947 194.391 23.792 195.181 22.992C195.97 22.1813 196.983 21.776 198.221 21.776C199.394 21.776 200.359 22.1813 201.117 22.992C201.885 23.8027 202.269 24.8053 202.269 26C202.269 26.2667 202.242 26.5493 202.189 26.848H196.157ZM196.125 25.248H200.205C200.087 24.704 199.842 24.2987 199.469 24.032C199.106 23.7653 198.69 23.632 198.221 23.632C197.666 23.632 197.207 23.776 196.845 24.064C196.482 24.3413 196.242 24.736 196.125 25.248ZM212.926 22H215.134L212.222 30C211.806 31.152 211.251 31.984 210.558 32.496C209.875 33.0187 209.022 33.2533 207.998 33.2V31.28C208.552 31.2907 208.99 31.1733 209.31 30.928C209.64 30.6827 209.902 30.288 210.094 29.744L206.814 22H209.07L211.15 27.376L212.926 22ZM222.619 29.008C221.798 29.8187 220.795 30.224 219.611 30.224C218.427 30.224 217.425 29.8187 216.603 29.008C215.793 28.1867 215.387 27.184 215.387 26C215.387 24.816 215.793 23.8187 216.603 23.008C217.425 22.1867 218.427 21.776 219.611 21.776C220.795 21.776 221.798 22.1867 222.619 23.008C223.441 23.8187 223.851 24.816 223.851 26C223.851 27.184 223.441 28.1867 222.619 29.008ZM218.059 27.584C218.475 28 218.993 28.208 219.611 28.208C220.23 28.208 220.747 28 221.163 27.584C221.579 27.168 221.787 26.64 221.787 26C221.787 25.36 221.579 24.832 221.163 24.416C220.747 24 220.23 23.792 219.611 23.792C218.993 23.792 218.475 24 218.059 24.416C217.654 24.832 217.451 25.36 217.451 26C217.451 26.64 217.654 27.168 218.059 27.584ZM230.583 22H232.647V30H230.583V29.104C230.082 29.8507 229.287 30.224 228.199 30.224C227.325 30.224 226.599 29.9307 226.023 29.344C225.458 28.7573 225.175 27.9467 225.175 26.912V22H227.239V26.656C227.239 27.1893 227.383 27.6 227.671 27.888C227.959 28.1653 228.343 28.304 228.823 28.304C229.357 28.304 229.783 28.1387 230.103 27.808C230.423 27.4773 230.583 26.9813 230.583 26.32V22ZM236.602 23.376C236.794 22.864 237.108 22.48 237.546 22.224C237.994 21.968 238.49 21.84 239.034 21.84V24.144C238.404 24.0693 237.839 24.1973 237.338 24.528C236.847 24.8587 236.602 25.408 236.602 26.176V30H234.538V22H236.602V23.376ZM244.241 30V18.32H246.305V30H244.241ZM255.01 29.008C254.189 29.8187 253.186 30.224 252.002 30.224C250.818 30.224 249.815 29.8187 248.994 29.008C248.183 28.1867 247.778 27.184 247.778 26C247.778 24.816 248.183 23.8187 248.994 23.008C249.815 22.1867 250.818 21.776 252.002 21.776C253.186 21.776 254.189 22.1867 255.01 23.008C255.831 23.8187 256.242 24.816 256.242 26C256.242 27.184 255.831 28.1867 255.01 29.008ZM250.45 27.584C250.866 28 251.383 28.208 252.002 28.208C252.621 28.208 253.138 28 253.554 27.584C253.97 27.168 254.178 26.64 254.178 26C254.178 25.36 253.97 24.832 253.554 24.416C253.138 24 252.621 23.792 252.002 23.792C251.383 23.792 250.866 24 250.45 24.416C250.045 24.832 249.842 25.36 249.842 26C249.842 26.64 250.045 27.168 250.45 27.584ZM263.774 22H265.838V30H263.774V29.056C263.155 29.8347 262.286 30.224 261.166 30.224C260.099 30.224 259.182 29.8187 258.414 29.008C257.657 28.1867 257.278 27.184 257.278 26C257.278 24.816 257.657 23.8187 258.414 23.008C259.182 22.1867 260.099 21.776 261.166 21.776C262.286 21.776 263.155 22.1653 263.774 22.944V22ZM259.966 27.632C260.382 28.048 260.91 28.256 261.55 28.256C262.19 28.256 262.718 28.048 263.134 27.632C263.561 27.2053 263.774 26.6613 263.774 26C263.774 25.3387 263.561 24.8 263.134 24.384C262.718 23.9573 262.19 23.744 261.55 23.744C260.91 23.744 260.382 23.9573 259.966 24.384C259.55 24.8 259.342 25.3387 259.342 26C259.342 26.6613 259.55 27.2053 259.966 27.632ZM272.158 21.776C273.032 21.776 273.752 22.0693 274.318 22.656C274.894 23.2427 275.182 24.0533 275.182 25.088V30H273.118V25.344C273.118 24.8107 272.974 24.4053 272.686 24.128C272.398 23.84 272.014 23.696 271.534 23.696C271 23.696 270.574 23.8613 270.254 24.192C269.934 24.5227 269.774 25.0187 269.774 25.68V30H267.71V22H269.774V22.896C270.275 22.1493 271.07 21.776 272.158 21.776ZM137.024 42H139.088V50H137.024V49.056C136.405 49.8347 135.536 50.224 134.416 50.224C133.349 50.224 132.432 49.8187 131.664 49.008C130.907 48.1867 130.528 47.184 130.528 46C130.528 44.816 130.907 43.8187 131.664 43.008C132.432 42.1867 133.349 41.776 134.416 41.776C135.536 41.776 136.405 42.1653 137.024 42.944V42ZM133.216 47.632C133.632 48.048 134.16 48.256 134.8 48.256C135.44 48.256 135.968 48.048 136.384 47.632C136.811 47.2053 137.024 46.6613 137.024 46C137.024 45.3387 136.811 44.8 136.384 44.384C135.968 43.9573 135.44 43.744 134.8 43.744C134.16 43.744 133.632 43.9573 133.216 44.384C132.8 44.8 132.592 45.3387 132.592 46C132.592 46.6613 132.8 47.2053 133.216 47.632ZM145.616 41.776C146.693 41.776 147.61 42.1867 148.368 43.008C149.136 43.8187 149.52 44.816 149.52 46C149.52 47.184 149.136 48.1867 148.368 49.008C147.61 49.8187 146.693 50.224 145.616 50.224C144.496 50.224 143.632 49.8347 143.024 49.056V53.2H140.96V42H143.024V42.944C143.632 42.1653 144.496 41.776 145.616 41.776ZM143.648 47.632C144.064 48.048 144.592 48.256 145.232 48.256C145.872 48.256 146.4 48.048 146.816 47.632C147.242 47.2053 147.456 46.6613 147.456 46C147.456 45.3387 147.242 44.8 146.816 44.384C146.4 43.9573 145.872 43.744 145.232 43.744C144.592 43.744 144.064 43.9573 143.648 44.384C143.232 44.8 143.024 45.3387 143.024 46C143.024 46.6613 143.232 47.2053 143.648 47.632ZM155.631 41.776C156.709 41.776 157.626 42.1867 158.383 43.008C159.151 43.8187 159.535 44.816 159.535 46C159.535 47.184 159.151 48.1867 158.383 49.008C157.626 49.8187 156.709 50.224 155.631 50.224C154.511 50.224 153.647 49.8347 153.039 49.056V53.2H150.975V42H153.039V42.944C153.647 42.1653 154.511 41.776 155.631 41.776ZM153.663 47.632C154.079 48.048 154.607 48.256 155.247 48.256C155.887 48.256 156.415 48.048 156.831 47.632C157.258 47.2053 157.471 46.6613 157.471 46C157.471 45.3387 157.258 44.8 156.831 44.384C156.415 43.9573 155.887 43.744 155.247 43.744C154.607 43.744 154.079 43.9573 153.663 44.384C153.247 44.8 153.039 45.3387 153.039 46C153.039 46.6613 153.247 47.2053 153.663 47.632ZM160.991 50V38.32H163.055V50H160.991ZM165.968 41.04C165.627 41.04 165.328 40.9173 165.072 40.672C164.827 40.416 164.704 40.1173 164.704 39.776C164.704 39.4347 164.827 39.136 165.072 38.88C165.328 38.624 165.627 38.496 165.968 38.496C166.32 38.496 166.619 38.624 166.864 38.88C167.12 39.136 167.248 39.4347 167.248 39.776C167.248 40.1173 167.12 40.416 166.864 40.672C166.619 40.9173 166.32 41.04 165.968 41.04ZM164.944 50V42H167.008V50H164.944ZM172.705 50.224C171.5 50.224 170.492 49.8187 169.681 49.008C168.881 48.1973 168.481 47.1947 168.481 46C168.481 44.8053 168.881 43.8027 169.681 42.992C170.492 42.1813 171.5 41.776 172.705 41.776C173.484 41.776 174.193 41.9627 174.833 42.336C175.473 42.7093 175.958 43.2107 176.289 43.84L174.513 44.88C174.353 44.5493 174.108 44.288 173.777 44.096C173.457 43.904 173.094 43.808 172.689 43.808C172.07 43.808 171.558 44.016 171.153 44.432C170.748 44.8373 170.545 45.36 170.545 46C170.545 46.6293 170.748 47.152 171.153 47.568C171.558 47.9733 172.07 48.176 172.689 48.176C173.105 48.176 173.473 48.0853 173.793 47.904C174.124 47.712 174.369 47.4507 174.529 47.12L176.321 48.144C175.969 48.7733 175.473 49.28 174.833 49.664C174.193 50.0373 173.484 50.224 172.705 50.224ZM183.368 42H185.432V50H183.368V49.056C182.749 49.8347 181.88 50.224 180.76 50.224C179.693 50.224 178.776 49.8187 178.008 49.008C177.25 48.1867 176.872 47.184 176.872 46C176.872 44.816 177.25 43.8187 178.008 43.008C178.776 42.1867 179.693 41.776 180.76 41.776C181.88 41.776 182.749 42.1653 183.368 42.944V42ZM179.56 47.632C179.976 48.048 180.504 48.256 181.144 48.256C181.784 48.256 182.312 48.048 182.728 47.632C183.154 47.2053 183.368 46.6613 183.368 46C183.368 45.3387 183.154 44.8 182.728 44.384C182.312 43.9573 181.784 43.744 181.144 43.744C180.504 43.744 179.976 43.9573 179.56 44.384C179.144 44.8 178.936 45.3387 178.936 46C178.936 46.6613 179.144 47.2053 179.56 47.632ZM191.879 43.984H190.071V47.312C190.071 47.5893 190.141 47.792 190.279 47.92C190.418 48.048 190.621 48.1227 190.887 48.144C191.154 48.1547 191.485 48.1493 191.879 48.128V50C190.461 50.16 189.458 50.0267 188.871 49.6C188.295 49.1733 188.007 48.4107 188.007 47.312V43.984H186.615V42H188.007V40.384L190.071 39.76V42H191.879V43.984ZM194.359 41.04C194.017 41.04 193.719 40.9173 193.463 40.672C193.217 40.416 193.095 40.1173 193.095 39.776C193.095 39.4347 193.217 39.136 193.463 38.88C193.719 38.624 194.017 38.496 194.359 38.496C194.711 38.496 195.009 38.624 195.255 38.88C195.511 39.136 195.639 39.4347 195.639 39.776C195.639 40.1173 195.511 40.416 195.255 40.672C195.009 40.9173 194.711 41.04 194.359 41.04ZM193.335 50V42H195.399V50H193.335ZM204.104 49.008C203.282 49.8187 202.28 50.224 201.096 50.224C199.912 50.224 198.909 49.8187 198.088 49.008C197.277 48.1867 196.872 47.184 196.872 46C196.872 44.816 197.277 43.8187 198.088 43.008C198.909 42.1867 199.912 41.776 201.096 41.776C202.28 41.776 203.282 42.1867 204.104 43.008C204.925 43.8187 205.336 44.816 205.336 46C205.336 47.184 204.925 48.1867 204.104 49.008ZM199.544 47.584C199.96 48 200.477 48.208 201.096 48.208C201.714 48.208 202.232 48 202.648 47.584C203.064 47.168 203.272 46.64 203.272 46C203.272 45.36 203.064 44.832 202.648 44.416C202.232 44 201.714 43.792 201.096 43.792C200.477 43.792 199.96 44 199.544 44.416C199.138 44.832 198.936 45.36 198.936 46C198.936 46.64 199.138 47.168 199.544 47.584ZM211.236 41.776C212.11 41.776 212.83 42.0693 213.396 42.656C213.972 43.2427 214.26 44.0533 214.26 45.088V50H212.196V45.344C212.196 44.8107 212.052 44.4053 211.764 44.128C211.476 43.84 211.092 43.696 210.612 43.696C210.078 43.696 209.652 43.8613 209.332 44.192C209.012 44.5227 208.852 45.0187 208.852 45.68V50H206.788V42H208.852V42.896C209.353 42.1493 210.148 41.776 211.236 41.776Z" fill="white"/>
<path opacity="0.7" d="M36.0916 78.4238C51.5057 86.145 76.4942 86.145 91.9083 78.4238C107.322 70.7027 107.321 58.1838 91.9083 50.4627C76.496 42.7416 51.5057 42.7416 36.0916 50.4627C20.6776 58.1838 20.6793 70.7027 36.0916 78.4238Z" fill="#F5F5F5"/>
<path d="M86.6389 53.0358C86.6812 52.0202 87.482 49.8783 88.589 48.6006C89.696 47.3228 91.4349 46.5185 92.5983 46.9691C93.6789 47.3897 93.5029 48.8241 92.1336 49.7234C90.7644 50.6228 88.714 51.7422 88.0628 53.3666L86.7533 55.3414L86.6389 53.0358Z" fill="#49BEB7"/>
<path opacity="0.1" d="M86.6389 53.0358C86.6812 52.0202 87.482 49.8783 88.589 48.6006C89.696 47.3228 91.4349 46.5185 92.5983 46.9691C93.6789 47.3897 93.5029 48.8241 92.1336 49.7234C90.7644 50.6228 88.714 51.7422 88.0628 53.3666L86.7533 55.3414L86.6389 53.0358Z" fill="black"/>
<path d="M92.1689 47.4653C90.8524 47.7716 87.0649 50.4274 86.7129 54.2272" stroke="white" stroke-width="1.02594" stroke-miterlimit="10" stroke-linecap="round"/>
<path d="M86.9733 57.0716C87.0349 56.0156 87.9343 55.2552 89.1187 54.56C90.5267 53.7364 91.7411 53.365 92.1688 52.5536C92.5965 51.7423 91.8309 50.8253 90.3789 51.3093C89.1469 51.7194 86.7691 53.8296 86.7533 55.3415L86.9733 57.0716Z" fill="#49BEB7"/>
<path d="M91.25 51.9531C89.3052 52.3984 87.1316 54.1672 86.8395 56.0205" stroke="white" stroke-miterlimit="10" stroke-linecap="round"/>
<path d="M32.5911 41.0468V71.6339L63.8962 53.5587V25.7524L40.6184 39.1918L39.8141 36.8756L32.5911 41.0468Z" fill="#263238"/>
<path d="M32.5911 71.6339L34.1962 43.8259L65.5013 25.7524L63.8962 53.5587L32.5911 71.6339Z" fill="white"/>
<path d="M32.5911 71.6339L34.9987 44.2905L66.3039 26.2153L63.8962 53.5587L32.5911 71.6339Z" fill="#37474F"/>
<path d="M40.9546 46.9887V77.5758L72.2615 59.5006V31.6943L48.9819 45.1337L48.1794 42.8175L40.9546 46.9887Z" fill="#49BEB7"/>
<g opacity="0.1">
<path opacity="0.1" d="M40.9546 46.9887V77.5758L72.2615 59.5006V31.6943L48.9819 45.1337L48.1794 42.8175L40.9546 46.9887Z" fill="black"/>
</g>
<path d="M52.3246 66.8961C52.228 66.831 52.1481 66.744 52.0916 66.6421C52.035 66.5403 52.0033 66.4265 51.999 66.3101V28.148C52.006 28.0274 52.0415 27.9103 52.1027 27.8062C52.1639 27.7022 52.2491 27.6142 52.351 27.5496L76.3081 13.7142C76.4081 13.6514 76.5233 13.6171 76.6414 13.6149C76.7594 13.6126 76.8758 13.6427 76.9781 13.7017C77.0804 13.7607 77.1646 13.8464 77.2218 13.9497C77.2789 14.053 77.3069 14.17 77.3025 14.288V52.4465C77.2953 52.567 77.2596 52.684 77.1985 52.788C77.1373 52.8921 77.0523 52.9801 76.9505 53.0449L52.9952 66.8785C52.8927 66.9341 52.7786 66.9647 52.662 66.9678C52.5455 66.9708 52.4299 66.9463 52.3246 66.8961V66.8961Z" fill="#EBEBEB"/>
<path d="M52.648 28.88L62.379 22.5123L61.7314 22.1392L52.3453 27.5582C52.2433 27.6228 52.1582 27.7108 52.097 27.8149C52.0358 27.9189 52.0002 28.0361 51.9933 28.1566V28.5086L52.648 28.88Z" fill="#EBEBEB"/>
<path d="M55.8917 29.9961L52.1007 27.8066C52.0379 27.9098 52.0028 28.0274 51.9986 28.1481V66.3049C51.9943 66.4229 52.0222 66.5398 52.0794 66.6431C52.1365 66.7464 52.2208 66.8322 52.323 66.8912C52.4253 66.9502 52.5417 66.9802 52.6598 66.978C52.7778 66.9758 52.893 66.9414 52.993 66.8786L55.8917 65.2066V29.9961Z" fill="#E0E0E0"/>
<path d="M52.9948 66.8785L76.9554 53.0449C77.0571 52.9801 77.1421 52.892 77.2033 52.788C77.2645 52.684 77.3001 52.567 77.3074 52.4465V14.2879C77.3074 14.0679 77.1525 13.9782 76.9554 14.0891L52.993 27.9227C52.8912 27.9879 52.8062 28.0763 52.7451 28.1806C52.6839 28.2849 52.6482 28.4021 52.641 28.5228V66.6796C52.648 66.8961 52.8029 66.9894 52.9948 66.8785Z" fill="#E6E6E6"/>
<path d="M54.6369 37.3284L60.3903 34.0073C60.7722 33.7873 61.082 33.9439 61.082 34.3593C61.0651 34.5914 60.9936 34.8164 60.8734 35.0158C60.7532 35.2151 60.5877 35.3834 60.3903 35.5068L54.6369 38.8349C54.255 39.0549 53.9452 38.8983 53.9452 38.4829C53.9616 38.2497 54.0328 38.0235 54.153 37.8229C54.2731 37.6223 54.4389 37.4529 54.6369 37.3284V37.3284Z" fill="#F5F5F5"/>
<path d="M54.2215 43.4087L54.966 42.9793C55.1191 42.8913 55.2423 42.9617 55.2423 43.1377V43.9983C55.2373 44.0943 55.2096 44.1877 55.1616 44.2709C55.1136 44.3541 55.0465 44.4247 54.966 44.4771L54.2215 44.9065C54.0702 44.9945 53.9452 44.9241 53.9452 44.7463V43.8875C53.9506 43.7916 53.9785 43.6984 54.0265 43.6153C54.0744 43.5321 54.1413 43.4614 54.2215 43.4087V43.4087Z" fill="#FAFAFA"/>
<path d="M56.2384 42.6206L60.7369 40.0228C60.927 39.9119 61.0889 39.9911 61.0889 40.1988C61.0798 40.3155 61.0432 40.4283 60.982 40.5281C60.9208 40.6278 60.8368 40.7116 60.7369 40.7726L56.2384 43.3686C56.0465 43.4795 55.8864 43.4003 55.8864 43.1926C55.8954 43.0761 55.9321 42.9635 55.9933 42.8641C56.0545 42.7646 56.1385 42.6811 56.2384 42.6206V42.6206Z" fill="#F5F5F5"/>
<path d="M54.2215 46.4062L54.966 45.975C55.1191 45.887 55.2423 45.9592 55.2423 46.1352V46.9958C55.2373 47.0918 55.2096 47.1851 55.1616 47.2683C55.1136 47.3515 55.0465 47.4222 54.966 47.4745L54.2215 47.904C54.0702 47.992 53.9452 47.9198 53.9452 47.7438V46.8849C53.9506 46.7891 53.9785 46.6959 54.0265 46.6127C54.0744 46.5296 54.1413 46.4589 54.2215 46.4062V46.4062Z" fill="#FAFAFA"/>
<path d="M56.2384 45.6162L60.7369 43.0202C60.927 42.9094 61.0889 42.9868 61.0889 43.1962C61.0796 43.3128 61.0428 43.4256 60.9816 43.5253C60.9205 43.625 60.8366 43.7088 60.7369 43.77L56.2384 46.366C56.0465 46.4769 55.8864 46.3977 55.8864 46.19C55.8957 46.0734 55.9325 45.9607 55.9936 45.8609C56.0548 45.7612 56.1386 45.6774 56.2384 45.6162Z" fill="#F5F5F5"/>
<path d="M54.2215 49.4019L54.966 48.9724C55.1191 48.8844 55.2423 48.9548 55.2423 49.1326V50.0002C55.2373 50.0962 55.2096 50.1896 55.1616 50.2728C55.1136 50.356 55.0465 50.4266 54.966 50.479L54.2215 50.9084C54.0702 50.9982 53.9452 50.926 53.9452 50.75V49.8894C53.9493 49.792 53.9765 49.697 54.0245 49.6123C54.0726 49.5275 54.1401 49.4554 54.2215 49.4019V49.4019Z" fill="#FAFAFA"/>
<path d="M56.2384 48.6133L60.7369 46.0155C60.927 45.9046 61.0889 45.9838 61.0889 46.1915C61.0797 46.3084 61.043 46.4214 60.9818 46.5214C60.9207 46.6214 60.8368 46.7056 60.7369 46.767L56.2384 49.3613C56.0465 49.4721 55.8864 49.3947 55.8864 49.1853C55.8954 49.0688 55.9321 48.9562 55.9933 48.8567C56.0545 48.7573 56.1385 48.6738 56.2384 48.6133Z" fill="#F5F5F5"/>
<path d="M54.2215 52.4059L54.966 51.9765C55.1191 51.8885 55.2423 51.9607 55.2423 52.1367V52.992C55.2373 53.0879 55.2096 53.1813 55.1616 53.2645C55.1136 53.3477 55.0465 53.4184 54.966 53.4707L54.2215 53.9002C54.0702 53.9899 53.9452 53.9178 53.9452 53.7418V52.8811C53.9512 52.7859 53.9793 52.6934 54.0272 52.6109C54.0752 52.5284 54.1417 52.4582 54.2215 52.4059Z" fill="#FAFAFA"/>
<path d="M56.2384 51.6176L60.7369 49.0199C60.927 48.909 61.0889 48.9882 61.0889 49.1959C61.0797 49.3128 61.043 49.4258 60.9818 49.5258C60.9207 49.6258 60.8368 49.71 60.7369 49.7714L56.2384 52.3656C56.0465 52.4765 55.8864 52.3991 55.8864 52.1896C55.8957 52.0733 55.9325 51.9608 55.9936 51.8613C56.0548 51.7619 56.1387 51.6784 56.2384 51.6176V51.6176Z" fill="#F5F5F5"/>
<path d="M54.2919 58.6716L57.488 56.8236C57.6781 56.7127 57.84 56.7919 57.84 56.9996C57.8309 57.1163 57.7943 57.2291 57.7331 57.3289C57.6719 57.4286 57.5879 57.5124 57.488 57.5734L54.2866 59.4231C54.0947 59.5322 53.9346 59.4548 53.9346 59.2471C53.9442 59.1297 53.9817 59.0163 54.0438 58.9163C54.1059 58.8162 54.1909 58.7323 54.2919 58.6716V58.6716Z" fill="#F5F5F5"/>
<path d="M54.2918 60.1692L60.7369 56.4486C60.927 56.3377 61.0889 56.4169 61.0889 56.6246C61.0797 56.7415 61.043 56.8545 60.9819 56.9545C60.9207 57.0545 60.8368 57.1387 60.7369 57.2001L54.2918 60.912C54.1 61.0228 53.9398 60.9436 53.9398 60.736C53.9502 60.6206 53.9875 60.5092 54.0486 60.4108C54.1097 60.3124 54.193 60.2297 54.2918 60.1692V60.1692Z" fill="#F0F0F0"/>
<path d="M54.2918 60.1692L58.7904 57.5679C58.9805 57.4588 59.1424 57.5363 59.1424 57.7439C59.133 57.8605 59.0963 57.9733 59.0351 58.073C58.9739 58.1727 58.8901 58.2565 58.7904 58.3177L54.2918 60.9119C54.1 61.0228 53.9398 60.9436 53.9398 60.7359C53.9502 60.6206 53.9875 60.5092 54.0486 60.4108C54.1097 60.3124 54.193 60.2297 54.2918 60.1692V60.1692Z" fill="#FAFAFA"/>
<path d="M54.2919 61.6672L57.488 59.8174C57.6781 59.7083 57.84 59.7858 57.84 59.9934C57.8305 60.11 57.7937 60.2227 57.7326 60.3224C57.6714 60.4221 57.5876 60.5059 57.488 60.5672L54.2866 62.4152C54.0947 62.5261 53.9346 62.4469 53.9346 62.2392C53.9442 62.1223 53.9817 62.0094 54.0438 61.9099C54.106 61.8104 54.191 61.7272 54.2919 61.6672V61.6672Z" fill="#F5F5F5"/>
<path d="M54.2919 55.6762L57.488 53.8282C57.6781 53.7191 57.84 53.7965 57.84 54.0042C57.8305 54.1208 57.7937 54.2334 57.7326 54.3331C57.6714 54.4328 57.5876 54.5167 57.488 54.578L54.2866 56.426C54.0947 56.5368 53.9346 56.4576 53.9346 56.25C53.9445 56.1329 53.9821 56.0198 54.0442 55.9201C54.1063 55.8203 54.1912 55.7368 54.2919 55.6762V55.6762Z" fill="#F5F5F5"/>
<path d="M54.2918 57.1756L60.7369 53.4532C60.927 53.3441 61.0889 53.4215 61.0889 53.6292C61.0795 53.7458 61.0426 53.8584 60.9815 53.9581C60.9203 54.0578 60.8366 54.1417 60.7369 54.203L54.2918 57.9201C54.1 58.031 53.9398 57.9518 53.9398 57.7441C53.9494 57.6283 53.9863 57.5163 54.0475 57.4175C54.1087 57.3187 54.1924 57.2358 54.2918 57.1756V57.1756Z" fill="#F0F0F0"/>
<path d="M54.2918 57.1753L56.5798 55.8553C56.7717 55.7445 56.9318 55.8237 56.9318 56.0313C56.9227 56.1482 56.8861 56.2613 56.8249 56.3614C56.7638 56.4614 56.6798 56.5455 56.5798 56.6069L54.2918 57.9251C54.1 58.036 53.9398 57.9568 53.9398 57.7491C53.9486 57.6324 53.9851 57.5194 54.0463 57.4196C54.1076 57.3198 54.1917 57.2361 54.2918 57.1753Z" fill="#FAFAFA"/>
<path d="M54.2918 63.1648L60.7369 59.4442C60.927 59.3333 61.0889 59.4125 61.0889 59.6202C61.0799 59.7369 61.0432 59.8497 60.982 59.9495C60.9208 60.0492 60.8368 60.133 60.7369 60.194L54.2918 63.9164C54.1 64.0255 53.9398 63.948 53.9398 63.7404C53.9489 63.6235 53.9855 63.5104 54.0467 63.4103C54.1079 63.3103 54.1919 63.2262 54.2918 63.1648V63.1648Z" fill="#F0F0F0"/>
<path d="M54.2918 63.1649L60.0875 59.8209C60.2793 59.7117 60.4395 59.7892 60.4395 59.9969C60.4297 60.1134 60.3928 60.2259 60.3317 60.3256C60.2706 60.4252 60.1869 60.5091 60.0875 60.5706L54.2918 63.9146C54.1 64.0238 53.9398 63.9463 53.9398 63.7386C53.9492 63.622 53.9859 63.5093 54.0471 63.4096C54.1083 63.3099 54.1921 63.226 54.2918 63.1649V63.1649Z" fill="#FAFAFA"/>
<path d="M76.9553 14.0961L62.379 22.5036V61.4595L76.9553 53.0449C77.0571 52.98 77.1421 52.892 77.2032 52.788C77.2644 52.684 77.3001 52.5669 77.3073 52.4465V14.2879C77.3021 14.0679 77.1472 13.9782 76.9553 14.0961Z" fill="#F5F5F5"/>
<path d="M62.379 24.0029V26.9985L61.0819 28.498H62.379V31.4935L76.0032 23.6281V16.1357L62.379 24.0029Z" fill="#EBEBEB"/>
<path d="M64.1619 24.1067L69.6812 20.9194C69.9487 20.7663 70.1652 20.8912 70.1652 21.1992C70.1563 21.3674 70.1078 21.531 70.0237 21.6769C69.9396 21.8228 69.8223 21.9468 69.6812 22.0387L64.1619 25.2243C63.8943 25.3792 63.6779 25.2543 63.6779 24.9463C63.6868 24.7781 63.7353 24.6144 63.8194 24.4686C63.9035 24.3227 64.0208 24.1987 64.1619 24.1067V24.1067Z" fill="#FAFAFA"/>
<path d="M63.8504 26.5255L74.5336 20.3567C74.6287 20.3022 74.7096 20.3409 74.7096 20.4447C74.7051 20.5031 74.6868 20.5595 74.6562 20.6094C74.6256 20.6592 74.5836 20.7011 74.5336 20.7316L63.8504 26.9004C63.7554 26.955 63.6744 26.9162 63.6744 26.8124C63.679 26.7541 63.6973 26.6976 63.7279 26.6478C63.7585 26.5979 63.8005 26.556 63.8504 26.5255V26.5255Z" fill="#FAFAFA"/>
<path d="M63.8504 27.6484L74.5336 21.4884C74.6287 21.4321 74.7096 21.4726 74.7096 21.5746C74.705 21.6332 74.6866 21.6898 74.656 21.7399C74.6254 21.7901 74.5835 21.8323 74.5336 21.8633L63.8504 28.0233C63.7554 28.0778 63.6744 28.0391 63.6744 27.9353C63.6794 27.8771 63.6979 27.8208 63.7284 27.771C63.759 27.7212 63.8008 27.6792 63.8504 27.6484Z" fill="#FAFAFA"/>
<path d="M63.8504 28.7726L74.5336 22.6126C74.6287 22.558 74.7096 22.5967 74.7096 22.7006C74.7051 22.7589 74.6868 22.8153 74.6562 22.8652C74.6256 22.9151 74.5836 22.957 74.5336 22.9875L63.8504 29.1563C63.7554 29.2108 63.6744 29.1721 63.6744 29.0683C63.6776 29.0084 63.6953 28.9502 63.7259 28.8987C63.7566 28.8472 63.7993 28.8039 63.8504 28.7726V28.7726Z" fill="#FAFAFA"/>
<path d="M64.2517 31.9145L64.9962 31.4851C65.1493 31.3971 65.2742 31.4675 65.2742 31.6453V32.5041C65.2687 32.6002 65.2407 32.6935 65.1924 32.7767C65.1441 32.8599 65.0768 32.9305 64.9962 32.9829L64.2517 33.4123C64.1003 33.5003 63.9753 33.4299 63.9753 33.2539V32.4003C63.9797 32.3033 64.007 32.2086 64.0551 32.1242C64.1031 32.0397 64.1705 31.9679 64.2517 31.9145Z" fill="white"/>
<path d="M66.2686 31.1259L70.7672 28.5282C70.9573 28.4173 71.1192 28.4965 71.1192 28.7042C71.11 28.8211 71.0733 28.9341 71.0121 29.0341C70.9509 29.1341 70.867 29.2183 70.7672 29.2797L66.2686 31.8722C66.0768 31.983 65.9166 31.9056 65.9166 31.6962C65.926 31.58 65.9627 31.4678 66.0239 31.3686C66.0851 31.2695 66.169 31.1863 66.2686 31.1259V31.1259Z" fill="#E0E0E0"/>
<path d="M64.1496 34.5985L75.4805 28.0548C75.5773 27.9985 75.6565 28.039 75.6565 28.1411C75.6523 28.1995 75.6341 28.256 75.6034 28.3059C75.5728 28.3558 75.5307 28.3977 75.4805 28.4279L64.1496 34.9734C64.0528 35.0279 63.9736 34.9892 63.9736 34.8854C63.9779 34.827 63.9961 34.7704 64.0267 34.7205C64.0573 34.6706 64.0995 34.6288 64.1496 34.5985V34.5985Z" fill="#E0E0E0"/>
<path d="M64.1496 35.7212L75.4805 29.1775C75.5773 29.123 75.6565 29.1617 75.6565 29.2655C75.6523 29.3239 75.6341 29.3805 75.6034 29.4304C75.5728 29.4803 75.5307 29.5221 75.4805 29.5524L64.1496 36.0961C64.0528 36.1506 63.9736 36.1119 63.9736 36.0081C63.9784 35.9498 63.9969 35.8935 64.0274 35.8437C64.058 35.7938 64.0999 35.7519 64.1496 35.7212V35.7212Z" fill="#E0E0E0"/>
<path d="M64.1496 36.8459L75.4805 30.3022C75.5773 30.2459 75.6565 30.2846 75.6565 30.3885C75.6523 30.4469 75.6341 30.5034 75.6034 30.5533C75.5728 30.6033 75.5307 30.6451 75.4805 30.6754L64.1496 37.219C64.0528 37.2754 63.9736 37.2366 63.9736 37.1328C63.9779 37.0744 63.9961 37.0179 64.0267 36.9679C64.0573 36.918 64.0995 36.8762 64.1496 36.8459V36.8459Z" fill="#E0E0E0"/>
<path d="M64.1496 37.9725L75.4805 31.4288C75.5773 31.3725 75.6565 31.4129 75.6565 31.5168C75.6517 31.5751 75.6333 31.6314 75.6027 31.6812C75.5721 31.731 75.5303 31.773 75.4805 31.8037L64.1496 38.3473C64.0528 38.4019 63.9736 38.3632 63.9736 38.2593C63.9779 38.2009 63.9961 38.1444 64.0267 38.0945C64.0573 38.0446 64.0995 38.0027 64.1496 37.9725V37.9725Z" fill="#E0E0E0"/>
<path d="M64.2517 40.155L64.9962 39.7255C65.1493 39.6375 65.2742 39.7097 65.2742 39.8857V40.7446C65.2687 40.8406 65.2407 40.934 65.1924 41.0171C65.1441 41.1003 65.0768 41.1709 64.9962 41.2233L64.2517 41.6545C64.1003 41.7425 63.9753 41.6703 63.9753 41.4943V40.6354C63.9805 40.5393 64.0082 40.4457 64.0562 40.3623C64.1042 40.2788 64.1712 40.2078 64.2517 40.155Z" fill="white"/>
<path d="M66.2686 39.3664L70.7672 36.7686C70.9573 36.6595 71.1192 36.7369 71.1192 36.9446C71.1097 37.0612 71.0729 37.1739 71.0117 37.2736C70.9506 37.3732 70.8668 37.4571 70.7672 37.5184L66.2686 40.1161C66.0768 40.2252 65.9166 40.1478 65.9166 39.9401C65.926 39.8235 65.9627 39.7108 66.0239 39.6111C66.0851 39.5114 66.1689 39.4275 66.2686 39.3664Z" fill="#E0E0E0"/>
<path d="M64.1496 42.8389L75.4805 36.2952C75.5773 36.2406 75.6565 36.2794 75.6565 36.3832C75.6517 36.4415 75.6333 36.4978 75.6027 36.5476C75.5721 36.5974 75.5303 36.6394 75.4805 36.6701L64.1496 43.2138C64.0528 43.2683 63.9736 43.2296 63.9736 43.1258C63.9779 43.0673 63.9961 43.0108 64.0267 42.9609C64.0573 42.911 64.0995 42.8691 64.1496 42.8389V42.8389Z" fill="#E0E0E0"/>
<path d="M64.1496 43.9614L75.4805 37.4178C75.5773 37.3632 75.6565 37.4019 75.6565 37.5058C75.6523 37.5642 75.6341 37.6207 75.6034 37.6706C75.5728 37.7205 75.5307 37.7624 75.4805 37.7926L64.1496 44.3363C64.0528 44.3926 63.9736 44.3522 63.9736 44.2501C63.9782 44.1915 63.9965 44.1348 64.0271 44.0847C64.0577 44.0345 64.0996 43.9923 64.1496 43.9614V43.9614Z" fill="#E0E0E0"/>
<path d="M64.1496 45.0863L75.4805 38.5426C75.5773 38.4863 75.6565 38.5268 75.6565 38.6289C75.652 38.6874 75.6337 38.7441 75.6031 38.7942C75.5725 38.8444 75.5305 38.8866 75.4805 38.9175L64.1496 45.4612C64.0528 45.5157 63.9736 45.477 63.9736 45.3732C63.9779 45.3148 63.9961 45.2582 64.0267 45.2083C64.0573 45.1584 64.0995 45.1165 64.1496 45.0863V45.0863Z" fill="#E0E0E0"/>
<path d="M64.1496 46.2129L75.4805 39.6692C75.5773 39.6147 75.6565 39.6534 75.6565 39.7572C75.6523 39.8156 75.6341 39.8722 75.6034 39.9221C75.5728 39.972 75.5307 40.0138 75.4805 40.0441L64.1496 46.5878C64.0528 46.6423 63.9736 46.6036 63.9736 46.4998C63.9784 46.4415 63.9969 46.3852 64.0274 46.3354C64.058 46.2855 64.0999 46.2436 64.1496 46.2129V46.2129Z" fill="#E0E0E0"/>
<path d="M65.313 47.8563L66.0557 47.4268C66.2088 47.3371 66.3338 47.4092 66.3338 47.5852V48.4459C66.3283 48.5419 66.3002 48.6353 66.2519 48.7185C66.2036 48.8016 66.1364 48.8722 66.0557 48.9246L65.313 49.354C65.1599 49.442 65.0349 49.3716 65.0349 49.1939V48.335C65.0404 48.239 65.0685 48.1456 65.1168 48.0624C65.1651 47.9793 65.2323 47.9086 65.313 47.8563V47.8563Z" fill="white"/>
<path d="M64.1496 50.7763L67.2208 49.0022C67.3159 48.9477 67.3968 48.9864 67.3968 49.0902C67.3923 49.1486 67.374 49.205 67.3434 49.2549C67.3128 49.3047 67.2708 49.3466 67.2208 49.3771L64.1496 51.1494C64.0528 51.2057 63.9736 51.1653 63.9736 51.0632C63.9779 51.0048 63.9961 50.9482 64.0267 50.8983C64.0573 50.8484 64.0995 50.8066 64.1496 50.7763V50.7763Z" fill="#E0E0E0"/>
<path d="M69.4437 45.47L70.1864 45.0406C70.3396 44.9509 70.4645 45.023 70.4645 45.199V46.0597C70.459 46.1557 70.431 46.2491 70.3827 46.3322C70.3344 46.4154 70.2671 46.486 70.1864 46.5384L69.4437 46.9678C69.2906 47.0558 69.1656 46.9837 69.1656 46.8077V45.9523C69.1706 45.8557 69.1984 45.7616 69.2467 45.6778C69.2951 45.5939 69.3626 45.5228 69.4437 45.47V45.47Z" fill="white"/>
<path d="M68.2802 48.3878L71.3514 46.6155C71.4465 46.561 71.5274 46.5997 71.5274 46.7035C71.5229 46.7618 71.5046 46.8183 71.474 46.8681C71.4434 46.918 71.4014 46.9599 71.3514 46.9904L68.2802 48.768C68.1834 48.8243 68.1042 48.7838 68.1042 48.6817C68.108 48.6223 68.1259 48.5645 68.1565 48.5134C68.1871 48.4623 68.2296 48.4192 68.2802 48.3878V48.3878Z" fill="#E0E0E0"/>
<path d="M73.5743 43.0835L74.3171 42.6523C74.4702 42.5643 74.5951 42.6364 74.5951 42.8124V43.6643C74.5899 43.7606 74.562 43.8543 74.5137 43.9378C74.4653 44.0213 74.398 44.0922 74.3171 44.1447L73.5743 44.5742C73.4212 44.6622 73.2963 44.59 73.2963 44.414V43.5552C73.3028 43.4603 73.3314 43.3684 73.3797 43.2865C73.4279 43.2046 73.4946 43.1351 73.5743 43.0835V43.0835Z" fill="white"/>
<path d="M72.4093 46.0011L75.4805 44.2288C75.5773 44.1742 75.6565 44.213 75.6565 44.3168C75.6522 44.3752 75.634 44.4317 75.6034 44.4817C75.5728 44.5316 75.5306 44.5734 75.4805 44.6037L72.4093 46.376C72.3142 46.4323 72.2333 46.3918 72.2333 46.288C72.2382 46.2298 72.2567 46.1735 72.2873 46.1237C72.3178 46.0739 72.3596 46.0319 72.4093 46.0011V46.0011Z" fill="#E0E0E0"/>
<path d="M64.1496 51.5065L67.2208 49.7342C67.3159 49.6796 67.3968 49.7183 67.3968 49.8222C67.3919 49.8804 67.3734 49.9367 67.3428 49.9865C67.3123 50.0363 67.2705 50.0782 67.2208 50.109L64.1496 51.8813C64.0528 51.9359 63.9736 51.8972 63.9736 51.7933C63.9782 51.735 63.9965 51.6786 64.0271 51.6287C64.0577 51.5788 64.0997 51.5369 64.1496 51.5065V51.5065Z" fill="#E0E0E0"/>
<path d="M68.2802 49.1201L71.3514 47.3478C71.4465 47.2915 71.5274 47.3319 71.5274 47.434C71.5228 47.4926 71.5044 47.5492 71.4738 47.5993C71.4433 47.6494 71.4013 47.6917 71.3514 47.7227L68.2802 49.495C68.1834 49.5495 68.1042 49.5108 68.1042 49.407C68.1085 49.3486 68.1267 49.292 68.1573 49.2421C68.188 49.1922 68.2301 49.1503 68.2802 49.1201V49.1201Z" fill="#E0E0E0"/>
<path d="M72.4093 46.7334L75.4805 44.9611C75.5773 44.9047 75.6565 44.9452 75.6565 45.0473C75.6519 45.1059 75.6336 45.1625 75.603 45.2127C75.5725 45.2629 75.5305 45.3051 75.4805 45.3359L72.4093 47.1083C72.3142 47.1628 72.2333 47.1241 72.2333 47.0203C72.2378 46.9619 72.2561 46.9055 72.2867 46.8556C72.3173 46.8058 72.3593 46.7639 72.4093 46.7334V46.7334Z" fill="#E0E0E0"/>
<path d="M64.1496 52.2387L67.2208 50.4646C67.3159 50.4101 67.3968 50.4488 67.3968 50.5526C67.3923 50.611 67.374 50.6674 67.3434 50.7173C67.3128 50.7671 67.2708 50.809 67.2208 50.8395L64.1496 52.6136C64.0528 52.6682 63.9736 52.6294 63.9736 52.5256C63.9779 52.4672 63.9961 52.4106 64.0267 52.3607C64.0573 52.3108 64.0995 52.269 64.1496 52.2387V52.2387Z" fill="#E0E0E0"/>
<path d="M68.2802 49.8525L71.3514 48.0784C71.4465 48.0238 71.5274 48.0626 71.5274 48.1664C71.5229 48.2247 71.5046 48.2812 71.474 48.331C71.4434 48.3809 71.4014 48.4228 71.3514 48.4533L68.2802 50.2274C68.1834 50.2819 68.1042 50.2432 68.1042 50.1394C68.1085 50.081 68.1267 50.0244 68.1573 49.9745C68.188 49.9246 68.2301 49.8828 68.2802 49.8525V49.8525Z" fill="#E0E0E0"/>
<path d="M72.4093 47.4658L75.4805 45.6917C75.5773 45.6371 75.6565 45.6758 75.6565 45.7797C75.6522 45.8381 75.634 45.8946 75.6034 45.9445C75.5728 45.9945 75.5306 46.0363 75.4805 46.0666L72.4093 47.8389C72.3142 47.8952 72.2333 47.8565 72.2333 47.7526C72.2378 47.6943 72.2561 47.6379 72.2867 47.588C72.3173 47.5381 72.3593 47.4962 72.4093 47.4658Z" fill="#E0E0E0"/>
<path d="M65.313 54.0075L66.0557 53.5781C66.2088 53.4901 66.3338 53.5622 66.3338 53.7382V54.5971C66.3283 54.6931 66.3002 54.7865 66.2519 54.8697C66.2036 54.9528 66.1364 55.0235 66.0557 55.0758L65.313 55.5053C65.1599 55.595 65.0349 55.5229 65.0349 55.3469V54.4862C65.0404 54.3902 65.0685 54.2968 65.1168 54.2136C65.1651 54.1305 65.2323 54.0598 65.313 54.0075Z" fill="white"/>
<path d="M64.1496 56.9277L67.2208 55.1554C67.3159 55.0991 67.3968 55.1396 67.3968 55.2416C67.3923 55.3 67.374 55.3564 67.3434 55.4063C67.3128 55.4561 67.2708 55.498 67.2208 55.5285L64.1496 57.3026C64.0528 57.3571 63.9736 57.3184 63.9736 57.2146C63.9779 57.1562 63.9961 57.0996 64.0267 57.0497C64.0573 56.9998 64.0995 56.958 64.1496 56.9277V56.9277Z" fill="#E0E0E0"/>
<path d="M69.4437 51.6211L70.1864 51.1916C70.3396 51.1037 70.4645 51.1741 70.4645 51.3518V52.2107C70.459 52.3067 70.431 52.4001 70.3827 52.4833C70.3344 52.5664 70.2671 52.6371 70.1864 52.6894L69.4437 53.1188C69.2906 53.2086 69.1656 53.1364 69.1656 52.9604V52.0998C69.1712 52.0038 69.1992 51.9104 69.2475 51.8272C69.2958 51.7441 69.363 51.6734 69.4437 51.6211V51.6211Z" fill="white"/>
<path d="M68.2802 54.5408L71.3514 52.7685C71.4465 52.7122 71.5274 52.7509 71.5274 52.8548C71.5229 52.9131 71.5046 52.9695 71.474 53.0194C71.4434 53.0693 71.4014 53.1112 71.3514 53.1417L68.2802 54.9157C68.1834 54.9703 68.1042 54.9316 68.1042 54.8277C68.1085 54.7693 68.1267 54.7128 68.1573 54.6629C68.188 54.6129 68.2301 54.5711 68.2802 54.5408V54.5408Z" fill="#E0E0E0"/>
<path d="M73.5743 49.2344L74.3171 48.8049C74.4702 48.7169 74.5951 48.7873 74.5951 48.9651V49.824C74.5896 49.92 74.5616 50.0134 74.5133 50.0966C74.465 50.1797 74.3977 50.2503 74.3171 50.3027L73.5743 50.7321C73.4212 50.8201 73.2963 50.7497 73.2963 50.5737V49.7131C73.3018 49.6171 73.3298 49.5237 73.3781 49.4405C73.4264 49.3574 73.4937 49.2867 73.5743 49.2344V49.2344Z" fill="white"/>
<path d="M72.4093 52.1542L75.4805 50.3802C75.5773 50.3256 75.6565 50.3643 75.6565 50.4682C75.6522 50.5266 75.634 50.5831 75.6034 50.633C75.5728 50.6829 75.5306 50.7248 75.4805 50.755L72.4093 52.5291C72.3142 52.5837 72.2333 52.5449 72.2333 52.4411C72.2378 52.3828 72.2561 52.3263 72.2867 52.2765C72.3173 52.2266 72.3593 52.1847 72.4093 52.1542Z" fill="#E0E0E0"/>
<path d="M64.1496 57.6596L67.2208 55.8855C67.3159 55.831 67.3968 55.8697 67.3968 55.9735C67.3923 56.0319 67.374 56.0883 67.3434 56.1382C67.3128 56.188 67.2708 56.2299 67.2208 56.2604L64.1496 58.0327C64.0528 58.0891 63.9736 58.0486 63.9736 57.9465C63.9779 57.8881 63.9961 57.8315 64.0267 57.7816C64.0573 57.7317 64.0995 57.6899 64.1496 57.6596V57.6596Z" fill="#E0E0E0"/>
<path d="M68.2802 55.2799L71.3514 53.5076C71.4465 53.453 71.5274 53.4918 71.5274 53.5956C71.5229 53.6539 71.5046 53.7104 71.474 53.7602C71.4434 53.8101 71.4014 53.852 71.3514 53.8825L68.2802 55.6548C68.1834 55.7111 68.1042 55.6706 68.1042 55.5686C68.1088 55.51 68.1271 55.4533 68.1577 55.4032C68.1883 55.353 68.2303 55.3108 68.2802 55.2799V55.2799Z" fill="#E0E0E0"/>
<path d="M72.4093 52.8849L75.4805 51.1126C75.5773 51.058 75.6565 51.0967 75.6565 51.2006C75.6522 51.259 75.634 51.3155 75.6034 51.3654C75.5728 51.4154 75.5306 51.4572 75.4805 51.4875L72.4093 53.2598C72.3142 53.3161 72.2333 53.2756 72.2333 53.1735C72.238 53.115 72.2563 53.0584 72.2869 53.0083C72.3175 52.9581 72.3594 52.9159 72.4093 52.8849V52.8849Z" fill="#E0E0E0"/>
<path d="M64.1496 58.3903L67.2208 56.618C67.3159 56.5634 67.3968 56.6021 67.3968 56.706C67.3919 56.7642 67.3734 56.8204 67.3428 56.8703C67.3123 56.9201 67.2705 56.962 67.2208 56.9928L64.1496 58.7652C64.0528 58.8197 63.9736 58.781 63.9736 58.6772C63.9784 58.6189 63.9969 58.5626 64.0274 58.5128C64.058 58.4629 64.0999 58.421 64.1496 58.3903V58.3903Z" fill="#E0E0E0"/>
<path d="M68.2802 56.0033L71.3514 54.2239C71.4465 54.1693 71.5274 54.2081 71.5274 54.3119C71.5225 54.3701 71.504 54.4264 71.4735 54.4762C71.4429 54.526 71.4011 54.568 71.3514 54.5988L68.2802 56.3711C68.1834 56.4257 68.1042 56.3869 68.1042 56.2831C68.1096 56.2259 68.1283 56.1708 68.1589 56.1222C68.1894 56.0736 68.231 56.0328 68.2802 56.0033V56.0033Z" fill="#E0E0E0"/>
<path d="M72.4093 53.6172L75.4805 51.8449C75.5773 51.7885 75.6565 51.829 75.6565 51.9311C75.6519 51.9897 75.6336 52.0463 75.603 52.0965C75.5725 52.1466 75.5305 52.1889 75.4805 52.2197L72.4093 53.9921C72.3142 54.0466 72.2333 54.0079 72.2333 53.9041C72.2378 53.8457 72.2561 53.7893 72.2867 53.7394C72.3173 53.6896 72.3593 53.6477 72.4093 53.6172Z" fill="#E0E0E0"/>
<path d="M57.1888 27.0091C58.9858 25.9725 60.4413 26.812 60.4413 28.887C60.4413 30.962 58.9858 33.4806 57.1888 34.519C55.3919 35.5574 53.9381 34.7161 53.9381 32.6429C53.9381 30.5696 55.3936 28.0457 57.1888 27.0091Z" fill="#FAFAFA"/>
<path d="M57.1888 28.641C57.7714 28.3048 58.2448 28.5776 58.2448 29.25C58.2248 29.616 58.1187 29.9723 57.9353 30.2897C57.7518 30.6071 57.496 30.8768 57.1888 31.0768C56.6063 31.413 56.1328 31.1402 56.1328 30.4679C56.1527 30.1018 56.2587 29.7455 56.4422 29.4281C56.6257 29.1106 56.8815 28.841 57.1888 28.641Z" fill="#E0E0E0"/>
<path d="M59.248 32.2244C59.248 31.1191 58.4718 30.6721 57.5144 31.2247L56.916 31.5767C55.9585 32.1293 55.1824 33.474 55.1824 34.5793V34.8767C55.7368 35.0527 56.432 34.9594 57.1905 34.5247C58.023 34.0106 58.7268 33.3129 59.248 32.4849V32.2244Z" fill="#E0E0E0"/>
<path d="M55.2652 39.8589L59.7638 37.2611C59.9538 37.1502 60.1158 37.2294 60.1158 37.4371C60.1067 37.5538 60.0701 37.6666 60.0089 37.7664C59.9477 37.8661 59.8637 37.9499 59.7638 38.0109L55.2652 40.6086C55.0734 40.7195 54.9132 40.6403 54.9132 40.4326C54.922 40.3159 54.9585 40.2029 55.0197 40.1031C55.081 40.0033 55.1651 39.9196 55.2652 39.8589V39.8589Z" fill="#F5F5F5"/>
<path d="M40.9563 77.576L46.6745 52.8093L77.9797 34.7358L72.2614 59.5008L40.9563 77.576Z" fill="#49BEB7"/>
<path opacity="0.1" d="M56.6837 68.494V47.0308L77.897 34.8428L72.2615 59.5004L56.6837 68.494Z" fill="black"/>
<path d="M62.0781 71.6112L56.6837 68.4943L66.7298 62.7373L62.0781 71.6112Z" fill="#E0E0E0"/>
<path d="M62.0787 71.6109C61.9825 71.5455 61.9031 71.4584 61.8468 71.3565C61.7906 71.2547 61.7591 71.1411 61.7549 71.0248V32.8663C61.7624 32.7459 61.7982 32.629 61.8593 32.525C61.9205 32.421 62.0053 32.3329 62.1069 32.2679L86.0623 18.4325C86.1624 18.3696 86.2777 18.3353 86.396 18.3331C86.5142 18.331 86.6307 18.3611 86.733 18.4204C86.8354 18.4796 86.9196 18.5656 86.9766 18.6692C87.0336 18.7727 87.0613 18.8899 87.0567 19.008V57.1648C87.0494 57.2853 87.0138 57.4023 86.9526 57.5063C86.8914 57.6104 86.8064 57.6984 86.7047 57.7632L62.7493 71.5986C62.6463 71.653 62.5319 71.6824 62.4155 71.6845C62.299 71.6867 62.1837 71.6615 62.0787 71.6109V71.6109Z" fill="#EBEBEB"/>
<path d="M62.4019 33.5917L72.1347 27.224L71.4853 26.8491L62.0992 32.2682C61.9976 32.3332 61.9128 32.4213 61.8516 32.5253C61.7905 32.6293 61.7547 32.7462 61.7472 32.8666V33.2186L62.4019 33.5917Z" fill="#455A64"/>
<path d="M65.6456 34.7145L61.8545 32.5269C61.7927 32.6297 61.7582 32.7466 61.7542 32.8665V71.0251C61.7499 71.1431 61.7778 71.26 61.835 71.3633C61.8921 71.4666 61.9764 71.5524 62.0787 71.6114C62.1809 71.6704 62.2973 71.7004 62.4154 71.6982C62.5334 71.696 62.6486 71.6616 62.7486 71.5989L65.6456 69.9251V34.7145Z" fill="#263238"/>
<path d="M62.7486 71.5987L86.704 57.7633C86.8058 57.6985 86.8907 57.6104 86.9519 57.5064C87.0131 57.4024 87.0487 57.2854 87.056 57.1649V19.0081C87.056 18.7864 86.9011 18.6984 86.704 18.8075L62.7486 32.6428C62.6466 32.7075 62.5615 32.7955 62.5003 32.8995C62.4391 33.0036 62.4036 33.1207 62.3966 33.2412V71.398C62.4019 71.6198 62.5568 71.7078 62.7486 71.5987Z" fill="#37474F"/>
<path d="M64.3907 42.0551L70.1441 38.7358C70.526 38.5158 70.8358 38.6724 70.8358 39.0878C70.8186 39.3201 70.747 39.5452 70.6269 39.7448C70.5067 39.9444 70.3413 40.1131 70.1441 40.237L64.3907 43.5582C64.0087 43.7782 63.699 43.6215 63.699 43.2062C63.7154 42.9734 63.7866 42.7477 63.9068 42.5477C64.027 42.3477 64.1928 42.1789 64.3907 42.0551V42.0551Z" fill="#E0E0E0"/>
<path d="M63.9771 48.1271L64.7216 47.6977C64.873 47.6097 64.9979 47.6818 64.9979 47.8578V48.7167C64.9925 48.8128 64.9647 48.9063 64.9167 48.9897C64.8687 49.0731 64.8019 49.1442 64.7216 49.1972L63.9771 49.6266C63.824 49.7146 63.7008 49.6425 63.7008 49.4665V48.6076C63.7057 48.5114 63.7333 48.4177 63.7813 48.3342C63.8293 48.2507 63.8964 48.1797 63.9771 48.1271V48.1271Z" fill="#49BEB7"/>
<path d="M65.9924 47.3385L70.4909 44.7408C70.681 44.6317 70.8429 44.7091 70.8429 44.9168C70.8335 45.0333 70.7966 45.146 70.7355 45.2457C70.6743 45.3454 70.5906 45.4293 70.4909 45.4905L65.9924 48.0883C65.8005 48.1974 65.6404 48.12 65.6404 47.9123C65.6497 47.7957 65.6865 47.683 65.7476 47.5833C65.8088 47.4835 65.8927 47.3997 65.9924 47.3385Z" fill="#E0E0E0"/>
<path d="M63.9771 51.1245L64.7216 50.7039C64.873 50.6159 64.9979 50.6863 64.9979 50.864V51.7229C64.9925 51.8187 64.9646 51.912 64.9167 51.9951C64.8687 52.0782 64.8019 52.149 64.7216 52.2016L63.9771 52.6311C63.824 52.7191 63.7008 52.6487 63.7008 52.4727V51.612C63.7045 51.5146 63.7315 51.4194 63.7796 51.3346C63.8276 51.2498 63.8954 51.1777 63.9771 51.1245Z" fill="#49BEB7"/>
<path d="M65.9924 50.3359L70.4909 47.7381C70.681 47.6273 70.8429 47.7065 70.8429 47.9141C70.8337 48.031 70.797 48.1441 70.7359 48.2441C70.6747 48.3441 70.5908 48.4282 70.4909 48.4897L65.9924 51.0857C65.8005 51.1966 65.6404 51.1191 65.6404 50.9097C65.6492 50.7929 65.6857 50.68 65.7469 50.5802C65.8081 50.4804 65.8923 50.3966 65.9924 50.3359V50.3359Z" fill="#E0E0E0"/>
<path d="M63.9771 54.1217L64.7216 53.6957C64.873 53.6077 64.9979 53.6799 64.9979 53.8559V54.7148C64.9927 54.8109 64.965 54.9045 64.917 54.988C64.869 55.0714 64.8021 55.1424 64.7216 55.1952L63.9771 55.6247C63.824 55.7127 63.7008 55.6405 63.7008 55.4645V54.6057C63.705 54.5088 63.7323 54.4144 63.7803 54.3302C63.8284 54.246 63.8959 54.1745 63.9771 54.1217V54.1217Z" fill="#49BEB7"/>
<path d="M65.9924 53.3312L70.4909 50.7335C70.681 50.6243 70.8429 50.7018 70.8429 50.9095C70.8336 51.0261 70.7968 51.1388 70.7357 51.2385C70.6745 51.3382 70.5906 51.4221 70.4909 51.4832L65.9924 54.081C65.8005 54.1919 65.6404 54.1127 65.6404 53.905C65.6497 53.7884 65.6865 53.6757 65.7476 53.5759C65.8088 53.4762 65.8927 53.3924 65.9924 53.3312V53.3312Z" fill="#E0E0E0"/>
<path d="M63.9771 57.1262L64.7216 56.6879C64.873 56.5999 64.9979 56.6721 64.9979 56.8481V57.7087C64.9925 57.8045 64.9646 57.8978 64.9167 57.9809C64.8687 58.064 64.8019 58.1348 64.7216 58.1874L63.9771 58.6239C63.824 58.7119 63.7008 58.6398 63.7008 58.4638V57.6049C63.7058 57.5089 63.7335 57.4156 63.7815 57.3324C63.8295 57.2492 63.8966 57.1785 63.9771 57.1262Z" fill="#49BEB7"/>
<path d="M65.9924 56.336L70.4909 53.74C70.681 53.6291 70.8429 53.7065 70.8429 53.916C70.8336 54.0326 70.7968 54.1453 70.7357 54.245C70.6745 54.3447 70.5906 54.4286 70.4909 54.4897L65.9924 57.0875C65.8005 57.1984 65.6404 57.1192 65.6404 56.9115C65.6495 56.7946 65.6861 56.6815 65.7473 56.5815C65.8084 56.4814 65.8924 56.3973 65.9924 56.336Z" fill="#E0E0E0"/>
<path d="M64.0457 63.3901L67.2472 61.5421C67.4373 61.4329 67.5992 61.5104 67.5992 61.7181C67.5897 61.8346 67.5529 61.9473 67.4917 62.047C67.4306 62.1467 67.3468 62.2305 67.2472 62.2918L64.0457 64.1398C63.8556 64.2507 63.6937 64.1715 63.6937 63.9638C63.7032 63.8473 63.74 63.7346 63.8012 63.6349C63.8623 63.5352 63.9461 63.4513 64.0457 63.3901V63.3901Z" fill="#E0E0E0"/>
<path d="M64.0457 64.8895L70.4908 61.1671C70.6809 61.0579 70.8428 61.1354 70.8428 61.3431C70.8334 61.4596 70.7965 61.5723 70.7354 61.672C70.6742 61.7717 70.5904 61.8555 70.4908 61.9168L64.0457 65.6375C63.8556 65.7483 63.6937 65.6691 63.6937 65.4615C63.7031 65.3451 63.7398 65.2326 63.801 65.1332C63.8622 65.0338 63.9461 64.9502 64.0457 64.8895V64.8895Z" fill="#FAFAFA"/>
<path d="M64.0457 64.8896L68.5443 62.2919C68.7361 62.181 68.8963 62.2602 68.8963 62.4679C68.8872 62.5848 68.8506 62.6979 68.7894 62.7979C68.7282 62.8979 68.6442 62.982 68.5443 63.0434L64.0457 65.6394C63.8556 65.7503 63.6937 65.6711 63.6937 65.4634C63.7028 65.3467 63.7394 65.2339 63.8006 65.1341C63.8618 65.0344 63.9458 64.9506 64.0457 64.8896V64.8896Z" fill="#49BEB7"/>
<path d="M64.0457 66.3855L67.2472 64.5375C67.4373 64.4266 67.5992 64.5058 67.5992 64.7135C67.59 64.8303 67.5533 64.9434 67.4921 65.0434C67.4309 65.1434 67.347 65.2275 67.2472 65.289L64.0457 67.137C63.8556 67.2461 63.6937 67.1687 63.6937 66.961C63.7029 66.8441 63.7396 66.7311 63.8008 66.6311C63.862 66.5311 63.9459 66.4469 64.0457 66.3855V66.3855Z" fill="#E0E0E0"/>
<path d="M64.0457 60.3962L67.2472 58.5482C67.4373 58.4373 67.5992 58.5165 67.5992 58.7242C67.5901 58.8409 67.5535 58.9537 67.4923 59.0535C67.4311 59.1532 67.3471 59.237 67.2472 59.298L64.0457 61.146C63.8556 61.2569 63.6937 61.1794 63.6937 60.97C63.7028 60.8533 63.7394 60.7405 63.8006 60.6407C63.8618 60.541 63.9458 60.4572 64.0457 60.3962V60.3962Z" fill="#E0E0E0"/>
<path d="M64.0457 61.8938L70.4908 58.1732C70.6809 58.0623 70.8428 58.1415 70.8428 58.3492C70.8338 58.4659 70.7971 58.5787 70.7359 58.6785C70.6747 58.7782 70.5907 58.862 70.4908 58.923L64.0457 62.6454C63.8556 62.7545 63.6937 62.6771 63.6937 62.4694C63.7029 62.3525 63.7396 62.2395 63.8008 62.1395C63.862 62.0394 63.9459 61.9553 64.0457 61.8938V61.8938Z" fill="#FAFAFA"/>
<path d="M64.0457 61.8938L66.3337 60.5738C66.5238 60.4647 66.6857 60.5421 66.6857 60.7498C66.6763 60.8664 66.6394 60.979 66.5783 61.0787C66.5171 61.1784 66.4334 61.2623 66.3337 61.3236L64.0457 62.6436C63.8556 62.7527 63.6937 62.6752 63.6937 62.4676C63.7032 62.351 63.74 62.2383 63.8012 62.1386C63.8623 62.0389 63.9461 61.9551 64.0457 61.8938V61.8938Z" fill="#49BEB7"/>
<path d="M64.0457 67.8831L70.4908 64.1625C70.6809 64.0516 70.8428 64.1308 70.8428 64.3385C70.8334 64.455 70.7965 64.5677 70.7354 64.6674C70.6742 64.7671 70.5904 64.851 70.4908 64.9122L64.0457 68.6329C63.8556 68.7437 63.6937 68.6645 63.6937 68.4569C63.7032 68.3403 63.74 68.2276 63.8012 68.1279C63.8623 68.0283 63.9461 67.9444 64.0457 67.8831V67.8831Z" fill="#FAFAFA"/>
<path d="M64.0457 67.8829L69.8414 64.5389C70.0333 64.428 70.1934 64.5072 70.1934 64.7149C70.1843 64.8318 70.1477 64.9449 70.0865 65.045C70.0254 65.145 69.9414 65.2291 69.8414 65.2905L64.0457 68.6345C63.8556 68.7453 63.6937 68.6661 63.6937 68.4585C63.7029 68.3416 63.7396 68.2285 63.8008 68.1285C63.862 68.0285 63.9459 67.9444 64.0457 67.8829V67.8829Z" fill="#49BEB7"/>
<path d="M86.704 18.8075L72.1294 27.2238V66.1797L86.704 57.7633C86.8057 57.6985 86.8907 57.6104 86.9519 57.5064C87.0131 57.4024 87.0487 57.2854 87.056 57.1649V19.0081C87.056 18.7864 86.9011 18.6984 86.704 18.8075Z" fill="#FAFAFA"/>
<path d="M72.1347 28.7214V31.7187L70.8358 33.2164H72.1329L72.1347 36.2137L85.7589 28.3465V20.856L72.1347 28.7214Z" fill="#49BEB7"/>
<path d="M73.9159 28.8253L79.4352 25.6397C79.7028 25.4848 79.9192 25.6098 79.9192 25.9195C79.912 26.0893 79.8642 26.2548 79.7801 26.4024C79.6959 26.5499 79.5777 26.6752 79.4352 26.7679L73.9159 29.9552C73.6484 30.1101 73.4319 29.9851 73.4319 29.6754C73.4392 29.5054 73.4869 29.3396 73.5711 29.1918C73.6552 29.044 73.7734 28.9183 73.9159 28.8253V28.8253Z" fill="#FAFAFA"/>
<path d="M73.6043 31.2436L84.2875 25.0836C84.3843 25.0273 84.4635 25.0678 84.4635 25.1699C84.4591 25.2285 84.4409 25.2852 84.4103 25.3354C84.3797 25.3856 84.3376 25.4278 84.2875 25.4585L73.6043 31.6185C73.5093 31.6731 73.4283 31.6343 73.4283 31.5305C73.4333 31.4723 73.4518 31.416 73.4823 31.3662C73.5129 31.3164 73.5547 31.2744 73.6043 31.2436V31.2436Z" fill="#FAFAFA"/>
<path d="M73.6043 32.3683L84.2875 26.2083C84.3843 26.1537 84.4635 26.1924 84.4635 26.2963C84.4594 26.3547 84.4413 26.4113 84.4107 26.4613C84.38 26.5112 84.3378 26.553 84.2875 26.5832L73.6043 32.7432C73.5093 32.7977 73.4283 32.759 73.4283 32.6552C73.4329 32.5968 73.4512 32.5404 73.4818 32.4905C73.5124 32.4407 73.5544 32.3988 73.6043 32.3683V32.3683Z" fill="#FAFAFA"/>
<path d="M73.6043 33.4912L84.2875 27.3312C84.3843 27.2749 84.4635 27.3153 84.4635 27.4174C84.4594 27.4759 84.4413 27.5325 84.4107 27.5824C84.38 27.6323 84.3378 27.6742 84.2875 27.7043L73.6043 33.8731C73.5093 33.9277 73.4283 33.8889 73.4283 33.7851C73.4322 33.7256 73.4502 33.668 73.4808 33.6169C73.5114 33.5657 73.5538 33.5227 73.6043 33.4912Z" fill="#FAFAFA"/>
<path d="M74.0074 36.6343L74.7519 36.2031C74.9032 36.1151 75.0282 36.1872 75.0282 36.3632V37.2221C75.023 37.3182 74.9953 37.4118 74.9473 37.4953C74.8993 37.5787 74.8324 37.6497 74.7519 37.7026L74.0074 38.132C73.8543 38.22 73.7311 38.1479 73.7311 37.9719V37.113C73.7361 37.017 73.7638 36.9237 73.8118 36.8405C73.8598 36.7573 73.9268 36.6866 74.0074 36.6343V36.6343Z" fill="#49BEB7"/>
<path d="M76.0225 35.8444L80.5211 33.2466C80.7129 33.1375 80.8731 33.215 80.8731 33.4226C80.864 33.5393 80.8274 33.6522 80.7662 33.7519C80.705 33.8517 80.621 33.9355 80.5211 33.9964L76.0225 36.5942C75.8307 36.7033 75.6705 36.6258 75.6705 36.4182C75.6799 36.3016 75.7166 36.1888 75.7778 36.0891C75.839 35.9894 75.9228 35.9056 76.0225 35.8444V35.8444Z" fill="#455A64"/>
<path d="M73.9035 39.3169L85.2362 32.7732C85.3312 32.7187 85.4122 32.7574 85.4122 32.8612C85.4076 32.9196 85.3893 32.976 85.3587 33.0259C85.3281 33.0757 85.2861 33.1176 85.2362 33.1481L73.9035 39.6918C73.8085 39.7464 73.7275 39.7076 73.7275 39.6038C73.7325 39.5456 73.751 39.4893 73.7815 39.4395C73.8121 39.3897 73.8539 39.3477 73.9035 39.3169Z" fill="#455A64"/>
<path d="M73.9035 40.4411L85.2362 33.8975C85.3312 33.8411 85.4122 33.8799 85.4122 33.9837C85.4076 34.042 85.3893 34.0985 85.3587 34.1483C85.3281 34.1982 85.2861 34.2401 85.2362 34.2706L73.9035 40.8142C73.8085 40.8706 73.7275 40.8319 73.7275 40.728C73.7321 40.6697 73.7504 40.6132 73.781 40.5634C73.8116 40.5135 73.8536 40.4716 73.9035 40.4411V40.4411Z" fill="#455A64"/>
<path d="M73.9035 41.5645L85.2362 35.0208C85.3312 34.9662 85.4122 35.0049 85.4122 35.1088C85.4072 35.167 85.3887 35.2233 85.3582 35.2731C85.3276 35.3229 85.2858 35.3649 85.2362 35.3957L73.9035 41.9393C73.8085 41.9939 73.7275 41.9552 73.7275 41.8513C73.7321 41.793 73.7504 41.7366 73.781 41.6867C73.8116 41.6368 73.8536 41.5949 73.9035 41.5645V41.5645Z" fill="#455A64"/>
<path d="M73.9035 42.6904L85.2362 36.1468C85.3312 36.0922 85.4122 36.1309 85.4122 36.2348C85.4076 36.2931 85.3893 36.3495 85.3587 36.3994C85.3281 36.4493 85.2861 36.4912 85.2362 36.5216L73.9035 43.0653C73.8085 43.1216 73.7275 43.0812 73.7275 42.9791C73.7322 42.9206 73.7506 42.8639 73.7812 42.8138C73.8117 42.7637 73.8536 42.7214 73.9035 42.6904V42.6904Z" fill="#455A64"/>
<path d="M74.0074 44.8746L74.7519 44.4451C74.9032 44.3571 75.0282 44.4275 75.0282 44.6035V45.4642C75.0227 45.56 74.9949 45.6532 74.9469 45.7364C74.8989 45.8195 74.8321 45.8902 74.7519 45.9429L74.0074 46.3723C73.8543 46.4603 73.7311 46.3899 73.7311 46.2122V45.3533C73.7361 45.2573 73.7638 45.164 73.8118 45.0808C73.8598 44.9976 73.9268 44.9269 74.0074 44.8746V44.8746Z" fill="#49BEB7"/>
<path d="M76.0225 44.0846L80.5211 41.4886C80.7129 41.3778 80.8731 41.457 80.8731 41.6646C80.8644 41.7814 80.828 41.8944 80.7668 41.9942C80.7055 42.0941 80.6213 42.1778 80.5211 42.2384L76.0225 44.8361C75.8307 44.947 75.6705 44.8678 75.6705 44.6601C75.6796 44.5432 75.7162 44.4301 75.7774 44.3301C75.8386 44.2301 75.9226 44.146 76.0225 44.0846V44.0846Z" fill="#455A64"/>
<path d="M73.9035 47.5571L85.2362 41.0135C85.3312 40.9589 85.4122 40.9976 85.4122 41.1015C85.4076 41.1598 85.3893 41.2162 85.3587 41.2661C85.3281 41.316 85.2861 41.3579 85.2362 41.3883L73.9035 47.932C73.8085 47.9883 73.7275 47.9479 73.7275 47.8458C73.7322 47.7872 73.7506 47.7306 73.7812 47.6805C73.8117 47.6304 73.8536 47.5881 73.9035 47.5571Z" fill="#455A64"/>
<path d="M73.9035 48.6815L85.2362 42.1378C85.3312 42.0815 85.4122 42.122 85.4122 42.2241C85.4075 42.2826 85.3891 42.3392 85.3586 42.3893C85.328 42.4395 85.2861 42.4817 85.2362 42.5127L73.9035 49.0564C73.8085 49.1109 73.7275 49.0722 73.7275 48.9684C73.7321 48.91 73.7504 48.8536 73.781 48.8037C73.8116 48.7539 73.8536 48.712 73.9035 48.6815V48.6815Z" fill="#455A64"/>
<path d="M73.9035 49.8047L85.2362 43.261C85.3312 43.2065 85.4122 43.2452 85.4122 43.349C85.4076 43.4074 85.3893 43.4638 85.3587 43.5137C85.3281 43.5635 85.2861 43.6054 85.2362 43.6359L73.9035 50.1761C73.8085 50.2324 73.7275 50.1919 73.7275 50.0881C73.733 50.0305 73.7518 49.9749 73.7823 49.9257C73.8128 49.8766 73.8543 49.8352 73.9035 49.8047Z" fill="#455A64"/>
<path d="M73.9035 50.9328L85.2362 44.3892C85.3312 44.3328 85.4122 44.3716 85.4122 44.4754C85.4076 44.5337 85.3893 44.5902 85.3587 44.64C85.3281 44.6899 85.2861 44.7318 85.2362 44.7623L73.9035 51.3059C73.8085 51.3623 73.7275 51.3235 73.7275 51.2197C73.7321 51.1614 73.7504 51.1049 73.781 51.0551C73.8116 51.0052 73.8536 50.9633 73.9035 50.9328V50.9328Z" fill="#455A64"/>
<path d="M75.0668 52.5749L75.8113 52.1454C75.9644 52.0574 76.0876 52.1296 76.0876 52.3056V53.168C76.0826 53.2639 76.055 53.3573 76.0069 53.4405C75.9589 53.5237 75.8919 53.5944 75.8113 53.6467L75.0668 54.0779C74.9137 54.1659 74.7905 54.0938 74.7905 53.9178V53.0571C74.795 52.9606 74.8224 52.8665 74.8705 52.7826C74.9185 52.6988 74.9858 52.6276 75.0668 52.5749Z" fill="#49BEB7"/>
<path d="M73.9035 55.4946L76.9747 53.7223C77.0698 53.666 77.1507 53.7065 77.1507 53.8085C77.1462 53.8669 77.1279 53.9233 77.0973 53.9732C77.0667 54.023 77.0247 54.0649 76.9747 54.0954L73.9035 55.8695C73.8085 55.9241 73.7275 55.8853 73.7275 55.7815C73.7321 55.7232 73.7504 55.6667 73.781 55.6169C73.8116 55.567 73.8536 55.5251 73.9035 55.4946Z" fill="#455A64"/>
<path d="M79.1976 50.188L79.9421 49.7585C80.0952 49.6705 80.2184 49.7409 80.2184 49.9187V50.7776C80.2134 50.8735 80.1857 50.9669 80.1377 51.0501C80.0896 51.1333 80.0226 51.204 79.9421 51.2563L79.1976 51.6857C79.0445 51.7755 78.9213 51.7033 78.9213 51.5273V50.6667C78.9263 50.5708 78.954 50.4774 79.002 50.3942C79.05 50.311 79.117 50.2403 79.1976 50.188V50.188Z" fill="#49BEB7"/>
<path d="M78.0343 53.1079L81.1055 51.3356C81.2005 51.2793 81.2815 51.3197 81.2815 51.4218C81.2769 51.4802 81.2586 51.5366 81.228 51.5865C81.1974 51.6363 81.1554 51.6782 81.1055 51.7087L78.0343 53.4828C77.9392 53.5373 77.8583 53.4986 77.8583 53.3948C77.8628 53.3365 77.8811 53.28 77.9117 53.2302C77.9423 53.1803 77.9843 53.1384 78.0343 53.1079Z" fill="#455A64"/>
<path d="M83.3283 47.8018L84.0728 47.3723C84.2259 47.2843 84.3491 47.3547 84.3491 47.5325V48.3914C84.3441 48.4873 84.3164 48.5807 84.2684 48.6639C84.2204 48.7471 84.1534 48.8177 84.0728 48.8701L83.3283 49.296C83.1752 49.384 83.052 49.3136 83.052 49.1376V48.277C83.0576 48.1816 83.0855 48.0889 83.1335 48.0064C83.1815 47.9239 83.2482 47.8537 83.3283 47.8018V47.8018Z" fill="#49BEB7"/>
<path d="M82.1649 50.7214L85.2361 48.9438C85.3311 48.8875 85.4121 48.9262 85.4121 49.0301C85.4076 49.0884 85.3892 49.1448 85.3586 49.1947C85.328 49.2446 85.286 49.2865 85.2361 49.317L82.1649 51.091C82.0699 51.1456 81.9889 51.1069 81.9889 51.003C81.9942 50.9456 82.0129 50.8903 82.0435 50.8414C82.074 50.7925 82.1156 50.7514 82.1649 50.7214V50.7214Z" fill="#455A64"/>
<path d="M73.9035 56.227L76.9747 54.4529C77.0698 54.3984 77.1507 54.4371 77.1507 54.5409C77.1462 54.5992 77.1279 54.6557 77.0973 54.7056C77.0667 54.7554 77.0247 54.7973 76.9747 54.8278L73.9035 56.6001C73.8085 56.6564 73.7275 56.6177 73.7275 56.5139C73.7321 56.4556 73.7504 56.3991 73.781 56.3492C73.8116 56.2994 73.8536 56.2575 73.9035 56.227Z" fill="#455A64"/>
<path d="M78.0343 53.8403L81.1055 52.0662C81.2005 52.0116 81.2815 52.0504 81.2815 52.1542C81.2769 52.2125 81.2586 52.269 81.228 52.3188C81.1974 52.3687 81.1554 52.4106 81.1055 52.4411L78.0343 54.2134C77.9392 54.2697 77.8583 54.2292 77.8583 54.1271C77.8628 54.0688 77.8811 54.0124 77.9117 53.9625C77.9423 53.9126 77.9843 53.8707 78.0343 53.8403Z" fill="#455A64"/>
<path d="M82.1649 51.4518L85.2361 49.6795C85.3311 49.6249 85.4121 49.6636 85.4121 49.7675C85.4076 49.8258 85.3892 49.8822 85.3586 49.9321C85.328 49.982 85.286 50.0239 85.2361 50.0544L82.1649 51.8267C82.0699 51.883 81.9889 51.8425 81.9889 51.7404C81.9936 51.6819 82.0119 51.6253 82.0425 51.5752C82.0731 51.525 82.115 51.4828 82.1649 51.4518V51.4518Z" fill="#455A64"/>
<path d="M73.9035 56.9572L76.9747 55.1848C77.0698 55.1303 77.1507 55.169 77.1507 55.2728C77.1458 55.3311 77.1273 55.3873 77.0967 55.4371C77.0662 55.487 77.0244 55.5289 76.9747 55.5597L73.9035 57.332C73.8085 57.3866 73.7275 57.3479 73.7275 57.244C73.7325 57.1858 73.751 57.1295 73.7815 57.0797C73.8121 57.0299 73.8539 56.988 73.9035 56.9572V56.9572Z" fill="#455A64"/>
<path d="M78.0343 54.5758L81.1055 52.8035C81.2005 52.7489 81.2815 52.7877 81.2815 52.8915C81.2765 52.9497 81.258 53.006 81.2275 53.0558C81.1969 53.1056 81.1551 53.1476 81.1055 53.1784L78.0343 54.9454C77.9392 55 77.8583 54.9612 77.8583 54.8574C77.8639 54.8001 77.8827 54.7448 77.9132 54.6959C77.9438 54.6471 77.9852 54.606 78.0343 54.5758V54.5758Z" fill="#455A64"/>
<path d="M82.1649 52.1841L85.2361 50.4117C85.3311 50.3554 85.4121 50.3959 85.4121 50.498C85.4074 50.5565 85.389 50.6131 85.3585 50.6633C85.3279 50.7134 85.286 50.7557 85.2361 50.7866L82.1649 52.5589C82.0699 52.6135 81.9889 52.5748 81.9889 52.4709C81.9934 52.4126 82.0117 52.3562 82.0423 52.3063C82.0729 52.2564 82.1149 52.2145 82.1649 52.1841Z" fill="#455A64"/>
<path d="M75.0668 58.728L75.8113 58.2968C75.9644 58.2088 76.0876 58.281 76.0876 58.457V59.3176C76.0826 59.4135 76.055 59.5069 76.0069 59.5901C75.9589 59.6733 75.8919 59.744 75.8113 59.7963L75.0668 60.2257C74.9137 60.3137 74.7905 60.2416 74.7905 60.0656V59.2067C74.7956 59.1108 74.8232 59.0174 74.8712 58.9342C74.9193 58.851 74.9863 58.7803 75.0668 58.728Z" fill="#49BEB7"/>
<path d="M73.9035 61.6456L76.9747 59.8733C77.0698 59.8188 77.1507 59.8575 77.1507 59.9613C77.1462 60.0197 77.1279 60.0761 77.0973 60.126C77.0667 60.1758 77.0247 60.2177 76.9747 60.2482L73.9035 62.0205C73.8085 62.0768 73.7275 62.0363 73.7275 61.9343C73.7322 61.8757 73.7506 61.8191 73.7812 61.769C73.8117 61.7188 73.8536 61.6766 73.9035 61.6456Z" fill="#455A64"/>
<path d="M79.1976 56.3359L79.9421 55.9047C80.0952 55.8167 80.2184 55.8889 80.2184 56.0649V56.9238C80.2135 57.02 80.1859 57.1136 80.1379 57.1971C80.0898 57.2807 80.0228 57.3516 79.9421 57.4042L79.1976 57.8337C79.0445 57.9217 78.9213 57.8495 78.9213 57.6735V56.8146C78.9263 56.7187 78.954 56.6253 79.002 56.5421C79.05 56.4589 79.117 56.3883 79.1976 56.3359Z" fill="#49BEB7"/>
<path d="M78.0343 59.2589L81.1055 57.4866C81.2005 57.432 81.2815 57.4708 81.2815 57.5746C81.2767 57.6329 81.2582 57.6892 81.2277 57.739C81.1971 57.7888 81.1552 57.8308 81.1055 57.8615L78.0343 59.6338C77.9392 59.6884 77.8583 59.6497 77.8583 59.5458C77.8632 59.4876 77.8817 59.4313 77.9123 59.3815C77.9428 59.3317 77.9846 59.2897 78.0343 59.2589Z" fill="#455A64"/>
<path d="M83.3283 53.9528L84.0728 53.5234C84.2259 53.4354 84.3491 53.5075 84.3491 53.6835V54.5424C84.3441 54.6386 84.3164 54.7322 84.2684 54.8157C84.2204 54.8992 84.1534 54.9702 84.0728 55.0229L83.3283 55.4558C83.1752 55.5438 83.052 55.4717 83.052 55.2957V54.4368C83.0565 54.34 83.0839 54.2457 83.1319 54.1616C83.18 54.0774 83.2473 54.0059 83.3283 53.9528V53.9528Z" fill="#49BEB7"/>
<path d="M82.1649 56.8726L85.2361 55.1038C85.3311 55.0492 85.4121 55.088 85.4121 55.1918C85.4071 55.25 85.3887 55.3063 85.3581 55.3561C85.3275 55.4059 85.2858 55.4479 85.2361 55.4787L82.1649 57.251C82.0699 57.3055 81.9889 57.2668 81.9889 57.163C81.9933 57.1041 82.0115 57.0472 82.0421 56.9967C82.0727 56.9463 82.1148 56.9037 82.1649 56.8726V56.8726Z" fill="#455A64"/>
<path d="M73.9035 62.3779L76.9747 60.6056C77.0698 60.5493 77.1507 60.5898 77.1507 60.6918C77.1461 60.7504 77.1277 60.807 77.0971 60.8571C77.0666 60.9073 77.0246 60.9495 76.9747 60.9805L73.9035 62.7528C73.8085 62.8073 73.7275 62.7686 73.7275 62.6648C73.7321 62.6064 73.7504 62.55 73.781 62.5001C73.8116 62.4503 73.8536 62.4084 73.9035 62.3779Z" fill="#455A64"/>
<path d="M78.0343 59.9912L81.1055 58.2189C81.2005 58.1626 81.2815 58.203 81.2815 58.3051C81.2769 58.3635 81.2586 58.4199 81.228 58.4698C81.1974 58.5196 81.1554 58.5615 81.1055 58.592L78.0343 60.3661C77.9392 60.4206 77.8583 60.3819 77.8583 60.2781C77.8628 60.2197 77.8811 60.1633 77.9117 60.1134C77.9423 60.0636 77.9843 60.0217 78.0343 59.9912Z" fill="#455A64"/>
<path d="M82.1649 57.605L85.2361 55.8326C85.3311 55.7763 85.4121 55.8168 85.4121 55.9189C85.4076 55.9772 85.3892 56.0336 85.3586 56.0835C85.328 56.1334 85.286 56.1753 85.2361 56.2058L82.1649 57.9799C82.0699 58.0344 81.9889 57.9957 81.9889 57.8919C81.9934 57.8335 82.0117 57.7771 82.0423 57.7272C82.0729 57.6773 82.1149 57.6354 82.1649 57.605Z" fill="#455A64"/>
<path d="M73.9035 63.1103L76.9747 61.3362C77.0698 61.2817 77.1507 61.3204 77.1507 61.4242C77.1462 61.4826 77.1279 61.539 77.0973 61.5888C77.0667 61.6387 77.0247 61.6806 76.9747 61.7111L73.9035 63.4852C73.8085 63.5397 73.7275 63.501 73.7275 63.3972C73.7321 63.3388 73.7504 63.2824 73.781 63.2325C73.8116 63.1827 73.8536 63.1408 73.9035 63.1103Z" fill="#455A64"/>
<path d="M78.0343 60.7236L81.1055 58.9495C81.2005 58.8949 81.2815 58.9337 81.2815 59.0375C81.2769 59.0958 81.2586 59.1523 81.228 59.2021C81.1974 59.252 81.1554 59.2939 81.1055 59.3244L78.0343 61.0967C77.9392 61.153 77.8583 61.1143 77.8583 61.0105C77.8628 60.9521 77.8811 60.8957 77.9117 60.8458C77.9423 60.796 77.9843 60.7541 78.0343 60.7236Z" fill="#455A64"/>
<path d="M82.1649 58.3369L85.2361 56.5628C85.3311 56.5082 85.4121 56.5469 85.4121 56.6508C85.4076 56.7091 85.3892 56.7655 85.3586 56.8154C85.328 56.8653 85.286 56.9072 85.2361 56.9377L82.1649 58.71C82.0699 58.7663 81.9889 58.7258 81.9889 58.6237C81.9934 58.5654 82.0117 58.509 82.0423 58.4591C82.0729 58.4092 82.1149 58.3673 82.1649 58.3369V58.3369Z" fill="#455A64"/>
<path d="M66.9445 31.7275C68.7397 30.6909 70.1952 31.5322 70.1952 33.6054C70.1952 35.6787 68.7397 38.2008 66.9445 39.2374C65.1493 40.2741 63.692 39.4328 63.692 37.3595C63.692 35.2862 65.1475 32.7642 66.9445 31.7275Z" fill="#E0E0E0"/>
<path d="M66.9444 33.3608C67.527 33.0229 68.0004 33.2957 68.0004 33.9698C67.9806 34.3359 67.8746 34.6922 67.6911 35.0096C67.5076 35.3271 67.2518 35.5967 66.9444 35.7967C66.3619 36.1328 65.8884 35.86 65.8884 35.1877C65.9083 34.8216 66.0143 34.4653 66.1978 34.1479C66.3813 33.8305 66.6371 33.5608 66.9444 33.3608Z" fill="#FAFAFA"/>
<path d="M69.0001 36.9475C69.0001 35.8422 68.224 35.3934 67.2665 35.946L66.6681 36.298C65.7107 36.8507 64.9363 38.1953 64.9363 39.3006V39.598C65.4889 39.774 66.1859 39.6825 66.9444 39.246C67.776 38.7337 68.4792 38.0377 69.0001 37.2115V36.9475Z" fill="#FAFAFA"/>
<path d="M65.019 44.5773L69.5176 41.9796C69.7077 41.8704 69.8696 41.9479 69.8696 42.1556C69.8601 42.2721 69.8233 42.3848 69.7621 42.4845C69.701 42.5842 69.6172 42.6681 69.5176 42.7293L65.019 45.3271C64.8272 45.4362 64.667 45.3588 64.667 45.1511C64.6763 45.0345 64.7131 44.9217 64.7743 44.822C64.8354 44.7223 64.9193 44.6385 65.019 44.5773V44.5773Z" fill="#E0E0E0"/>
</svg>
