<svg width="379" height="116" viewBox="0 0 379 116" fill="none" xmlns="http://www.w3.org/2000/svg">
<rect width="379" height="116" rx="10" fill="#578CFF"/>
<path d="M283.632 101.4C284.149 101.4 284.579 101.573 284.92 101.92C285.267 102.261 285.44 102.688 285.44 103.2C285.44 103.707 285.267 104.133 284.92 104.48C284.579 104.827 284.149 105 283.632 105H282.344V107H281.6V101.4H283.632ZM283.632 104.304C283.941 104.304 284.197 104.2 284.4 103.992C284.603 103.779 284.704 103.515 284.704 103.2C284.704 102.88 284.603 102.616 284.4 102.408C284.197 102.2 283.941 102.096 283.632 102.096H282.344V104.304H283.632ZM289.318 106.496C288.907 106.901 288.409 107.104 287.822 107.104C287.235 107.104 286.737 106.901 286.326 106.496C285.921 106.091 285.718 105.592 285.718 105C285.718 104.408 285.921 103.909 286.326 103.504C286.737 103.099 287.235 102.896 287.822 102.896C288.409 102.896 288.907 103.099 289.318 103.504C289.729 103.909 289.934 104.408 289.934 105C289.934 105.592 289.729 106.091 289.318 106.496ZM287.822 106.424C288.222 106.424 288.558 106.288 288.83 106.016C289.102 105.744 289.238 105.405 289.238 105C289.238 104.595 289.102 104.256 288.83 103.984C288.558 103.712 288.222 103.576 287.822 103.576C287.427 103.576 287.094 103.712 286.822 103.984C286.55 104.256 286.414 104.595 286.414 105C286.414 105.405 286.55 105.744 286.822 106.016C287.094 106.288 287.427 106.424 287.822 106.424ZM295.31 103H296.038L294.798 107H294.086L293.15 104.04L292.214 107H291.502L290.262 103H290.99L291.87 106.04L292.814 103H293.486L294.43 106.048L295.31 103ZM297.086 105.32C297.156 105.677 297.318 105.955 297.574 106.152C297.836 106.349 298.156 106.448 298.534 106.448C299.062 106.448 299.446 106.253 299.686 105.864L300.278 106.2C299.889 106.803 299.302 107.104 298.518 107.104C297.884 107.104 297.366 106.907 296.966 106.512C296.572 106.112 296.374 105.608 296.374 105C296.374 104.397 296.569 103.896 296.958 103.496C297.348 103.096 297.852 102.896 298.47 102.896C299.057 102.896 299.534 103.104 299.902 103.52C300.276 103.931 300.462 104.427 300.462 105.008C300.462 105.109 300.454 105.213 300.438 105.32H297.086ZM298.47 103.552C298.097 103.552 297.788 103.659 297.542 103.872C297.297 104.08 297.145 104.36 297.086 104.712H299.758C299.7 104.333 299.55 104.045 299.31 103.848C299.07 103.651 298.79 103.552 298.47 103.552ZM301.958 103.672C302.188 103.176 302.604 102.928 303.206 102.928V103.656C302.865 103.64 302.572 103.731 302.326 103.928C302.081 104.125 301.958 104.443 301.958 104.88V107H301.262V103H301.958V103.672ZM304.157 105.32C304.226 105.677 304.389 105.955 304.645 106.152C304.906 106.349 305.226 106.448 305.605 106.448C306.133 106.448 306.517 106.253 306.757 105.864L307.349 106.2C306.959 106.803 306.373 107.104 305.589 107.104C304.954 107.104 304.437 106.907 304.037 106.512C303.642 106.112 303.445 105.608 303.445 105C303.445 104.397 303.639 103.896 304.029 103.496C304.418 103.096 304.922 102.896 305.541 102.896C306.127 102.896 306.605 103.104 306.973 103.52C307.346 103.931 307.533 104.427 307.533 105.008C307.533 105.109 307.525 105.213 307.509 105.32H304.157ZM305.541 103.552C305.167 103.552 304.858 103.659 304.613 103.872C304.367 104.08 304.215 104.36 304.157 104.712H306.829C306.77 104.333 306.621 104.045 306.381 103.848C306.141 103.651 305.861 103.552 305.541 103.552ZM311.637 101.4H312.333V107H311.637V106.312C311.29 106.84 310.786 107.104 310.125 107.104C309.565 107.104 309.088 106.901 308.693 106.496C308.298 106.085 308.101 105.587 308.101 105C308.101 104.413 308.298 103.917 308.693 103.512C309.088 103.101 309.565 102.896 310.125 102.896C310.786 102.896 311.29 103.16 311.637 103.688V101.4ZM310.213 106.432C310.618 106.432 310.957 106.296 311.229 106.024C311.501 105.747 311.637 105.405 311.637 105C311.637 104.595 311.501 104.256 311.229 103.984C310.957 103.707 310.618 103.568 310.213 103.568C309.813 103.568 309.477 103.707 309.205 103.984C308.933 104.256 308.797 104.595 308.797 105C308.797 105.405 308.933 105.747 309.205 106.024C309.477 106.296 309.813 106.432 310.213 106.432ZM317.595 102.896C318.155 102.896 318.633 103.101 319.027 103.512C319.422 103.917 319.619 104.413 319.619 105C319.619 105.587 319.422 106.085 319.027 106.496C318.633 106.901 318.155 107.104 317.595 107.104C316.934 107.104 316.43 106.84 316.083 106.312V107H315.387V101.4H316.083V103.688C316.43 103.16 316.934 102.896 317.595 102.896ZM317.507 106.432C317.907 106.432 318.243 106.296 318.515 106.024C318.787 105.747 318.923 105.405 318.923 105C318.923 104.595 318.787 104.256 318.515 103.984C318.243 103.707 317.907 103.568 317.507 103.568C317.102 103.568 316.763 103.707 316.491 103.984C316.219 104.256 316.083 104.595 316.083 105C316.083 105.405 316.219 105.747 316.491 106.024C316.763 106.296 317.102 106.432 317.507 106.432ZM323.086 103H323.83L322.198 107.248C322.027 107.701 321.787 108.045 321.478 108.28C321.174 108.52 320.822 108.627 320.422 108.6V107.952C320.912 107.989 321.272 107.717 321.502 107.136L321.574 106.984L319.83 103H320.574L321.934 106.136L323.086 103Z" fill="white"/>
<path d="M332.635 100.404C332.292 100.061 331.736 100.061 331.394 100.404L328.387 103.411C328.043 103.755 328.044 104.313 328.389 104.655L331.359 107.6C331.702 107.941 332.256 107.94 332.598 107.598L332.937 107.259C333.051 107.144 333.051 106.959 332.937 106.845L331.942 105.85C331.713 105.621 331.713 105.251 331.942 105.022L332.752 104.212C332.866 104.098 332.866 103.913 332.752 103.798L332.175 103.222C332.061 103.108 331.876 103.108 331.761 103.222L330.924 104.059C330.81 104.174 330.625 104.174 330.51 104.059L330.496 104.044C330.381 103.93 330.381 103.745 330.496 103.63L332.972 101.154C333.086 101.04 333.086 100.855 332.972 100.74L332.635 100.404Z" fill="white"/>
<path d="M332.582 102.403L333.4 101.584C333.515 101.469 333.7 101.469 333.814 101.584L335.616 103.385C335.959 103.728 335.959 104.284 335.616 104.627L333.789 106.453C333.675 106.567 333.49 106.567 333.376 106.453L332.561 105.638C332.447 105.524 332.447 105.339 332.561 105.224L333.568 104.217C333.682 104.103 333.682 103.918 333.568 103.803L332.582 102.817C332.467 102.702 332.467 102.517 332.582 102.403Z" fill="#24CA7A"/>
<path d="M340 101.286V106.769H341.037V104.476H342.911V103.566H341.037V102.197H343.057V101.286H340Z" fill="white"/>
<path d="M344.388 101.486C344.063 101.486 343.804 101.745 343.804 102.07C343.804 102.396 344.063 102.655 344.388 102.655C344.714 102.655 344.973 102.396 344.973 102.07C344.973 101.745 344.714 101.486 344.388 101.486ZM343.897 103.366V106.769H344.88V103.366H343.897Z" fill="white"/>
<path d="M345.918 103.366V106.769H346.901V104.762C346.901 104.39 347.26 104.024 347.679 104.024C348.137 104.024 348.39 104.383 348.39 104.815V106.769H349.374V104.549C349.374 103.626 348.609 103.26 347.911 103.26C347.539 103.26 347.16 103.453 346.901 103.752V103.366H345.918Z" fill="white"/>
<path d="M350.353 101.286V106.769H352.3C353.424 106.769 354.075 106.164 354.075 105.261C354.075 104.397 353.59 103.991 352.872 103.871C353.357 103.639 353.59 103.207 353.59 102.682C353.59 101.665 352.872 101.286 351.902 101.286H350.353ZM351.39 102.09H351.623C352.247 102.09 352.586 102.31 352.586 102.782C352.586 103.307 352.241 103.526 351.623 103.526H351.39V102.09ZM351.39 104.423H351.948C352.613 104.423 352.985 104.662 352.985 105.221C352.985 105.726 352.613 105.965 351.948 105.965H351.39V104.423Z" fill="white"/>
<path d="M354.594 105.068C354.594 106.131 355.458 106.876 356.588 106.876C357.718 106.876 358.582 106.131 358.582 105.068C358.582 104.004 357.718 103.26 356.588 103.26C355.458 103.26 354.594 104.004 354.594 105.068ZM355.618 105.068C355.618 104.503 356.036 104.097 356.588 104.097C357.14 104.097 357.558 104.503 357.558 105.068C357.558 105.633 357.14 106.038 356.588 106.038C356.036 106.038 355.618 105.633 355.618 105.068Z" fill="white"/>
<path d="M359.068 103.366L360.317 104.988L358.868 106.769H360.051L360.922 105.666L361.792 106.769H362.975L361.527 104.988L362.776 103.366H361.633L360.922 104.303L360.211 103.366H359.068Z" fill="white"/>
<path d="M133.084 72.156C132.476 72.156 131.94 72.028 131.476 71.772C131.012 71.516 130.672 71.144 130.456 70.656L131.404 70.104C131.652 70.744 132.212 71.064 133.084 71.064C133.62 71.064 134.04 70.936 134.344 70.68C134.648 70.424 134.8 70.044 134.8 69.54V63.6H135.904V69.54C135.904 70.38 135.636 71.028 135.1 71.484C134.572 71.932 133.9 72.156 133.084 72.156ZM141.623 66H142.667V72H141.623V71.136C141.199 71.816 140.551 72.156 139.679 72.156C138.975 72.156 138.411 71.936 137.987 71.496C137.563 71.048 137.351 70.444 137.351 69.684V66H138.395V69.624C138.395 70.112 138.527 70.492 138.791 70.764C139.055 71.028 139.419 71.16 139.883 71.16C140.403 71.16 140.823 71 141.143 70.68C141.463 70.352 141.623 69.852 141.623 69.18V66ZM145.145 67.62C145.145 67.852 145.261 68.04 145.493 68.184C145.725 68.32 146.005 68.432 146.333 68.52C146.661 68.6 146.989 68.696 147.317 68.808C147.645 68.912 147.925 69.096 148.157 69.36C148.389 69.616 148.505 69.948 148.505 70.356C148.505 70.9 148.293 71.336 147.869 71.664C147.453 71.992 146.917 72.156 146.261 72.156C145.677 72.156 145.177 72.028 144.761 71.772C144.345 71.516 144.049 71.176 143.873 70.752L144.773 70.236C144.869 70.524 145.049 70.752 145.313 70.92C145.577 71.088 145.893 71.172 146.261 71.172C146.605 71.172 146.889 71.108 147.113 70.98C147.337 70.844 147.449 70.636 147.449 70.356C147.449 70.124 147.333 69.94 147.101 69.804C146.869 69.66 146.589 69.548 146.261 69.468C145.933 69.38 145.605 69.28 145.277 69.168C144.949 69.056 144.669 68.872 144.437 68.616C144.205 68.36 144.089 68.032 144.089 67.632C144.089 67.112 144.289 66.684 144.689 66.348C145.097 66.012 145.605 65.844 146.213 65.844C146.701 65.844 147.133 65.956 147.509 66.18C147.893 66.396 148.181 66.7 148.373 67.092L147.497 67.584C147.281 67.072 146.853 66.816 146.213 66.816C145.917 66.816 145.665 66.888 145.457 67.032C145.249 67.168 145.145 67.364 145.145 67.62ZM152.771 67.008H151.175V70.26C151.175 70.556 151.231 70.768 151.343 70.896C151.463 71.016 151.643 71.08 151.883 71.088C152.123 71.088 152.419 71.08 152.771 71.064V72C151.859 72.12 151.191 72.048 150.767 71.784C150.343 71.512 150.131 71.004 150.131 70.26V67.008H148.943V66H150.131V64.632L151.175 64.32V66H152.771V67.008ZM159.862 72.156C158.958 72.156 158.206 71.856 157.606 71.256C157.006 70.648 156.706 69.896 156.706 69C156.706 68.104 157.006 67.356 157.606 66.756C158.206 66.148 158.958 65.844 159.862 65.844C160.454 65.844 160.986 65.988 161.458 66.276C161.93 66.556 162.282 66.936 162.514 67.416L161.638 67.92C161.486 67.6 161.25 67.344 160.93 67.152C160.618 66.96 160.262 66.864 159.862 66.864C159.262 66.864 158.758 67.068 158.35 67.476C157.95 67.884 157.75 68.392 157.75 69C157.75 69.6 157.95 70.104 158.35 70.512C158.758 70.92 159.262 71.124 159.862 71.124C160.262 71.124 160.622 71.032 160.942 70.848C161.262 70.656 161.506 70.4 161.674 70.08L162.562 70.596C162.306 71.068 161.938 71.448 161.458 71.736C160.978 72.016 160.446 72.156 159.862 72.156ZM168.575 71.244C167.959 71.852 167.211 72.156 166.331 72.156C165.451 72.156 164.703 71.852 164.087 71.244C163.479 70.636 163.175 69.888 163.175 69C163.175 68.112 163.479 67.364 164.087 66.756C164.703 66.148 165.451 65.844 166.331 65.844C167.211 65.844 167.959 66.148 168.575 66.756C169.191 67.364 169.499 68.112 169.499 69C169.499 69.888 169.191 70.636 168.575 71.244ZM166.331 71.136C166.931 71.136 167.435 70.932 167.843 70.524C168.251 70.116 168.455 69.608 168.455 69C168.455 68.392 168.251 67.884 167.843 67.476C167.435 67.068 166.931 66.864 166.331 66.864C165.739 66.864 165.239 67.068 164.831 67.476C164.423 67.884 164.219 68.392 164.219 69C164.219 69.608 164.423 70.116 164.831 70.524C165.239 70.932 165.739 71.136 166.331 71.136ZM177.21 65.844C177.882 65.844 178.426 66.064 178.842 66.504C179.258 66.936 179.466 67.524 179.466 68.268V72H178.422V68.304C178.422 67.84 178.302 67.48 178.062 67.224C177.822 66.968 177.502 66.84 177.102 66.84C176.654 66.84 176.294 66.992 176.022 67.296C175.758 67.592 175.626 68.048 175.626 68.664V72H174.582V68.304C174.582 67.84 174.466 67.48 174.234 67.224C174.01 66.968 173.702 66.84 173.31 66.84C172.87 66.84 172.502 66.992 172.206 67.296C171.918 67.6 171.774 68.056 171.774 68.664V72H170.729V66H171.774V66.804C172.182 66.164 172.778 65.844 173.562 65.844C174.37 65.844 174.958 66.184 175.326 66.864C175.742 66.184 176.37 65.844 177.21 65.844ZM184.225 65.844C185.065 65.844 185.781 66.152 186.373 66.768C186.965 67.376 187.261 68.12 187.261 69C187.261 69.88 186.965 70.628 186.373 71.244C185.781 71.852 185.065 72.156 184.225 72.156C183.233 72.156 182.477 71.76 181.957 70.968V74.4H180.913V66H181.957V67.032C182.477 66.24 183.233 65.844 184.225 65.844ZM184.093 71.148C184.693 71.148 185.197 70.944 185.605 70.536C186.013 70.12 186.217 69.608 186.217 69C186.217 68.392 186.013 67.884 185.605 67.476C185.197 67.06 184.693 66.852 184.093 66.852C183.485 66.852 182.977 67.06 182.569 67.476C182.161 67.884 181.957 68.392 181.957 69C181.957 69.608 182.161 70.12 182.569 70.536C182.977 70.944 183.485 71.148 184.093 71.148ZM188.507 72V63.24H189.551V72H188.507ZM191.876 69.48C191.98 70.016 192.224 70.432 192.608 70.728C193 71.024 193.48 71.172 194.048 71.172C194.84 71.172 195.416 70.88 195.776 70.296L196.664 70.8C196.08 71.704 195.2 72.156 194.024 72.156C193.072 72.156 192.296 71.86 191.696 71.268C191.104 70.668 190.808 69.912 190.808 69C190.808 68.096 191.1 67.344 191.684 66.744C192.268 66.144 193.024 65.844 193.952 65.844C194.832 65.844 195.548 66.156 196.1 66.78C196.66 67.396 196.94 68.14 196.94 69.012C196.94 69.164 196.928 69.32 196.904 69.48H191.876ZM193.952 66.828C193.392 66.828 192.928 66.988 192.56 67.308C192.192 67.62 191.964 68.04 191.876 68.568H195.884C195.796 68 195.572 67.568 195.212 67.272C194.852 66.976 194.432 66.828 193.952 66.828ZM201.228 67.008H199.632V70.26C199.632 70.556 199.688 70.768 199.8 70.896C199.92 71.016 200.1 71.08 200.34 71.088C200.58 71.088 200.876 71.08 201.228 71.064V72C200.316 72.12 199.648 72.048 199.224 71.784C198.8 71.512 198.588 71.004 198.588 70.26V67.008H197.4V66H198.588V64.632L199.632 64.32V66H201.228V67.008ZM202.891 69.48C202.995 70.016 203.239 70.432 203.623 70.728C204.015 71.024 204.495 71.172 205.063 71.172C205.855 71.172 206.431 70.88 206.791 70.296L207.679 70.8C207.095 71.704 206.215 72.156 205.039 72.156C204.087 72.156 203.311 71.86 202.711 71.268C202.119 70.668 201.823 69.912 201.823 69C201.823 68.096 202.115 67.344 202.699 66.744C203.283 66.144 204.039 65.844 204.967 65.844C205.847 65.844 206.563 66.156 207.115 66.78C207.675 67.396 207.955 68.14 207.955 69.012C207.955 69.164 207.943 69.32 207.919 69.48H202.891ZM204.967 66.828C204.407 66.828 203.943 66.988 203.575 67.308C203.207 67.62 202.979 68.04 202.891 68.568H206.899C206.811 68 206.587 67.568 206.227 67.272C205.867 66.976 205.447 66.828 204.967 66.828ZM212.155 72V63.24H213.199V72H212.155ZM219.76 66H220.804V72H219.76V70.968C219.24 71.76 218.484 72.156 217.492 72.156C216.652 72.156 215.936 71.852 215.344 71.244C214.752 70.628 214.456 69.88 214.456 69C214.456 68.12 214.752 67.376 215.344 66.768C215.936 66.152 216.652 65.844 217.492 65.844C218.484 65.844 219.24 66.24 219.76 67.032V66ZM217.624 71.148C218.232 71.148 218.74 70.944 219.148 70.536C219.556 70.12 219.76 69.608 219.76 69C219.76 68.392 219.556 67.884 219.148 67.476C218.74 67.06 218.232 66.852 217.624 66.852C217.024 66.852 216.52 67.06 216.112 67.476C215.704 67.884 215.5 68.392 215.5 69C215.5 69.608 215.704 70.12 216.112 70.536C216.52 70.944 217.024 71.148 217.624 71.148ZM223.274 67.62C223.274 67.852 223.39 68.04 223.622 68.184C223.854 68.32 224.134 68.432 224.462 68.52C224.79 68.6 225.118 68.696 225.446 68.808C225.774 68.912 226.054 69.096 226.286 69.36C226.518 69.616 226.634 69.948 226.634 70.356C226.634 70.9 226.422 71.336 225.998 71.664C225.582 71.992 225.046 72.156 224.39 72.156C223.806 72.156 223.306 72.028 222.89 71.772C222.474 71.516 222.178 71.176 222.002 70.752L222.902 70.236C222.998 70.524 223.178 70.752 223.442 70.92C223.706 71.088 224.022 71.172 224.39 71.172C224.734 71.172 225.018 71.108 225.242 70.98C225.466 70.844 225.578 70.636 225.578 70.356C225.578 70.124 225.462 69.94 225.23 69.804C224.998 69.66 224.718 69.548 224.39 69.468C224.062 69.38 223.734 69.28 223.406 69.168C223.078 69.056 222.798 68.872 222.566 68.616C222.334 68.36 222.218 68.032 222.218 67.632C222.218 67.112 222.418 66.684 222.818 66.348C223.226 66.012 223.734 65.844 224.342 65.844C224.83 65.844 225.262 65.956 225.638 66.18C226.022 66.396 226.31 66.7 226.502 67.092L225.626 67.584C225.41 67.072 224.982 66.816 224.342 66.816C224.046 66.816 223.794 66.888 223.586 67.032C223.378 67.168 223.274 67.364 223.274 67.62ZM230.9 67.008H229.304V70.26C229.304 70.556 229.36 70.768 229.472 70.896C229.592 71.016 229.772 71.08 230.012 71.088C230.252 71.088 230.548 71.08 230.9 71.064V72C229.988 72.12 229.32 72.048 228.896 71.784C228.472 71.512 228.26 71.004 228.26 70.26V67.008H227.072V66H228.26V64.632L229.304 64.32V66H230.9V67.008ZM238.255 64.452C237.199 64.364 236.671 64.82 236.671 65.82V66H238.255V67.008H236.671V72H235.627V67.008H234.667V66H235.627V65.82C235.627 65.012 235.851 64.4 236.299 63.984C236.755 63.568 237.407 63.388 238.255 63.444V64.452ZM239.454 69.48C239.558 70.016 239.802 70.432 240.186 70.728C240.578 71.024 241.058 71.172 241.626 71.172C242.418 71.172 242.994 70.88 243.354 70.296L244.242 70.8C243.658 71.704 242.778 72.156 241.602 72.156C240.65 72.156 239.874 71.86 239.274 71.268C238.682 70.668 238.386 69.912 238.386 69C238.386 68.096 238.678 67.344 239.262 66.744C239.846 66.144 240.602 65.844 241.53 65.844C242.41 65.844 243.126 66.156 243.678 66.78C244.238 67.396 244.518 68.14 244.518 69.012C244.518 69.164 244.506 69.32 244.482 69.48H239.454ZM241.53 66.828C240.97 66.828 240.506 66.988 240.138 67.308C239.77 67.62 239.542 68.04 239.454 68.568H243.462C243.374 68 243.15 67.568 242.79 67.272C242.43 66.976 242.01 66.828 241.53 66.828ZM252.551 66H253.643L251.783 72H250.715L249.311 67.56L247.907 72H246.839L244.979 66H246.071L247.391 70.56L248.807 66H249.815L251.231 70.572L252.551 66ZM258.618 67.62C258.618 67.852 258.734 68.04 258.966 68.184C259.198 68.32 259.478 68.432 259.806 68.52C260.134 68.6 260.462 68.696 260.79 68.808C261.118 68.912 261.398 69.096 261.63 69.36C261.862 69.616 261.978 69.948 261.978 70.356C261.978 70.9 261.766 71.336 261.342 71.664C260.926 71.992 260.39 72.156 259.734 72.156C259.15 72.156 258.65 72.028 258.234 71.772C257.818 71.516 257.522 71.176 257.346 70.752L258.246 70.236C258.342 70.524 258.522 70.752 258.786 70.92C259.05 71.088 259.366 71.172 259.734 71.172C260.078 71.172 260.362 71.108 260.586 70.98C260.81 70.844 260.922 70.636 260.922 70.356C260.922 70.124 260.806 69.94 260.574 69.804C260.342 69.66 260.062 69.548 259.734 69.468C259.406 69.38 259.078 69.28 258.75 69.168C258.422 69.056 258.142 68.872 257.91 68.616C257.678 68.36 257.562 68.032 257.562 67.632C257.562 67.112 257.762 66.684 258.162 66.348C258.57 66.012 259.078 65.844 259.686 65.844C260.174 65.844 260.606 65.956 260.982 66.18C261.366 66.396 261.654 66.7 261.846 67.092L260.97 67.584C260.754 67.072 260.326 66.816 259.686 66.816C259.39 66.816 259.138 66.888 258.93 67.032C258.722 67.168 258.618 67.364 258.618 67.62ZM266.244 67.008H264.648V70.26C264.648 70.556 264.704 70.768 264.816 70.896C264.936 71.016 265.116 71.08 265.355 71.088C265.595 71.088 265.892 71.08 266.244 71.064V72C265.332 72.12 264.664 72.048 264.24 71.784C263.816 71.512 263.604 71.004 263.604 70.26V67.008H262.416V66H263.604V64.632L264.648 64.32V66H266.244V67.008ZM267.907 69.48C268.011 70.016 268.255 70.432 268.639 70.728C269.031 71.024 269.511 71.172 270.079 71.172C270.871 71.172 271.447 70.88 271.807 70.296L272.695 70.8C272.111 71.704 271.231 72.156 270.055 72.156C269.103 72.156 268.327 71.86 267.727 71.268C267.135 70.668 266.839 69.912 266.839 69C266.839 68.096 267.131 67.344 267.715 66.744C268.299 66.144 269.055 65.844 269.983 65.844C270.863 65.844 271.579 66.156 272.131 66.78C272.691 67.396 272.971 68.14 272.971 69.012C272.971 69.164 272.959 69.32 272.935 69.48H267.907ZM269.983 66.828C269.423 66.828 268.959 66.988 268.591 67.308C268.223 67.62 267.995 68.04 267.907 68.568H271.915C271.827 68 271.603 67.568 271.243 67.272C270.883 66.976 270.463 66.828 269.983 66.828ZM277.483 65.844C278.323 65.844 279.039 66.152 279.631 66.768C280.223 67.376 280.519 68.12 280.519 69C280.519 69.88 280.223 70.628 279.631 71.244C279.039 71.852 278.323 72.156 277.483 72.156C276.491 72.156 275.735 71.76 275.215 70.968V74.4H274.171V66H275.215V67.032C275.735 66.24 276.491 65.844 277.483 65.844ZM277.351 71.148C277.951 71.148 278.455 70.944 278.863 70.536C279.271 70.12 279.475 69.608 279.475 69C279.475 68.392 279.271 67.884 278.863 67.476C278.455 67.06 277.951 66.852 277.351 66.852C276.743 66.852 276.235 67.06 275.827 67.476C275.419 67.884 275.215 68.392 275.215 69C275.215 69.608 275.419 70.12 275.827 70.536C276.235 70.944 276.743 71.148 277.351 71.148ZM282.536 67.62C282.536 67.852 282.652 68.04 282.884 68.184C283.116 68.32 283.396 68.432 283.724 68.52C284.052 68.6 284.38 68.696 284.708 68.808C285.036 68.912 285.316 69.096 285.548 69.36C285.78 69.616 285.896 69.948 285.896 70.356C285.896 70.9 285.684 71.336 285.26 71.664C284.844 71.992 284.308 72.156 283.652 72.156C283.068 72.156 282.568 72.028 282.152 71.772C281.736 71.516 281.44 71.176 281.264 70.752L282.164 70.236C282.26 70.524 282.44 70.752 282.704 70.92C282.968 71.088 283.284 71.172 283.652 71.172C283.996 71.172 284.28 71.108 284.504 70.98C284.728 70.844 284.84 70.636 284.84 70.356C284.84 70.124 284.724 69.94 284.492 69.804C284.26 69.66 283.98 69.548 283.652 69.468C283.324 69.38 282.996 69.28 282.668 69.168C282.34 69.056 282.06 68.872 281.828 68.616C281.596 68.36 281.48 68.032 281.48 67.632C281.48 67.112 281.68 66.684 282.08 66.348C282.488 66.012 282.996 65.844 283.604 65.844C284.092 65.844 284.524 65.956 284.9 66.18C285.284 66.396 285.572 66.7 285.764 67.092L284.888 67.584C284.672 67.072 284.244 66.816 283.604 66.816C283.308 66.816 283.056 66.888 282.848 67.032C282.64 67.168 282.536 67.364 282.536 67.62ZM293.396 67.008H291.8V70.26C291.8 70.556 291.856 70.768 291.968 70.896C292.088 71.016 292.268 71.08 292.508 71.088C292.748 71.088 293.044 71.08 293.396 71.064V72C292.484 72.12 291.816 72.048 291.392 71.784C290.968 71.512 290.756 71.004 290.756 70.26V67.008H289.568V66H290.756V64.632L291.8 64.32V66H293.396V67.008ZM299.391 71.244C298.775 71.852 298.027 72.156 297.147 72.156C296.267 72.156 295.519 71.852 294.903 71.244C294.295 70.636 293.991 69.888 293.991 69C293.991 68.112 294.295 67.364 294.903 66.756C295.519 66.148 296.267 65.844 297.147 65.844C298.027 65.844 298.775 66.148 299.391 66.756C300.007 67.364 300.315 68.112 300.315 69C300.315 69.888 300.007 70.636 299.391 71.244ZM297.147 71.136C297.747 71.136 298.251 70.932 298.659 70.524C299.067 70.116 299.271 69.608 299.271 69C299.271 68.392 299.067 67.884 298.659 67.476C298.251 67.068 297.747 66.864 297.147 66.864C296.555 66.864 296.055 67.068 295.647 67.476C295.239 67.884 295.035 68.392 295.035 69C295.035 69.608 295.239 70.116 295.647 70.524C296.055 70.932 296.555 71.136 297.147 71.136ZM309.526 66H310.558V71.748C310.558 72.636 310.258 73.324 309.658 73.812C309.058 74.308 308.338 74.556 307.498 74.556C306.826 74.556 306.246 74.428 305.758 74.172C305.27 73.924 304.902 73.564 304.654 73.092L305.566 72.576C305.894 73.248 306.546 73.584 307.522 73.584C308.146 73.584 308.634 73.42 308.986 73.092C309.346 72.764 309.526 72.316 309.526 71.748V70.896C308.998 71.696 308.246 72.096 307.27 72.096C306.414 72.096 305.69 71.792 305.098 71.184C304.506 70.576 304.21 69.836 304.21 68.964C304.21 68.092 304.506 67.356 305.098 66.756C305.69 66.148 306.414 65.844 307.27 65.844C308.254 65.844 309.006 66.24 309.526 67.032V66ZM305.866 70.488C306.274 70.896 306.782 71.1 307.39 71.1C307.998 71.1 308.506 70.896 308.914 70.488C309.322 70.08 309.526 69.572 309.526 68.964C309.526 68.364 309.322 67.86 308.914 67.452C308.506 67.044 307.998 66.84 307.39 66.84C306.782 66.84 306.274 67.044 305.866 67.452C305.458 67.86 305.254 68.364 305.254 68.964C305.254 69.572 305.458 70.08 305.866 70.488ZM312.872 69.48C312.976 70.016 313.22 70.432 313.604 70.728C313.996 71.024 314.476 71.172 315.044 71.172C315.836 71.172 316.412 70.88 316.772 70.296L317.66 70.8C317.076 71.704 316.196 72.156 315.02 72.156C314.068 72.156 313.292 71.86 312.692 71.268C312.1 70.668 311.804 69.912 311.804 69C311.804 68.096 312.096 67.344 312.68 66.744C313.264 66.144 314.02 65.844 314.948 65.844C315.828 65.844 316.544 66.156 317.096 66.78C317.656 67.396 317.936 68.14 317.936 69.012C317.936 69.164 317.924 69.32 317.9 69.48H312.872ZM314.948 66.828C314.388 66.828 313.924 66.988 313.556 67.308C313.188 67.62 312.96 68.04 312.872 68.568H316.88C316.792 68 316.568 67.568 316.208 67.272C315.848 66.976 315.428 66.828 314.948 66.828ZM322.224 67.008H320.628V70.26C320.628 70.556 320.684 70.768 320.796 70.896C320.916 71.016 321.096 71.08 321.336 71.088C321.576 71.088 321.872 71.08 322.224 71.064V72C321.312 72.12 320.644 72.048 320.22 71.784C319.796 71.512 319.584 71.004 319.584 70.26V67.008H318.396V66H319.584V64.632L320.628 64.32V66H322.224V67.008ZM137.272 79.844C137.944 79.844 138.488 80.064 138.904 80.504C139.32 80.936 139.528 81.524 139.528 82.268V86H138.484V82.304C138.484 81.84 138.364 81.48 138.124 81.224C137.884 80.968 137.564 80.84 137.164 80.84C136.716 80.84 136.356 80.992 136.084 81.296C135.82 81.592 135.688 82.048 135.688 82.664V86H134.644V82.304C134.644 81.84 134.528 81.48 134.296 81.224C134.072 80.968 133.764 80.84 133.372 80.84C132.932 80.84 132.564 80.992 132.268 81.296C131.98 81.6 131.836 82.056 131.836 82.664V86H130.792V80H131.836V80.804C132.244 80.164 132.84 79.844 133.624 79.844C134.432 79.844 135.02 80.184 135.388 80.864C135.804 80.184 136.432 79.844 137.272 79.844ZM146.04 85.244C145.424 85.852 144.676 86.156 143.796 86.156C142.916 86.156 142.168 85.852 141.552 85.244C140.944 84.636 140.64 83.888 140.64 83C140.64 82.112 140.944 81.364 141.552 80.756C142.168 80.148 142.916 79.844 143.796 79.844C144.676 79.844 145.424 80.148 146.04 80.756C146.656 81.364 146.964 82.112 146.964 83C146.964 83.888 146.656 84.636 146.04 85.244ZM143.796 85.136C144.396 85.136 144.9 84.932 145.308 84.524C145.716 84.116 145.92 83.608 145.92 83C145.92 82.392 145.716 81.884 145.308 81.476C144.9 81.068 144.396 80.864 143.796 80.864C143.204 80.864 142.704 81.068 142.296 81.476C141.888 81.884 141.684 82.392 141.684 83C141.684 83.608 141.888 84.116 142.296 84.524C142.704 84.932 143.204 85.136 143.796 85.136ZM151.182 79.844C151.886 79.844 152.45 80.068 152.874 80.516C153.298 80.956 153.51 81.556 153.51 82.316V86H152.466V82.376C152.466 81.888 152.334 81.512 152.07 81.248C151.806 80.976 151.442 80.84 150.978 80.84C150.458 80.84 150.038 81.004 149.718 81.332C149.398 81.652 149.238 82.148 149.238 82.82V86H148.194V80H149.238V80.864C149.662 80.184 150.31 79.844 151.182 79.844ZM155.7 83.48C155.804 84.016 156.048 84.432 156.432 84.728C156.824 85.024 157.304 85.172 157.872 85.172C158.664 85.172 159.24 84.88 159.6 84.296L160.488 84.8C159.904 85.704 159.024 86.156 157.848 86.156C156.896 86.156 156.12 85.86 155.52 85.268C154.928 84.668 154.632 83.912 154.632 83C154.632 82.096 154.924 81.344 155.508 80.744C156.092 80.144 156.848 79.844 157.776 79.844C158.656 79.844 159.372 80.156 159.924 80.78C160.484 81.396 160.764 82.14 160.764 83.012C160.764 83.164 160.752 83.32 160.728 83.48H155.7ZM157.776 80.828C157.216 80.828 156.752 80.988 156.384 81.308C156.016 81.62 155.788 82.04 155.7 82.568H159.708C159.62 82 159.396 81.568 159.036 81.272C158.676 80.976 158.256 80.828 157.776 80.828ZM165.918 80H167.034L164.586 86.372C164.33 87.052 163.97 87.568 163.506 87.92C163.05 88.28 162.522 88.44 161.922 88.4V87.428C162.658 87.484 163.198 87.076 163.542 86.204L163.65 85.976L161.034 80H162.15L164.19 84.704L165.918 80ZM171.433 78.908C171.233 78.908 171.065 78.84 170.929 78.704C170.793 78.568 170.725 78.404 170.725 78.212C170.725 78.02 170.793 77.856 170.929 77.72C171.065 77.576 171.233 77.504 171.433 77.504C171.625 77.504 171.789 77.576 171.925 77.72C172.061 77.856 172.129 78.02 172.129 78.212C172.129 78.404 172.061 78.568 171.925 78.704C171.789 78.84 171.625 78.908 171.433 78.908ZM170.905 86V80H171.949V86H170.905ZM176.53 79.844C177.234 79.844 177.798 80.068 178.222 80.516C178.646 80.956 178.858 81.556 178.858 82.316V86H177.814V82.376C177.814 81.888 177.682 81.512 177.418 81.248C177.154 80.976 176.79 80.84 176.326 80.84C175.806 80.84 175.386 81.004 175.066 81.332C174.746 81.652 174.586 82.148 174.586 82.82V86H173.542V80H174.586V80.864C175.01 80.184 175.658 79.844 176.53 79.844ZM187.503 80H188.619L186.171 86.372C185.915 87.052 185.555 87.568 185.091 87.92C184.635 88.28 184.107 88.44 183.507 88.4V87.428C184.243 87.484 184.783 87.076 185.127 86.204L185.235 85.976L182.619 80H183.735L185.775 84.704L187.503 80ZM194.321 85.244C193.705 85.852 192.957 86.156 192.077 86.156C191.197 86.156 190.449 85.852 189.833 85.244C189.225 84.636 188.921 83.888 188.921 83C188.921 82.112 189.225 81.364 189.833 80.756C190.449 80.148 191.197 79.844 192.077 79.844C192.957 79.844 193.705 80.148 194.321 80.756C194.937 81.364 195.245 82.112 195.245 83C195.245 83.888 194.937 84.636 194.321 85.244ZM192.077 85.136C192.677 85.136 193.181 84.932 193.589 84.524C193.997 84.116 194.201 83.608 194.201 83C194.201 82.392 193.997 81.884 193.589 81.476C193.181 81.068 192.677 80.864 192.077 80.864C191.485 80.864 190.985 81.068 190.577 81.476C190.169 81.884 189.965 82.392 189.965 83C189.965 83.608 190.169 84.116 190.577 84.524C190.985 84.932 191.485 85.136 192.077 85.136ZM200.616 80H201.66V86H200.616V85.136C200.192 85.816 199.544 86.156 198.672 86.156C197.968 86.156 197.404 85.936 196.98 85.496C196.556 85.048 196.344 84.444 196.344 83.684V80H197.388V83.624C197.388 84.112 197.52 84.492 197.784 84.764C198.048 85.028 198.412 85.16 198.876 85.16C199.396 85.16 199.816 85 200.136 84.68C200.456 84.352 200.616 83.852 200.616 83.18V80ZM204.293 81.008C204.637 80.264 205.261 79.892 206.165 79.892V80.984C205.653 80.96 205.213 81.096 204.845 81.392C204.477 81.688 204.293 82.164 204.293 82.82V86H203.249V80H204.293V81.008ZM215.155 80H216.199V86H215.155V84.968C214.635 85.76 213.879 86.156 212.887 86.156C212.047 86.156 211.331 85.852 210.739 85.244C210.147 84.628 209.851 83.88 209.851 83C209.851 82.12 210.147 81.376 210.739 80.768C211.331 80.152 212.047 79.844 212.887 79.844C213.879 79.844 214.635 80.24 215.155 81.032V80ZM213.019 85.148C213.627 85.148 214.135 84.944 214.543 84.536C214.951 84.12 215.155 83.608 215.155 83C215.155 82.392 214.951 81.884 214.543 81.476C214.135 81.06 213.627 80.852 213.019 80.852C212.419 80.852 211.915 81.06 211.507 81.476C211.099 81.884 210.895 82.392 210.895 83C210.895 83.608 211.099 84.12 211.507 84.536C211.915 84.944 212.419 85.148 213.019 85.148ZM220.6 86.156C219.696 86.156 218.944 85.856 218.344 85.256C217.744 84.648 217.444 83.896 217.444 83C217.444 82.104 217.744 81.356 218.344 80.756C218.944 80.148 219.696 79.844 220.6 79.844C221.192 79.844 221.724 79.988 222.196 80.276C222.668 80.556 223.02 80.936 223.252 81.416L222.376 81.92C222.224 81.6 221.988 81.344 221.668 81.152C221.356 80.96 221 80.864 220.6 80.864C220 80.864 219.496 81.068 219.088 81.476C218.688 81.884 218.488 82.392 218.488 83C218.488 83.6 218.688 84.104 219.088 84.512C219.496 84.92 220 85.124 220.6 85.124C221 85.124 221.36 85.032 221.68 84.848C222 84.656 222.244 84.4 222.412 84.08L223.3 84.596C223.044 85.068 222.676 85.448 222.196 85.736C221.716 86.016 221.184 86.156 220.6 86.156ZM227.069 86.156C226.165 86.156 225.413 85.856 224.813 85.256C224.213 84.648 223.913 83.896 223.913 83C223.913 82.104 224.213 81.356 224.813 80.756C225.413 80.148 226.165 79.844 227.069 79.844C227.661 79.844 228.193 79.988 228.665 80.276C229.137 80.556 229.489 80.936 229.721 81.416L228.845 81.92C228.693 81.6 228.457 81.344 228.137 81.152C227.825 80.96 227.469 80.864 227.069 80.864C226.469 80.864 225.965 81.068 225.557 81.476C225.157 81.884 224.957 82.392 224.957 83C224.957 83.6 225.157 84.104 225.557 84.512C225.965 84.92 226.469 85.124 227.069 85.124C227.469 85.124 227.829 85.032 228.149 84.848C228.469 84.656 228.713 84.4 228.881 84.08L229.769 84.596C229.513 85.068 229.145 85.448 228.665 85.736C228.185 86.016 227.653 86.156 227.069 86.156ZM235.782 85.244C235.166 85.852 234.418 86.156 233.538 86.156C232.658 86.156 231.91 85.852 231.294 85.244C230.686 84.636 230.382 83.888 230.382 83C230.382 82.112 230.686 81.364 231.294 80.756C231.91 80.148 232.658 79.844 233.538 79.844C234.418 79.844 235.166 80.148 235.782 80.756C236.398 81.364 236.706 82.112 236.706 83C236.706 83.888 236.398 84.636 235.782 85.244ZM233.538 85.136C234.138 85.136 234.642 84.932 235.05 84.524C235.458 84.116 235.662 83.608 235.662 83C235.662 82.392 235.458 81.884 235.05 81.476C234.642 81.068 234.138 80.864 233.538 80.864C232.946 80.864 232.446 81.068 232.038 81.476C231.63 81.884 231.426 82.392 231.426 83C231.426 83.608 231.63 84.116 232.038 84.524C232.446 84.932 232.946 85.136 233.538 85.136ZM242.077 80H243.121V86H242.077V85.136C241.653 85.816 241.005 86.156 240.133 86.156C239.429 86.156 238.865 85.936 238.441 85.496C238.017 85.048 237.805 84.444 237.805 83.684V80H238.849V83.624C238.849 84.112 238.981 84.492 239.245 84.764C239.509 85.028 239.873 85.16 240.337 85.16C240.857 85.16 241.277 85 241.597 84.68C241.917 84.352 242.077 83.852 242.077 83.18V80ZM247.698 79.844C248.402 79.844 248.966 80.068 249.39 80.516C249.814 80.956 250.026 81.556 250.026 82.316V86H248.982V82.376C248.982 81.888 248.85 81.512 248.586 81.248C248.322 80.976 247.958 80.84 247.494 80.84C246.974 80.84 246.554 81.004 246.234 81.332C245.914 81.652 245.754 82.148 245.754 82.82V86H244.71V80H245.754V80.864C246.178 80.184 246.826 79.844 247.698 79.844ZM254.747 81.008H253.151V84.26C253.151 84.556 253.207 84.768 253.319 84.896C253.439 85.016 253.619 85.08 253.859 85.088C254.099 85.088 254.395 85.08 254.747 85.064V86C253.835 86.12 253.167 86.048 252.743 85.784C252.319 85.512 252.107 85.004 252.107 84.26V81.008H250.919V80H252.107V78.632L253.151 78.32V80H254.747V81.008Z" fill="white"/>
<path d="M139.904 18.8L136.064 25.632V30H133.872V25.632L130.048 18.8H132.544L134.976 23.472L137.408 18.8H139.904ZM146.104 29.008C145.282 29.8187 144.28 30.224 143.096 30.224C141.912 30.224 140.909 29.8187 140.088 29.008C139.277 28.1867 138.872 27.184 138.872 26C138.872 24.816 139.277 23.8187 140.088 23.008C140.909 22.1867 141.912 21.776 143.096 21.776C144.28 21.776 145.282 22.1867 146.104 23.008C146.925 23.8187 147.336 24.816 147.336 26C147.336 27.184 146.925 28.1867 146.104 29.008ZM141.544 27.584C141.96 28 142.477 28.208 143.096 28.208C143.714 28.208 144.232 28 144.648 27.584C145.064 27.168 145.272 26.64 145.272 26C145.272 25.36 145.064 24.832 144.648 24.416C144.232 24 143.714 23.792 143.096 23.792C142.477 23.792 141.96 24 141.544 24.416C141.138 24.832 140.936 25.36 140.936 26C140.936 26.64 141.138 27.168 141.544 27.584ZM154.068 22H156.132V30H154.068V29.104C153.566 29.8507 152.772 30.224 151.684 30.224C150.809 30.224 150.084 29.9307 149.508 29.344C148.942 28.7573 148.66 27.9467 148.66 26.912V22H150.724V26.656C150.724 27.1893 150.868 27.6 151.156 27.888C151.444 28.1653 151.828 28.304 152.308 28.304C152.841 28.304 153.268 28.1387 153.588 27.808C153.908 27.4773 154.068 26.9813 154.068 26.32V22ZM160.086 23.376C160.278 22.864 160.593 22.48 161.03 22.224C161.478 21.968 161.974 21.84 162.518 21.84V24.144C161.889 24.0693 161.323 24.1973 160.822 24.528C160.331 24.8587 160.086 25.408 160.086 26.176V30H158.022V22H160.086V23.376ZM167.725 30V18.32H169.789V30H167.725ZM178.494 29.008C177.673 29.8187 176.67 30.224 175.486 30.224C174.302 30.224 173.3 29.8187 172.478 29.008C171.668 28.1867 171.262 27.184 171.262 26C171.262 24.816 171.668 23.8187 172.478 23.008C173.3 22.1867 174.302 21.776 175.486 21.776C176.67 21.776 177.673 22.1867 178.494 23.008C179.316 23.8187 179.726 24.816 179.726 26C179.726 27.184 179.316 28.1867 178.494 29.008ZM173.934 27.584C174.35 28 174.868 28.208 175.486 28.208C176.105 28.208 176.622 28 177.038 27.584C177.454 27.168 177.662 26.64 177.662 26C177.662 25.36 177.454 24.832 177.038 24.416C176.622 24 176.105 23.792 175.486 23.792C174.868 23.792 174.35 24 173.934 24.416C173.529 24.832 173.326 25.36 173.326 26C173.326 26.64 173.529 27.168 173.934 27.584ZM187.258 22H189.322V30H187.258V29.056C186.64 29.8347 185.77 30.224 184.65 30.224C183.584 30.224 182.666 29.8187 181.898 29.008C181.141 28.1867 180.762 27.184 180.762 26C180.762 24.816 181.141 23.8187 181.898 23.008C182.666 22.1867 183.584 21.776 184.65 21.776C185.77 21.776 186.64 22.1653 187.258 22.944V22ZM183.45 27.632C183.866 28.048 184.394 28.256 185.034 28.256C185.674 28.256 186.202 28.048 186.618 27.632C187.045 27.2053 187.258 26.6613 187.258 26C187.258 25.3387 187.045 24.8 186.618 24.384C186.202 23.9573 185.674 23.744 185.034 23.744C184.394 23.744 183.866 23.9573 183.45 24.384C183.034 24.8 182.826 25.3387 182.826 26C182.826 26.6613 183.034 27.2053 183.45 27.632ZM195.642 21.776C196.517 21.776 197.237 22.0693 197.802 22.656C198.378 23.2427 198.666 24.0533 198.666 25.088V30H196.602V25.344C196.602 24.8107 196.458 24.4053 196.17 24.128C195.882 23.84 195.498 23.696 195.018 23.696C194.485 23.696 194.058 23.8613 193.738 24.192C193.418 24.5227 193.258 25.0187 193.258 25.68V30H191.194V22H193.258V22.896C193.759 22.1493 194.554 21.776 195.642 21.776ZM210.508 22H212.572V30H210.508V29.056C209.89 29.8347 209.02 30.224 207.9 30.224C206.834 30.224 205.916 29.8187 205.148 29.008C204.391 28.1867 204.012 27.184 204.012 26C204.012 24.816 204.391 23.8187 205.148 23.008C205.916 22.1867 206.834 21.776 207.9 21.776C209.02 21.776 209.89 22.1653 210.508 22.944V22ZM206.7 27.632C207.116 28.048 207.644 28.256 208.284 28.256C208.924 28.256 209.452 28.048 209.868 27.632C210.295 27.2053 210.508 26.6613 210.508 26C210.508 25.3387 210.295 24.8 209.868 24.384C209.452 23.9573 208.924 23.744 208.284 23.744C207.644 23.744 207.116 23.9573 206.7 24.384C206.284 24.8 206.076 25.3387 206.076 26C206.076 26.6613 206.284 27.2053 206.7 27.632ZM219.1 21.776C220.177 21.776 221.095 22.1867 221.852 23.008C222.62 23.8187 223.004 24.816 223.004 26C223.004 27.184 222.62 28.1867 221.852 29.008C221.095 29.8187 220.177 30.224 219.1 30.224C217.98 30.224 217.116 29.8347 216.508 29.056V33.2H214.444V22H216.508V22.944C217.116 22.1653 217.98 21.776 219.1 21.776ZM217.132 27.632C217.548 28.048 218.076 28.256 218.716 28.256C219.356 28.256 219.884 28.048 220.3 27.632C220.727 27.2053 220.94 26.6613 220.94 26C220.94 25.3387 220.727 24.8 220.3 24.384C219.884 23.9573 219.356 23.744 218.716 23.744C218.076 23.744 217.548 23.9573 217.132 24.384C216.716 24.8 216.508 25.3387 216.508 26C216.508 26.6613 216.716 27.2053 217.132 27.632ZM229.116 21.776C230.193 21.776 231.11 22.1867 231.868 23.008C232.636 23.8187 233.02 24.816 233.02 26C233.02 27.184 232.636 28.1867 231.868 29.008C231.11 29.8187 230.193 30.224 229.116 30.224C227.996 30.224 227.132 29.8347 226.524 29.056V33.2H224.46V22H226.524V22.944C227.132 22.1653 227.996 21.776 229.116 21.776ZM227.148 27.632C227.564 28.048 228.092 28.256 228.732 28.256C229.372 28.256 229.9 28.048 230.316 27.632C230.742 27.2053 230.956 26.6613 230.956 26C230.956 25.3387 230.742 24.8 230.316 24.384C229.9 23.9573 229.372 23.744 228.732 23.744C228.092 23.744 227.564 23.9573 227.148 24.384C226.732 24.8 226.524 25.3387 226.524 26C226.524 26.6613 226.732 27.2053 227.148 27.632ZM234.475 30V18.32H236.539V30H234.475ZM239.452 21.04C239.111 21.04 238.812 20.9173 238.556 20.672C238.311 20.416 238.188 20.1173 238.188 19.776C238.188 19.4347 238.311 19.136 238.556 18.88C238.812 18.624 239.111 18.496 239.452 18.496C239.804 18.496 240.103 18.624 240.348 18.88C240.604 19.136 240.732 19.4347 240.732 19.776C240.732 20.1173 240.604 20.416 240.348 20.672C240.103 20.9173 239.804 21.04 239.452 21.04ZM238.428 30V22H240.492V30H238.428ZM246.19 30.224C244.984 30.224 243.976 29.8187 243.166 29.008C242.366 28.1973 241.965 27.1947 241.965 26C241.965 24.8053 242.366 23.8027 243.166 22.992C243.976 22.1813 244.984 21.776 246.19 21.776C246.968 21.776 247.678 21.9627 248.318 22.336C248.958 22.7093 249.443 23.2107 249.774 23.84L247.998 24.88C247.838 24.5493 247.592 24.288 247.262 24.096C246.942 23.904 246.579 23.808 246.174 23.808C245.555 23.808 245.043 24.016 244.638 24.432C244.232 24.8373 244.03 25.36 244.03 26C244.03 26.6293 244.232 27.152 244.638 27.568C245.043 27.9733 245.555 28.176 246.174 28.176C246.59 28.176 246.958 28.0853 247.278 27.904C247.608 27.712 247.854 27.4507 248.014 27.12L249.806 28.144C249.454 28.7733 248.958 29.28 248.318 29.664C247.678 30.0373 246.968 30.224 246.19 30.224ZM256.852 22H258.916V30H256.852V29.056C256.233 29.8347 255.364 30.224 254.244 30.224C253.177 30.224 252.26 29.8187 251.492 29.008C250.735 28.1867 250.356 27.184 250.356 26C250.356 24.816 250.735 23.8187 251.492 23.008C252.26 22.1867 253.177 21.776 254.244 21.776C255.364 21.776 256.233 22.1653 256.852 22.944V22ZM253.044 27.632C253.46 28.048 253.988 28.256 254.628 28.256C255.268 28.256 255.796 28.048 256.212 27.632C256.639 27.2053 256.852 26.6613 256.852 26C256.852 25.3387 256.639 24.8 256.212 24.384C255.796 23.9573 255.268 23.744 254.628 23.744C253.988 23.744 253.46 23.9573 253.044 24.384C252.628 24.8 252.42 25.3387 252.42 26C252.42 26.6613 252.628 27.2053 253.044 27.632ZM265.364 23.984H263.556V27.312C263.556 27.5893 263.625 27.792 263.764 27.92C263.902 28.048 264.105 28.1227 264.372 28.144C264.638 28.1547 264.969 28.1493 265.364 28.128V30C263.945 30.16 262.942 30.0267 262.356 29.6C261.78 29.1733 261.492 28.4107 261.492 27.312V23.984H260.1V22H261.492V20.384L263.556 19.76V22H265.364V23.984ZM267.843 21.04C267.502 21.04 267.203 20.9173 266.947 20.672C266.702 20.416 266.579 20.1173 266.579 19.776C266.579 19.4347 266.702 19.136 266.947 18.88C267.203 18.624 267.502 18.496 267.843 18.496C268.195 18.496 268.494 18.624 268.739 18.88C268.995 19.136 269.123 19.4347 269.123 19.776C269.123 20.1173 268.995 20.416 268.739 20.672C268.494 20.9173 268.195 21.04 267.843 21.04ZM266.819 30V22H268.883V30H266.819ZM277.588 29.008C276.767 29.8187 275.764 30.224 274.58 30.224C273.396 30.224 272.393 29.8187 271.572 29.008C270.761 28.1867 270.356 27.184 270.356 26C270.356 24.816 270.761 23.8187 271.572 23.008C272.393 22.1867 273.396 21.776 274.58 21.776C275.764 21.776 276.767 22.1867 277.588 23.008C278.409 23.8187 278.82 24.816 278.82 26C278.82 27.184 278.409 28.1867 277.588 29.008ZM273.028 27.584C273.444 28 273.961 28.208 274.58 28.208C275.199 28.208 275.716 28 276.132 27.584C276.548 27.168 276.756 26.64 276.756 26C276.756 25.36 276.548 24.832 276.132 24.416C275.716 24 275.199 23.792 274.58 23.792C273.961 23.792 273.444 24 273.028 24.416C272.623 24.832 272.42 25.36 272.42 26C272.42 26.64 272.623 27.168 273.028 27.584ZM284.72 21.776C285.595 21.776 286.315 22.0693 286.88 22.656C287.456 23.2427 287.744 24.0533 287.744 25.088V30H285.68V25.344C285.68 24.8107 285.536 24.4053 285.248 24.128C284.96 23.84 284.576 23.696 284.096 23.696C283.563 23.696 283.136 23.8613 282.816 24.192C282.496 24.5227 282.336 25.0187 282.336 25.68V30H280.272V22H282.336V22.896C282.837 22.1493 283.632 21.776 284.72 21.776ZM294.531 21.04C294.189 21.04 293.891 20.9173 293.635 20.672C293.389 20.416 293.267 20.1173 293.267 19.776C293.267 19.4347 293.389 19.136 293.635 18.88C293.891 18.624 294.189 18.496 294.531 18.496C294.883 18.496 295.181 18.624 295.427 18.88C295.683 19.136 295.811 19.4347 295.811 19.776C295.811 20.1173 295.683 20.416 295.427 20.672C295.181 20.9173 294.883 21.04 294.531 21.04ZM293.507 30V22H295.571V30H293.507ZM299.301 24.272C299.301 24.4853 299.44 24.6613 299.717 24.8C300.005 24.928 300.352 25.0453 300.757 25.152C301.162 25.248 301.568 25.376 301.973 25.536C302.378 25.6853 302.72 25.9413 302.997 26.304C303.285 26.6667 303.429 27.12 303.429 27.664C303.429 28.4853 303.12 29.12 302.501 29.568C301.893 30.0053 301.13 30.224 300.213 30.224C298.57 30.224 297.45 29.5893 296.853 28.32L298.645 27.312C298.88 28.0053 299.402 28.352 300.213 28.352C300.949 28.352 301.317 28.1227 301.317 27.664C301.317 27.4507 301.173 27.28 300.885 27.152C300.608 27.0133 300.266 26.8907 299.861 26.784C299.456 26.6773 299.05 26.544 298.645 26.384C298.24 26.224 297.893 25.9733 297.605 25.632C297.328 25.28 297.189 24.8427 297.189 24.32C297.189 23.5307 297.477 22.912 298.053 22.464C298.64 22.0053 299.365 21.776 300.229 21.776C300.88 21.776 301.472 21.9253 302.005 22.224C302.538 22.512 302.96 22.928 303.269 23.472L301.509 24.432C301.253 23.888 300.826 23.616 300.229 23.616C299.962 23.616 299.738 23.6747 299.557 23.792C299.386 23.9093 299.301 24.0693 299.301 24.272ZM137.024 42H139.088V50H137.024V49.056C136.405 49.8347 135.536 50.224 134.416 50.224C133.349 50.224 132.432 49.8187 131.664 49.008C130.907 48.1867 130.528 47.184 130.528 46C130.528 44.816 130.907 43.8187 131.664 43.008C132.432 42.1867 133.349 41.776 134.416 41.776C135.536 41.776 136.405 42.1653 137.024 42.944V42ZM133.216 47.632C133.632 48.048 134.16 48.256 134.8 48.256C135.44 48.256 135.968 48.048 136.384 47.632C136.811 47.2053 137.024 46.6613 137.024 46C137.024 45.3387 136.811 44.8 136.384 44.384C135.968 43.9573 135.44 43.744 134.8 43.744C134.16 43.744 133.632 43.9573 133.216 44.384C132.8 44.8 132.592 45.3387 132.592 46C132.592 46.6613 132.8 47.2053 133.216 47.632ZM145.616 41.776C146.693 41.776 147.61 42.1867 148.368 43.008C149.136 43.8187 149.52 44.816 149.52 46C149.52 47.184 149.136 48.1867 148.368 49.008C147.61 49.8187 146.693 50.224 145.616 50.224C144.496 50.224 143.632 49.8347 143.024 49.056V53.2H140.96V42H143.024V42.944C143.632 42.1653 144.496 41.776 145.616 41.776ZM143.648 47.632C144.064 48.048 144.592 48.256 145.232 48.256C145.872 48.256 146.4 48.048 146.816 47.632C147.242 47.2053 147.456 46.6613 147.456 46C147.456 45.3387 147.242 44.8 146.816 44.384C146.4 43.9573 145.872 43.744 145.232 43.744C144.592 43.744 144.064 43.9573 143.648 44.384C143.232 44.8 143.024 45.3387 143.024 46C143.024 46.6613 143.232 47.2053 143.648 47.632ZM155.631 41.776C156.709 41.776 157.626 42.1867 158.383 43.008C159.151 43.8187 159.535 44.816 159.535 46C159.535 47.184 159.151 48.1867 158.383 49.008C157.626 49.8187 156.709 50.224 155.631 50.224C154.511 50.224 153.647 49.8347 153.039 49.056V53.2H150.975V42H153.039V42.944C153.647 42.1653 154.511 41.776 155.631 41.776ZM153.663 47.632C154.079 48.048 154.607 48.256 155.247 48.256C155.887 48.256 156.415 48.048 156.831 47.632C157.258 47.2053 157.471 46.6613 157.471 46C157.471 45.3387 157.258 44.8 156.831 44.384C156.415 43.9573 155.887 43.744 155.247 43.744C154.607 43.744 154.079 43.9573 153.663 44.384C153.247 44.8 153.039 45.3387 153.039 46C153.039 46.6613 153.247 47.2053 153.663 47.632ZM163.055 43.376C163.247 42.864 163.562 42.48 163.999 42.224C164.447 41.968 164.943 41.84 165.487 41.84V44.144C164.858 44.0693 164.292 44.1973 163.791 44.528C163.3 44.8587 163.055 45.408 163.055 46.176V50H160.991V42H163.055V43.376ZM173.213 49.008C172.392 49.8187 171.389 50.224 170.205 50.224C169.021 50.224 168.018 49.8187 167.197 49.008C166.386 48.1867 165.981 47.184 165.981 46C165.981 44.816 166.386 43.8187 167.197 43.008C168.018 42.1867 169.021 41.776 170.205 41.776C171.389 41.776 172.392 42.1867 173.213 43.008C174.034 43.8187 174.445 44.816 174.445 46C174.445 47.184 174.034 48.1867 173.213 49.008ZM168.653 47.584C169.069 48 169.586 48.208 170.205 48.208C170.824 48.208 171.341 48 171.757 47.584C172.173 47.168 172.381 46.64 172.381 46C172.381 45.36 172.173 44.832 171.757 44.416C171.341 44 170.824 43.792 170.205 43.792C169.586 43.792 169.069 44 168.653 44.416C168.248 44.832 168.045 45.36 168.045 46C168.045 46.64 168.248 47.168 168.653 47.584ZM180.849 42H183.121L180.081 50H177.729L174.689 42H176.961L178.897 47.6L180.849 42ZM185.547 46.848C185.825 47.8507 186.577 48.352 187.803 48.352C188.593 48.352 189.19 48.0853 189.595 47.552L191.259 48.512C190.47 49.6533 189.307 50.224 187.771 50.224C186.449 50.224 185.387 49.824 184.587 49.024C183.787 48.224 183.387 47.216 183.387 46C183.387 44.7947 183.782 43.792 184.571 42.992C185.361 42.1813 186.374 41.776 187.611 41.776C188.785 41.776 189.75 42.1813 190.507 42.992C191.275 43.8027 191.659 44.8053 191.659 46C191.659 46.2667 191.633 46.5493 191.579 46.848H185.547ZM185.515 45.248H189.595C189.478 44.704 189.233 44.2987 188.859 44.032C188.497 43.7653 188.081 43.632 187.611 43.632C187.057 43.632 186.598 43.776 186.235 44.064C185.873 44.3413 185.633 44.736 185.515 45.248ZM199.102 38.8H201.166V50H199.102V49.056C198.494 49.8347 197.63 50.224 196.51 50.224C195.432 50.224 194.51 49.8187 193.742 49.008C192.984 48.1867 192.606 47.184 192.606 46C192.606 44.816 192.984 43.8187 193.742 43.008C194.51 42.1867 195.432 41.776 196.51 41.776C197.63 41.776 198.494 42.1653 199.102 42.944V38.8ZM195.294 47.632C195.72 48.048 196.254 48.256 196.894 48.256C197.534 48.256 198.062 48.048 198.478 47.632C198.894 47.2053 199.102 46.6613 199.102 46C199.102 45.3387 198.894 44.8 198.478 44.384C198.062 43.9573 197.534 43.744 196.894 43.744C196.254 43.744 195.72 43.9573 195.294 44.384C194.878 44.8 194.67 45.3387 194.67 46C194.67 46.6613 194.878 47.2053 195.294 47.632Z" fill="white"/>
<g clip-path="url(#clip0)">
<path d="M88.8207 30.0287C85.8332 25.622 83.3547 20.1108 78.5239 17.3872C71.6538 13.5139 65.0494 18.7801 59.4873 22.497C56.5658 24.4478 53.4559 26.4796 49.9162 27.045C44.8536 27.8555 39.7118 25.6145 34.6925 26.9866C26.2108 29.3049 23.8906 39.6149 26.7424 46.9412C30.7005 57.1192 39.5591 68.0511 41.2554 76.3443C42.9518 84.6375 50.868 90.4804 64.4387 86.7108C78.0094 82.9412 77.2554 74.271 89.3183 72.3862C101.381 70.5014 107.224 61.8312 105.151 50.8993C104.131 45.5181 100.825 41.5694 96.5258 38.3992C93.4498 36.1374 90.9581 33.1801 88.8207 30.0287Z" fill="#578CEF"/>
<g opacity="0.7">
<path opacity="0.7" d="M88.8207 30.0287C85.8332 25.622 83.3547 20.1108 78.5239 17.3872C71.6538 13.5139 65.0494 18.7801 59.4873 22.497C56.5658 24.4478 53.4559 26.4796 49.9162 27.045C44.8536 27.8555 39.7118 25.6145 34.6925 26.9866C26.2108 29.3049 23.8906 39.6149 26.7424 46.9412C30.7005 57.1192 39.5591 68.0511 41.2554 76.3443C42.9518 84.6375 50.868 90.4804 64.4387 86.7108C78.0094 82.9412 77.2554 74.271 89.3183 72.3862C101.381 70.5014 107.224 61.8312 105.151 50.8993C104.131 45.5181 100.825 41.5694 96.5258 38.3992C93.4498 36.1374 90.9581 33.1801 88.8207 30.0287Z" fill="white"/>
</g>
<path d="M62.0544 82.8624L39.6062 41.8809L24.0961 47.1301L29.1266 56.9123L28.8081 56.3657L27.8657 56.6786C27.7719 56.71 27.6859 56.7613 27.6138 56.829C27.5417 56.8967 27.4851 56.9793 27.4478 57.0709C27.4106 57.1626 27.3936 57.2612 27.3981 57.3601C27.4025 57.4589 27.4283 57.5556 27.4737 57.6436L29.9541 62.4668C30.1122 62.7752 30.3644 63.0253 30.6741 63.1809C30.9838 63.3364 31.335 63.3893 31.6768 63.332L32.3648 63.217L44.4464 86.7112L62.0544 82.8624Z" fill="#2E353A"/>
<path d="M76.5561 24.1858C76.3149 24.3177 76.0312 24.3484 75.7672 24.2714C75.5033 24.1944 75.2807 24.0159 75.1482 23.7749L74.5733 22.7251L39.6062 41.8805L62.0544 82.8621L97.0234 63.7086L84.8022 41.398C84.6705 41.157 84.6397 40.8736 84.7168 40.6099C84.7938 40.3463 84.9723 40.124 85.2131 39.9919C85.3326 39.9265 85.438 39.8382 85.5233 39.732C85.6086 39.6258 85.6722 39.5038 85.7103 39.3731C85.7485 39.2423 85.7605 39.1053 85.7457 38.9699C85.7309 38.8345 85.6895 38.7034 85.624 38.5839L77.9622 24.5967C77.8301 24.3559 77.6078 24.1774 77.3442 24.1004C77.0806 24.0234 76.7971 24.0541 76.5561 24.1858V24.1858Z" fill="#578CEF" stroke="#2E353A" stroke-width="0.188482" stroke-linecap="round" stroke-linejoin="round"/>
<path d="M78.2957 25.6982L49.8966 35.8218L63.4562 73.8594L91.8552 63.7358L78.2957 25.6982Z" fill="white" stroke="#2E353A" stroke-width="0.188482" stroke-linecap="round" stroke-linejoin="round"/>
<path d="M78.2971 25.6991L49.8981 35.8228L54.8934 49.8359L83.2925 39.7122L78.2971 25.6991Z" fill="white" stroke="#2E353A" stroke-width="0.188482" stroke-linecap="round" stroke-linejoin="round"/>
<path d="M76.0991 40.0956C78.2196 38.7493 78.8473 35.9389 77.5011 33.8183C76.1548 31.6978 73.3444 31.0701 71.2238 32.4164C69.1032 33.7626 68.4755 36.5731 69.8218 38.6936C71.1681 40.8142 73.9785 41.4419 76.0991 40.0956Z" fill="#2E353A" stroke="#2E353A" stroke-width="0.188482" stroke-linecap="round" stroke-linejoin="round"/>
<path d="M75.1877 40.546C75.8182 40.322 76.3913 39.9613 76.8661 39.4898C77.3409 39.0183 77.7055 38.4476 77.9339 37.8187C77.1442 36.0508 75.2141 35.1291 73.4763 35.7454C71.7385 36.3618 70.8281 38.3012 71.3352 40.1691C71.9099 40.5119 72.5532 40.7235 73.2193 40.7887C73.8853 40.8539 74.5575 40.771 75.1877 40.546Z" fill="white" stroke="#2E353A" stroke-width="0.188482" stroke-linecap="round" stroke-linejoin="round"/>
<path d="M74.8832 37.1392C75.8373 36.2963 75.9274 34.8396 75.0845 33.8855C74.2416 32.9314 72.7849 32.8413 71.8308 33.6842C70.8767 34.5271 70.7866 35.9839 71.6295 36.938C72.4724 37.892 73.9291 37.9822 74.8832 37.1392Z" fill="white" stroke="#2E353A" stroke-width="0.188482" stroke-linecap="round" stroke-linejoin="round"/>
<path d="M64.1119 36.3775L54.1733 39.9204L54.5803 41.062L64.5189 37.5191L64.1119 36.3775Z" fill="white" stroke="#2E353A" stroke-width="0.188482" stroke-linecap="round" stroke-linejoin="round"/>
<path d="M65.0909 39.1207L55.1523 42.6636L55.5593 43.8051L65.4979 40.2623L65.0909 39.1207Z" fill="white" stroke="#2E353A" stroke-width="0.188482" stroke-linecap="round" stroke-linejoin="round"/>
<path d="M65.9033 41.4029L55.9647 44.9458L56.1685 45.5175L66.1071 41.9746L65.9033 41.4029Z" fill="#2E353A"/>
<path d="M66.3923 42.775L56.4537 46.3179L56.6575 46.8895L66.5961 43.3467L66.3923 42.775Z" fill="#2E353A"/>
<path d="M68.8763 49.7437L58.9377 53.2866L59.1415 53.8583L69.0801 50.3154L68.8763 49.7437Z" fill="#2E353A"/>
<path d="M69.3234 51.0011L59.3848 54.5439L59.5886 55.1156L69.5272 51.5727L69.3234 51.0011Z" fill="#2E353A"/>
<path d="M69.7722 52.2574L59.8336 55.8003L60.0374 56.372L69.976 52.8291L69.7722 52.2574Z" fill="#2E353A"/>
<path d="M82.3562 44.9376L72.4176 48.4805L72.6214 49.0521L82.56 45.5093L82.3562 44.9376Z" fill="#2E353A"/>
<path d="M82.8051 46.1954L72.8665 49.7383L73.0702 50.31L83.0088 46.7671L82.8051 46.1954Z" fill="#2E353A"/>
<path d="M83.2522 47.4517L73.3136 50.9946L73.5174 51.5663L83.456 48.0234L83.2522 47.4517Z" fill="#2E353A"/>
<path d="M58.2998 52.2302L82.2916 43.6807" stroke="#2E353A" stroke-width="0.188482" stroke-linecap="round" stroke-linejoin="round"/>
<path d="M71.1976 56.2555L61.259 59.7983L61.4628 60.37L71.4014 56.8271L71.1976 56.2555Z" fill="#2E353A"/>
<path d="M71.6448 57.5133L61.7062 61.0562L61.91 61.6278L71.8486 58.0849L71.6448 57.5133Z" fill="#2E353A"/>
<path d="M72.0936 58.7691L62.155 62.312L62.3588 62.8837L72.2974 59.3408L72.0936 58.7691Z" fill="#2E353A"/>
<path d="M84.6776 51.4493L74.739 54.9922L74.9428 55.5639L84.8814 52.021L84.6776 51.4493Z" fill="#2E353A"/>
<path d="M85.1265 52.7076L75.1879 56.2505L75.3917 56.8222L85.3303 53.2793L85.1265 52.7076Z" fill="#2E353A"/>
<path d="M85.5736 53.9639L75.635 57.5068L75.8388 58.0785L85.7774 54.5356L85.5736 53.9639Z" fill="#2E353A"/>
<path d="M60.62 58.7419L84.6118 50.1924" stroke="#2E353A" stroke-width="0.188482" stroke-linecap="round" stroke-linejoin="round"/>
<path d="M86.4691 56.4752L62.9346 64.8647L64.9706 70.5762L88.5051 62.1866L86.4691 56.4752Z" fill="#2E353A" stroke="#2E353A" stroke-width="0.188482" stroke-linecap="round" stroke-linejoin="round"/>
<path d="M74.5784 28.0521L46.869 39.9341L62.7837 77.048L90.4932 65.166L74.5784 28.0521Z" fill="white" stroke="#2E353A" stroke-width="0.188482" stroke-linecap="round" stroke-linejoin="round"/>
<path d="M74.5798 28.0526L46.8704 39.9346L52.7334 53.6074L80.4428 41.7254L74.5798 28.0526Z" fill="white" stroke="#2E353A" stroke-width="0.188482" stroke-linecap="round" stroke-linejoin="round"/>
<path d="M74.4585 41.3119C75.7992 39.1878 75.1641 36.379 73.04 35.0383C70.9159 33.6976 68.1072 34.3326 66.7665 36.4567C65.4257 38.5808 66.0608 41.3896 68.1849 42.7303C70.309 44.071 73.1177 43.436 74.4585 41.3119Z" fill="#2E353A" stroke="#2E353A" stroke-width="0.188482" stroke-linecap="round" stroke-linejoin="round"/>
<path d="M72.4057 43.0663C73.0209 42.8029 73.5702 42.4068 74.0143 41.9063C74.4585 41.4058 74.7864 40.8133 74.9747 40.1712C74.0776 38.4579 72.0929 37.6569 70.3984 38.3844C68.704 39.1119 67.9161 41.1004 68.5381 42.9325C69.1331 43.2382 69.7884 43.4087 70.457 43.4319C71.1255 43.455 71.791 43.3302 72.4057 43.0663V43.0663Z" fill="white" stroke="#2E353A" stroke-width="0.188482" stroke-linecap="round" stroke-linejoin="round"/>
<path d="M71.8283 39.7378C72.7592 38.8694 72.8099 37.4107 71.9415 36.4798C71.0731 35.5488 69.6144 35.4982 68.6835 36.3666C67.7526 37.235 67.7019 38.6936 68.5703 39.6246C69.4387 40.5555 70.8974 40.6062 71.8283 39.7378Z" fill="white" stroke="#2E353A" stroke-width="0.188482" stroke-linecap="round" stroke-linejoin="round"/>
<path d="M61.0903 39.6005L51.3931 43.7588L51.8707 44.8726L61.568 40.7144L61.0903 39.6005Z" fill="white" stroke="#2E353A" stroke-width="0.188482" stroke-linecap="round" stroke-linejoin="round"/>
<path d="M62.238 42.2749L52.5408 46.4331L53.0184 47.547L62.7157 43.3887L62.238 42.2749Z" fill="white" stroke="#2E353A" stroke-width="0.188482" stroke-linecap="round" stroke-linejoin="round"/>
<path d="M63.1946 44.5034L53.4973 48.6616L53.7365 49.2194L63.4338 45.0612L63.1946 44.5034Z" fill="#2E353A"/>
<path d="M63.7678 45.8413L54.0706 49.9995L54.3097 50.5573L64.007 46.399L63.7678 45.8413Z" fill="#2E353A"/>
<path d="M66.6843 52.6406L56.9871 56.7988L57.2262 57.3566L66.9235 53.1984L66.6843 52.6406Z" fill="#2E353A"/>
<path d="M67.2101 53.8666L57.5128 58.0249L57.752 58.5827L67.4493 54.4244L67.2101 53.8666Z" fill="#2E353A"/>
<path d="M67.7341 55.0947L58.0369 59.2529L58.2761 59.8107L67.9733 55.6525L67.7341 55.0947Z" fill="#2E353A"/>
<path d="M79.8357 47.0029L70.1384 51.1611L70.3776 51.7189L80.0749 47.5607L79.8357 47.0029Z" fill="#2E353A"/>
<path d="M80.3607 48.227L70.6635 52.3853L70.9026 52.943L80.5999 48.7848L80.3607 48.227Z" fill="#2E353A"/>
<path d="M80.8883 49.455L71.191 53.6133L71.4302 54.1711L81.1275 50.0128L80.8883 49.455Z" fill="#2E353A"/>
<path d="M56.2831 55.7852L79.6925 45.7485" stroke="#2E353A" stroke-width="0.188482" stroke-linecap="round" stroke-linejoin="round"/>
<path d="M69.4078 58.9951L59.7106 63.1533L59.9498 63.7111L69.647 59.5529L69.4078 58.9951Z" fill="#2E353A"/>
<path d="M69.9348 60.2192L60.2375 64.3774L60.4767 64.9352L70.174 60.777L69.9348 60.2192Z" fill="#2E353A"/>
<path d="M70.4604 61.4472L60.7632 65.6055L61.0024 66.1633L70.6996 62.005L70.4604 61.4472Z" fill="#2E353A"/>
<path d="M82.562 53.3554L72.8647 57.5137L73.1039 58.0715L82.8012 53.9132L82.562 53.3554Z" fill="#2E353A"/>
<path d="M83.087 54.58L73.3898 58.7383L73.629 59.2961L83.3262 55.1378L83.087 54.58Z" fill="#2E353A"/>
<path d="M83.6111 55.8081L73.9138 59.9663L74.153 60.5241L83.8503 56.3658L83.6111 55.8081Z" fill="#2E353A"/>
<path d="M59.0067 62.1387L82.4161 52.1021" stroke="#2E353A" stroke-width="0.188482" stroke-linecap="round" stroke-linejoin="round"/>
<path d="M84.6637 58.2583L61.7007 68.105L64.0903 73.6777L87.0533 63.831L84.6637 58.2583Z" fill="#2E353A" stroke="#2E353A" stroke-width="0.188482" stroke-linecap="round" stroke-linejoin="round"/>
<path d="M68.2419 27.8069L42.9535 44.2231L64.9413 78.0943L90.2297 61.6782L68.2419 27.8069Z" fill="white" stroke="#2E353A" stroke-width="0.188482" stroke-linecap="round" stroke-linejoin="round"/>
<path d="M68.243 27.8084L42.9546 44.2246L51.0549 56.7028L76.3433 40.2866L68.243 27.8084Z" fill="white" stroke="#2E353A" stroke-width="0.188482" stroke-linecap="round" stroke-linejoin="round"/>
<path d="M66.9009 43.64C69.3802 43.2371 71.0635 40.9006 70.6606 38.4213C70.2577 35.942 67.9212 34.2587 65.4419 34.6616C62.9626 35.0645 61.2794 37.401 61.6823 39.8803C62.0852 42.3596 64.4216 44.0429 66.9009 43.64Z" fill="#2E353A" stroke="#2E353A" stroke-width="0.188482" stroke-linecap="round" stroke-linejoin="round"/>
<path d="M68.6512 42.9535C69.2127 42.5895 69.6869 42.106 70.0398 41.5374C70.3927 40.9688 70.6156 40.3292 70.6924 39.6645C69.5163 38.1265 67.4241 37.6779 65.8786 38.6806C64.333 39.6833 63.892 41.7792 64.8174 43.4793C65.4557 43.6799 66.1304 43.7368 66.7932 43.6458C67.456 43.5549 68.0905 43.3185 68.6512 42.9535V42.9535Z" fill="#578CEF" stroke="#2E353A" stroke-width="0.188482" stroke-linecap="round" stroke-linejoin="round"/>
<path d="M67.1752 40.1414C68.1442 39.3157 68.2605 37.8608 67.4349 36.8918C66.6093 35.9227 65.1544 35.8064 64.1853 36.632C63.2163 37.4577 63.1 38.9125 63.9256 39.8816C64.7512 40.8507 66.2061 40.967 67.1752 40.1414Z" fill="white" stroke="#2E353A" stroke-width="0.188482" stroke-linecap="round" stroke-linejoin="round"/>
<path d="M56.9105 41.4781L48.0605 47.2231L48.7204 48.2397L57.5704 42.4946L56.9105 41.4781Z" fill="white" stroke="#2E353A" stroke-width="0.188482" stroke-linecap="round" stroke-linejoin="round"/>
<path d="M58.4946 43.9195L49.6447 49.6646L50.3045 50.6811L59.1545 44.936L58.4946 43.9195Z" fill="white" stroke="#2E353A" stroke-width="0.188482" stroke-linecap="round" stroke-linejoin="round"/>
<path d="M59.6571 46.2042L50.7941 51.9019L51.1218 52.4117L59.9848 46.714L59.6571 46.2042Z" fill="#2E353A"/>
<path d="M60.609 47.1729L51.759 52.918L52.0895 53.427L60.9395 47.682L60.609 47.1729Z" fill="#2E353A"/>
<path d="M64.6383 53.378L55.7883 59.123L56.1188 59.6321L64.9688 53.8871L64.6383 53.378Z" fill="#2E353A"/>
<path d="M65.3646 54.4986L56.5146 60.2437L56.8451 60.7527L65.6951 55.0077L65.3646 54.4986Z" fill="#2E353A"/>
<path d="M66.0911 55.6197L57.2411 61.3647L57.5715 61.8738L66.4215 56.1287L66.0911 55.6197Z" fill="#2E353A"/>
<path d="M76.6422 45.585L67.7922 51.3301L68.1227 51.8391L76.9727 46.0941L76.6422 45.585Z" fill="#2E353A"/>
<path d="M77.3702 46.7051L68.5203 52.4502L68.8507 52.9592L77.7007 47.2142L77.3702 46.7051Z" fill="#2E353A"/>
<path d="M78.0964 47.8257L69.2465 53.5708L69.5769 54.0799L78.4269 48.3348L78.0964 47.8257Z" fill="#2E353A"/>
<path d="M54.926 58.2351L76.2885 44.3647" stroke="#2E353A" stroke-width="0.188482" stroke-linecap="round" stroke-linejoin="round"/>
<path d="M68.4031 59.1788L59.5531 64.9238L59.8836 65.4329L68.7335 59.6878L68.4031 59.1788Z" fill="#2E353A"/>
<path d="M69.1284 60.2974L60.2784 66.0425L60.6089 66.5515L69.4589 60.8065L69.1284 60.2974Z" fill="#2E353A"/>
<path d="M69.8563 61.4156L61.0063 67.1606L61.3368 67.6697L70.1868 61.9246L69.8563 61.4156Z" fill="#2E353A"/>
<path d="M80.407 51.3858L71.557 57.1309L71.8875 57.6399L80.7375 51.8949L80.407 51.3858Z" fill="#2E353A"/>
<path d="M81.1339 52.504L72.2839 58.249L72.6144 58.7581L81.4644 53.013L81.1339 52.504Z" fill="#2E353A"/>
<path d="M81.8584 53.6246L73.0084 59.3696L73.3389 59.8787L82.1889 54.1336L81.8584 53.6246Z" fill="#2E353A"/>
<path d="M58.6899 64.033L80.0525 50.1646" stroke="#2E353A" stroke-width="0.188482" stroke-linecap="round" stroke-linejoin="round"/>
<path d="M83.3145 55.8621L62.3578 69.4663L65.6593 74.5521L86.616 60.9479L83.3145 55.8621Z" fill="#2E353A" stroke="#2E353A" stroke-width="0.188482" stroke-linecap="round" stroke-linejoin="round"/>
<path d="M39.6062 41.8807L26.2014 31.5029L34.178 46.4665C34.3664 46.8284 33.867 46.8962 33.3581 46.5758C32.8435 46.2535 32.3365 46.3251 32.5382 46.6908L36.6753 54.2112C36.7411 54.3184 36.8276 54.4113 36.9298 54.4845L38.9503 56.0074C39.0554 56.0816 39.1435 56.1773 39.2085 56.2883L47.579 72.1867L62.0563 82.8623L39.6062 41.8807Z" fill="#578CEF" stroke="#2E353A" stroke-width="0.188482" stroke-linecap="round" stroke-linejoin="round"/>
<path opacity="0.25" d="M39.6062 41.8807L26.2014 31.5029L34.178 46.4665C34.3664 46.8284 33.867 46.8962 33.3581 46.5758C32.8435 46.2535 32.3365 46.3251 32.5382 46.6908L36.6753 54.2112C36.7411 54.3184 36.8276 54.4113 36.9298 54.4845L38.9503 56.0074C39.0554 56.0816 39.1435 56.1773 39.2085 56.2883L47.579 72.1867L62.0563 82.8623L39.6062 41.8807Z" fill="#2E353A" stroke="#2E353A" stroke-width="0.188482" stroke-linecap="round" stroke-linejoin="round"/>
<path d="M110.678 74.1498C111.369 73.4004 111.975 72.5765 112.485 71.6934" stroke="#2E353A" stroke-width="0.110251" stroke-linecap="round" stroke-linejoin="round"/>
<path d="M101.747 78.5081C104.925 78.2506 107.912 76.8871 110.188 74.6548" stroke="#2E353A" stroke-width="0.110251" stroke-linecap="round" stroke-linejoin="round"/>
<path d="M98.5988 78.4053C99.0409 78.4717 99.4862 78.5159 99.9328 78.5376" stroke="#2E353A" stroke-width="0.110251" stroke-linecap="round" stroke-linejoin="round"/>
<path d="M94.4279 76.832C94.7108 76.979 94.9979 77.1161 95.2889 77.2433" stroke="#2E353A" stroke-width="0.110251" stroke-linecap="round" stroke-linejoin="round"/>
<path d="M87.1414 65.9307C87.3358 68.0745 88.0323 70.1423 89.1744 71.9669C90.3166 73.7915 91.8723 75.3216 93.7156 76.4332" stroke="#2E353A" stroke-width="0.110251" stroke-linecap="round" stroke-linejoin="round"/>
<path d="M108.327 53.6795C106.381 52.3333 104.119 51.514 101.762 51.3015C99.4045 51.0889 97.0325 51.4904 94.8766 52.4667" stroke="#2E353A" stroke-width="0.110251" stroke-linecap="round" stroke-linejoin="round"/>
<path d="M113.152 59.3628C113.016 59.0541 112.869 58.752 112.711 58.4565" stroke="#2E353A" stroke-width="0.110251" stroke-linecap="round" stroke-linejoin="round"/>
<path d="M107.875 74.3845C108.613 73.8366 109.287 73.208 109.885 72.5103" stroke="#2E353A" stroke-width="0.110251" stroke-linecap="round" stroke-linejoin="round"/>
<path d="M99.2316 76.7648C102.092 77.0646 104.968 76.3518 107.357 74.7505" stroke="#2E353A" stroke-width="0.110251" stroke-linecap="round" stroke-linejoin="round"/>
<path d="M96.4553 76.1509C96.8331 76.281 97.2201 76.3938 97.6163 76.4894" stroke="#2E353A" stroke-width="0.110251" stroke-linecap="round" stroke-linejoin="round"/>
<path d="M88.676 68.0327C88.7591 68.3083 88.8513 68.5803 88.9528 68.8486" stroke="#2E353A" stroke-width="0.110251" stroke-linecap="round" stroke-linejoin="round"/>
<path d="M91.1248 56.46C89.863 57.9362 88.9666 59.6887 88.5081 61.5758C88.0495 63.4628 88.0418 65.4313 88.4854 67.3219" stroke="#2E353A" stroke-width="0.110251" stroke-linecap="round" stroke-linejoin="round"/>
<path d="M105.704 53.2934C103.767 52.3956 101.63 52.0151 99.5016 52.189C97.3733 52.3629 95.3263 53.0853 93.5603 54.2857" stroke="#2E353A" stroke-width="0.110251" stroke-linecap="round" stroke-linejoin="round"/>
<path d="M111.991 59.9768C110.979 57.407 109.137 55.2491 106.758 53.8457" stroke="#2E353A" stroke-width="0.110251" stroke-linecap="round" stroke-linejoin="round"/>
<path d="M112.523 61.6836C112.455 61.3871 112.375 61.0949 112.284 60.8071" stroke="#2E353A" stroke-width="0.110251" stroke-linecap="round" stroke-linejoin="round"/>
<path d="M112.016 64.6176C112.016 64.4721 112.146 64.3243 112.141 64.1766C112.135 64.0289 111.994 63.8933 111.984 63.7499C111.974 63.6066 112.094 63.4478 112.077 63.3089C112.059 63.17 111.909 63.0377 111.888 62.8944C111.867 62.7511 111.974 62.5857 111.947 62.4435C111.919 62.3012 111.76 62.1855 111.726 62.0443C111.692 61.9032 111.788 61.7301 111.752 61.5901C111.715 61.4501 111.545 61.3476 111.502 61.2086C111.459 61.0697 111.541 60.89 111.494 60.7544C111.446 60.6188 111.273 60.5273 111.217 60.3928C111.161 60.2583 111.231 60.0719 111.174 59.9396C111.117 59.8073 110.934 59.7302 110.871 59.6001C110.808 59.47 110.861 59.2792 110.794 59.1513C110.726 59.0235 110.539 58.9617 110.463 58.836C110.387 58.7103 110.43 58.5174 110.353 58.395C110.275 58.2726 110.084 58.2241 110.002 58.1051C109.92 57.986 109.945 57.7897 109.859 57.6729C109.773 57.556 109.579 57.5229 109.488 57.4094C109.398 57.2958 109.408 57.0996 109.313 56.9893C109.218 56.8791 109.022 56.8603 108.924 56.7545C108.826 56.6486 108.82 56.4513 108.717 56.3488C108.615 56.2462 108.418 56.2385 108.312 56.1426C108.206 56.0467 108.186 55.8482 108.077 55.7534C107.968 55.6586 107.769 55.6685 107.657 55.5781C107.544 55.4877 107.509 55.2937 107.393 55.2077C107.278 55.1217 107.081 55.1459 106.961 55.0643C106.841 54.9827 106.794 54.7909 106.67 54.7137C106.547 54.6366 106.355 54.6763 106.229 54.6035C106.103 54.5307 106.042 54.3444 105.914 54.2727C105.786 54.2011 105.595 54.2584 105.465 54.1956C105.335 54.1327 105.259 53.9508 105.126 53.8924C104.992 53.8339 104.808 53.9023 104.672 53.8494C104.537 53.7964 104.452 53.6211 104.311 53.5726C104.17 53.5241 103.995 53.6068 103.857 53.5638C103.718 53.5208 103.615 53.3532 103.475 53.3158C103.335 53.2783 103.163 53.3731 103.021 53.34C102.879 53.3069 102.765 53.1482 102.622 53.1195C102.478 53.0908 102.315 53.2 102.171 53.1779C102.026 53.1559 101.902 53.0059 101.757 52.9894C101.613 52.9729 101.456 53.093 101.316 53.082C101.176 53.071 101.034 52.931 100.889 52.9255C100.743 52.9199 100.597 53.0511 100.448 53.0511C100.298 53.0511 100.155 52.9199 100.007 52.9255C99.8577 52.931 99.7232 53.0721 99.5788 53.082C99.4343 53.0919 99.2778 52.9718 99.1378 52.9894C98.9977 53.007 98.8665 53.157 98.7243 53.1779C98.5821 53.1989 98.4156 53.0919 98.2734 53.1195C98.1312 53.1471 98.0154 53.3058 97.8743 53.34C97.7332 53.3742 97.5601 53.2783 97.42 53.3158C97.28 53.3532 97.1764 53.5208 97.0386 53.5638C96.9008 53.6068 96.72 53.5252 96.5832 53.5726C96.4465 53.62 96.3627 53.7931 96.2227 53.8494C96.0827 53.9056 95.9019 53.835 95.7696 53.8924C95.6373 53.9497 95.5601 54.1327 95.43 54.1956C95.2999 54.2584 95.1092 54.2055 94.9813 54.2727C94.8534 54.34 94.7906 54.5274 94.666 54.6035C94.5414 54.6796 94.3462 54.6377 94.225 54.7137C94.1037 54.7898 94.0541 54.9816 93.935 55.0632C93.8159 55.1448 93.6197 55.1206 93.5028 55.2066C93.386 55.2926 93.3529 55.4866 93.2393 55.5781C93.1258 55.6696 92.9295 55.6575 92.8193 55.7523C92.709 55.8471 92.6903 56.0434 92.5844 56.1415C92.4786 56.2396 92.2812 56.2451 92.1787 56.3477C92.0762 56.4502 92.0685 56.6475 91.9725 56.7534C91.8766 56.8592 91.6815 56.8769 91.5867 56.9871C91.4918 57.0974 91.5018 57.2936 91.4114 57.4072C91.321 57.5207 91.1269 57.5538 91.0409 57.6707C90.9549 57.7875 90.9792 57.9827 90.8976 58.1018C90.816 58.2208 90.6242 58.2693 90.547 58.3928C90.4698 58.5163 90.5095 58.7081 90.4367 58.8338C90.364 58.9595 90.1765 59.0213 90.106 59.1502C90.0354 59.2792 90.0916 59.4678 90.0288 59.5979C89.966 59.728 89.784 59.8051 89.7256 59.9374C89.6672 60.0697 89.7355 60.255 89.6826 60.3906C89.6297 60.5262 89.4533 60.6111 89.4059 60.7522C89.3585 60.8933 89.439 61.0675 89.3971 61.2064C89.3552 61.3453 89.1854 61.4479 89.1479 61.5879C89.1104 61.7279 89.2052 61.901 89.1733 62.0421C89.1413 62.1833 88.9814 62.2979 88.9528 62.4412C88.9241 62.5846 89.0343 62.7488 89.0123 62.8922C88.9902 63.0355 88.8403 63.1612 88.8238 63.3067C88.8072 63.4522 88.9274 63.6066 88.9164 63.7477C88.9053 63.8888 88.7642 64.0289 88.7598 64.1744C88.7554 64.3199 88.8844 64.4666 88.8844 64.6154C88.8844 64.7642 88.7543 64.9076 88.7598 65.0564C88.7653 65.2052 88.9064 65.3398 88.9164 65.4842C88.9263 65.6286 88.8061 65.7852 88.8238 65.9252C88.8414 66.0652 88.9913 66.1964 89.0123 66.3386C89.0332 66.4809 88.9263 66.6484 88.9528 66.7907C88.9792 66.9329 89.1402 67.0475 89.1733 67.1887C89.2063 67.3298 89.1104 67.504 89.1479 67.6429C89.1854 67.7818 89.3541 67.8866 89.3971 68.0244C89.4401 68.1622 89.3585 68.343 89.4059 68.4797C89.4533 68.6164 89.6264 68.7057 89.6826 68.8413C89.7388 68.9769 89.6683 69.1611 89.7256 69.2934C89.7829 69.4257 89.966 69.5028 90.0288 69.6329C90.0916 69.763 90.0376 69.9538 90.106 70.0817C90.1743 70.2095 90.3607 70.2724 90.4367 70.3981C90.5128 70.5238 90.4698 70.7167 90.547 70.8391C90.6242 70.9615 90.816 71.01 90.8976 71.129C90.9792 71.2481 90.9549 71.4444 91.0409 71.5612C91.1269 71.6781 91.321 71.7112 91.4114 71.8247C91.5018 71.9383 91.4918 72.1356 91.5867 72.2448C91.6815 72.3539 91.8777 72.3738 91.9758 72.4807C92.074 72.5877 92.0795 72.7839 92.182 72.8864C92.2845 72.989 92.4819 72.9967 92.5877 73.0915C92.6936 73.1863 92.7134 73.387 92.8226 73.4807C92.9317 73.5744 93.1291 73.5656 93.2426 73.656C93.3562 73.7464 93.3904 73.9404 93.5061 74.0264C93.6219 74.1124 93.8181 74.0882 93.9383 74.1698C94.0585 74.2514 94.1059 74.4432 94.2294 74.5204C94.3529 74.5975 94.5447 74.5579 94.6704 74.6306C94.7961 74.7034 94.8578 74.8908 94.9857 74.9614C95.1136 75.0319 95.3032 74.9757 95.4344 75.0386C95.5656 75.1014 95.6406 75.2833 95.774 75.3417C95.9074 75.4002 96.0915 75.3318 96.2271 75.3847C96.3627 75.4377 96.4476 75.6141 96.5888 75.6615C96.7299 75.7089 96.9041 75.6284 97.043 75.6703C97.1819 75.7122 97.2844 75.882 97.4245 75.9195C97.5645 75.9569 97.7365 75.8621 97.8787 75.8941C98.0209 75.9261 98.1345 76.0859 98.2778 76.1146C98.4211 76.1433 98.5843 76.033 98.7287 76.0551C98.8732 76.0771 98.9977 76.2271 99.1422 76.2436C99.2866 76.2601 99.4432 76.14 99.5832 76.151C99.7232 76.162 99.8654 76.3031 100.011 76.3086C100.156 76.3142 100.302 76.183 100.452 76.183C100.602 76.183 100.745 76.3131 100.893 76.3086C101.041 76.3042 101.176 76.162 101.32 76.151C101.463 76.14 101.622 76.2612 101.761 76.2436C101.9 76.226 102.032 76.076 102.175 76.0551C102.319 76.0341 102.484 76.1411 102.626 76.1146C102.768 76.0881 102.884 75.9272 103.025 75.8941C103.166 75.861 103.339 75.9569 103.479 75.9195C103.619 75.882 103.723 75.7133 103.861 75.6703C103.999 75.6273 104.18 75.7089 104.316 75.6615C104.453 75.6141 104.542 75.441 104.677 75.3847C104.811 75.3285 104.998 75.4002 105.13 75.3417C105.262 75.2833 105.339 75.1014 105.469 75.0386C105.6 74.9757 105.79 75.0297 105.918 74.9614C106.046 74.893 106.109 74.7067 106.234 74.6306C106.358 74.5545 106.552 74.5975 106.675 74.5204C106.797 74.4432 106.845 74.2514 106.964 74.1698C107.084 74.0882 107.28 74.1124 107.397 74.0264C107.514 73.9404 107.547 73.7464 107.66 73.656C107.774 73.5656 107.97 73.5755 108.08 73.4807C108.19 73.3859 108.209 73.1896 108.315 73.0915C108.421 72.9934 108.618 72.9879 108.721 72.8853C108.823 72.7828 108.831 72.5866 108.927 72.4796C109.023 72.3727 109.221 72.3539 109.316 72.2448C109.411 72.1356 109.401 71.9383 109.491 71.8247C109.582 71.7112 109.776 71.6781 109.862 71.5612C109.948 71.4444 109.924 71.2492 110.005 71.129C110.087 71.0089 110.279 70.9615 110.356 70.8391C110.433 70.7167 110.393 70.5227 110.466 70.3981C110.539 70.2735 110.725 70.2106 110.797 70.0828C110.868 69.9549 110.811 69.7652 110.874 69.634C110.937 69.5028 111.119 69.4279 111.177 69.2945C111.236 69.1611 111.167 68.9769 111.22 68.8413C111.273 68.7057 111.448 68.6208 111.497 68.4808C111.545 68.3408 111.463 68.1644 111.506 68.0255C111.549 67.8866 111.717 67.7851 111.755 67.644C111.792 67.5029 111.698 67.332 111.73 67.1898C111.762 67.0475 111.921 66.934 111.95 66.7918C111.979 66.6495 111.87 66.4842 111.892 66.3397C111.914 66.1953 112.064 66.0707 112.08 65.9263C112.097 65.7819 111.977 65.6253 111.988 65.4853C111.999 65.3453 112.139 65.203 112.144 65.0575C112.15 64.912 112.016 64.7631 112.016 64.6176Z" fill="#578CEF" stroke="#2E353A" stroke-width="0.220502" stroke-linecap="round" stroke-linejoin="round"/>
<path d="M96.989 53.6089L97.193 54.18" stroke="#2E353A" stroke-width="0.220502" stroke-linecap="round" stroke-linejoin="round"/>
<path d="M96.2129 53.915L96.397 54.3638" stroke="#2E353A" stroke-width="0.220502" stroke-linecap="round" stroke-linejoin="round"/>
<path d="M110.419 58.8545C110.085 59.1405 109.706 59.3683 109.296 59.5281" stroke="#2E353A" stroke-width="0.220502" stroke-linecap="round" stroke-linejoin="round"/>
<path d="M110.827 59.6099C110.675 59.706 110.518 59.7943 110.357 59.8745" stroke="#2E353A" stroke-width="0.220502" stroke-linecap="round" stroke-linejoin="round"/>
<path d="M93.8866 74.1857C93.8866 74.1857 94.3761 73.6345 94.4577 73.2266" stroke="#2E353A" stroke-width="0.220502" stroke-linecap="round" stroke-linejoin="round"/>
<path d="M92.5183 73.0597C92.5183 73.0597 92.9273 72.5503 93.0089 72.4688" stroke="#2E353A" stroke-width="0.220502" stroke-linecap="round" stroke-linejoin="round"/>
<path d="M103.01 75.8354L102.847 74.938" stroke="#2E353A" stroke-width="0.220502" stroke-linecap="round" stroke-linejoin="round"/>
<path d="M103.907 75.6521L103.785 75.1416" stroke="#2E353A" stroke-width="0.220502" stroke-linecap="round" stroke-linejoin="round"/>
<path d="M107.643 73.6316L106.949 72.8555" stroke="#2E353A" stroke-width="0.220502" stroke-linecap="round" stroke-linejoin="round"/>
<path d="M110.908 69.6307L109.867 69.0806" stroke="#2E353A" stroke-width="0.220502" stroke-linecap="round" stroke-linejoin="round"/>
<path d="M88.9672 64.6309L89.8448 64.6507" stroke="#2E353A" stroke-width="0.220502" stroke-linecap="round" stroke-linejoin="round"/>
<path d="M90.2118 64.6714L90.6407 64.6912" stroke="#2E353A" stroke-width="0.220502" stroke-linecap="round" stroke-linejoin="round"/>
<path d="M90.0895 69.6927C90.192 69.6519 90.8612 69.4722 90.8612 69.4722" stroke="#2E353A" stroke-width="0.220502" stroke-linecap="round" stroke-linejoin="round"/>
<path d="M103.017 53.3574C102.955 53.4809 102.831 54.192 102.831 54.192" stroke="#2E353A" stroke-width="0.220502" stroke-linecap="round" stroke-linejoin="round"/>
<path d="M103.819 53.6353L103.726 54.0994" stroke="#2E353A" stroke-width="0.220502" stroke-linecap="round" stroke-linejoin="round"/>
<path d="M107.001 55.1494L106.754 55.4581" stroke="#2E353A" stroke-width="0.220502" stroke-linecap="round" stroke-linejoin="round"/>
<path d="M90.8767 58.1152L91.4941 58.4548" stroke="#2E353A" stroke-width="0.220502" stroke-linecap="round" stroke-linejoin="round"/>
<path d="M91.8657 58.6396L92.3596 58.9175" stroke="#2E353A" stroke-width="0.220502" stroke-linecap="round" stroke-linejoin="round"/>
<path d="M103.72 61.2467C103.72 61.2467 103.531 60.9545 102.579 60.3537C101.626 59.7528 99.161 59.1817 98.1896 58.6569C97.2183 58.1156 96.1357 57.0946 95.7575 56.604C95.3793 56.1134 95.4378 55.743 95.1335 55.7132C94.8292 55.6834 94.5249 55.8234 94.3132 56.4607C94.1015 57.0979 94.3606 58.6944 94.5337 59.185C94.7068 59.6756 95.2151 59.9865 95.5381 60.1166C95.8611 60.2467 96.5833 60.5896 96.5822 60.8972C96.5811 61.2048 96.5425 61.2654 96.4091 61.2886C96.2757 61.3117 93.343 61.7461 92.891 61.8773C92.4389 62.0085 92.2438 62.8321 92.3728 63.4815C92.5018 64.1309 93.0133 64.3348 92.859 64.7957C92.7046 65.2565 92.4389 65.7968 92.7013 66.4087C92.9637 67.0206 93.4566 66.9257 93.2647 67.4009C93.0729 67.8761 93.0707 68.4318 93.3154 68.789C93.5602 69.1462 93.8832 69.3777 93.881 69.811C93.8788 70.2443 94.6351 71.198 95.1103 71.3336C95.3452 71.4041 97.4774 71.6379 99.5535 71.6588C101.628 71.7117 103.647 71.5486 103.644 71.5486C103.669 68.1124 103.694 64.6785 103.72 61.2467Z" fill="white" stroke="#2E353A" stroke-width="0.330754" stroke-linecap="round" stroke-linejoin="round"/>
<path d="M107.863 71.2267C106.628 71.4134 105.389 71.5508 104.145 71.639C104.065 71.6426 103.985 71.6292 103.91 71.5997C103.835 71.5703 103.767 71.5254 103.711 71.468C103.654 71.4106 103.61 71.342 103.582 71.2666C103.554 71.1913 103.542 71.1108 103.547 71.0304C103.559 67.928 103.572 64.827 103.584 61.7274C103.581 61.646 103.594 61.5647 103.623 61.4885C103.652 61.4122 103.696 61.3426 103.753 61.2836C103.809 61.2247 103.876 61.1777 103.951 61.1454C104.026 61.1131 104.107 61.0962 104.188 61.0957C105.432 61.131 106.671 61.1813 107.906 61.2467C108.067 61.2581 108.218 61.3299 108.328 61.4477C108.438 61.5655 108.5 61.7205 108.5 61.8818C108.487 64.7623 108.474 67.645 108.462 70.5299C108.457 70.6971 108.395 70.8575 108.286 70.9843C108.177 71.1111 108.028 71.1967 107.863 71.2267V71.2267Z" fill="#2E353A" stroke="#2E353A" stroke-width="0.330754" stroke-linecap="round" stroke-linejoin="round"/>
<path d="M105.102 70.529C105.105 70.4685 105.096 70.408 105.074 70.3515C105.052 70.2949 105.019 70.2436 104.976 70.2008C104.933 70.1579 104.881 70.1246 104.825 70.1029C104.768 70.0812 104.708 70.0716 104.647 70.0748C104.52 70.0885 104.402 70.1494 104.317 70.2454C104.232 70.3415 104.185 70.4658 104.187 70.5941C104.184 70.6549 104.193 70.7159 104.214 70.7729C104.236 70.8299 104.269 70.8818 104.312 70.925C104.355 70.9682 104.407 71.0018 104.464 71.0236C104.521 71.0455 104.582 71.055 104.643 71.0516C104.77 71.036 104.887 70.9741 104.972 70.8778C105.057 70.7814 105.103 70.6573 105.102 70.529V70.529Z" fill="white" stroke="#2E353A" stroke-width="0.330754" stroke-linecap="round" stroke-linejoin="round"/>
<path d="M103.681 60.1118C104.904 60.1118 105.895 59.1206 105.895 57.8979C105.895 56.6753 104.904 55.6841 103.681 55.6841C102.459 55.6841 101.467 56.6753 101.467 57.8979C101.467 59.1206 102.459 60.1118 103.681 60.1118Z" fill="white"/>
<path d="M107.413 61.1753C107.734 60.8541 107.734 60.3334 107.413 60.0122C107.092 59.691 106.571 59.691 106.25 60.0122C105.928 60.3334 105.928 60.8541 106.25 61.1753C106.571 61.4965 107.092 61.4965 107.413 61.1753Z" fill="white"/>
</g>
<defs>
<clipPath id="clip0">
<rect width="89.3403" height="72" fill="white" transform="translate(24 16)"/>
</clipPath>
</defs>
</svg>
