<svg width="2573" height="526" viewBox="0 0 2573 526" fill="none" xmlns="http://www.w3.org/2000/svg">
<path d="M227.19 39.1705L39.5816 226.778C19.577 246.783 19.577 279.217 39.5816 299.222L227.19 486.83C247.195 506.834 279.629 506.834 299.633 486.83L487.241 299.222C507.246 279.217 507.246 246.783 487.241 226.778L299.633 39.1705C279.629 19.1658 247.195 19.1659 227.19 39.1705Z" fill="#423C8C"/>
<path d="M291.217 105.68C276.213 90.677 251.887 90.677 236.884 105.68L105.323 237.241C90.2755 252.289 90.326 276.702 105.436 291.686L235.369 420.547C250.39 435.446 274.628 435.395 289.588 420.437L304.421 405.605C309.42 400.603 309.42 392.494 304.421 387.494L260.882 343.956C250.88 333.954 250.88 317.736 260.882 307.734L296.307 272.31C301.309 267.308 301.309 259.199 296.307 254.198L271.094 228.983C266.091 223.982 257.982 223.982 252.982 228.983L216.353 265.612C211.352 270.612 203.244 270.612 198.242 265.612L197.591 264.959C192.59 259.959 192.59 251.85 197.591 246.848L305.932 138.507C310.934 133.506 310.934 125.398 305.932 120.396L291.217 105.68Z" fill="white"/>
<path d="M288.861 193.102L324.695 157.267C329.695 152.266 337.804 152.266 342.806 157.267L421.618 236.081C436.622 251.085 436.622 275.409 421.618 290.413L341.715 370.319C336.713 375.319 328.604 375.319 323.604 370.319L287.957 334.671C282.955 329.669 282.955 321.56 287.957 316.561L332.026 272.489C337.028 267.49 337.028 259.381 332.026 254.379L288.861 211.213C283.859 206.212 283.859 198.103 288.861 193.102Z" fill="#24CA7A"/>
<path d="M813.186 194.744H717.426V251.516H810.45V296.66H717.426V389H670.23V149.6H813.186V194.744Z" fill="black"/>
<path d="M867.412 197.48C860.116 197.48 853.732 194.858 848.26 189.614C843.016 184.142 840.394 177.758 840.394 170.462C840.394 163.166 843.016 156.782 848.26 151.31C853.732 145.838 860.116 143.102 867.412 143.102C874.936 143.102 881.32 145.838 886.564 151.31C892.036 156.782 894.772 163.166 894.772 170.462C894.772 177.758 892.036 184.142 886.564 189.614C881.32 194.858 874.936 197.48 867.412 197.48ZM845.524 389V218H889.642V389H845.524Z" fill="black"/>
<path d="M1025.1 213.212C1043.79 213.212 1059.18 219.482 1071.27 232.022C1083.58 244.562 1089.74 261.89 1089.74 284.006V389H1045.62V289.478C1045.62 278.078 1042.54 269.414 1036.38 263.486C1030.23 257.33 1022.02 254.252 1011.76 254.252C1000.36 254.252 991.24 257.786 984.4 264.854C977.56 271.922 974.14 282.524 974.14 296.66V389H930.022V218H974.14V237.152C984.856 221.192 1001.84 213.212 1025.1 213.212Z" fill="black"/>
<path d="M1274.12 264.854C1295.1 276.938 1305.59 295.178 1305.59 319.574C1305.59 339.866 1298.41 356.51 1284.04 369.506C1269.68 382.502 1252.01 389 1231.03 389H1129.46V149.6H1223.85C1244.37 149.6 1261.58 155.984 1275.49 168.752C1289.63 181.292 1296.7 197.366 1296.7 216.974C1296.7 236.81 1289.17 252.77 1274.12 264.854ZM1223.85 193.718H1176.65V246.386H1223.85C1231.15 246.386 1237.19 243.878 1241.98 238.862C1246.99 233.846 1249.5 227.576 1249.5 220.052C1249.5 212.528 1247.11 206.258 1242.32 201.242C1237.53 196.226 1231.38 193.718 1223.85 193.718ZM1231.03 344.882C1239.01 344.882 1245.63 342.26 1250.87 337.016C1256.11 331.544 1258.73 324.704 1258.73 316.496C1258.73 308.516 1256.11 301.904 1250.87 296.66C1245.63 291.188 1239.01 288.452 1231.03 288.452H1176.65V344.882H1231.03Z" fill="black"/>
<path d="M1482.84 367.796C1465.29 385.124 1443.85 393.788 1418.55 393.788C1393.24 393.788 1371.81 385.124 1354.25 367.796C1336.92 350.24 1328.26 328.808 1328.26 303.5C1328.26 278.192 1336.92 256.874 1354.25 239.546C1371.81 221.99 1393.24 213.212 1418.55 213.212C1443.85 213.212 1465.29 221.99 1482.84 239.546C1500.4 256.874 1509.18 278.192 1509.18 303.5C1509.18 328.808 1500.4 350.24 1482.84 367.796ZM1385.37 337.358C1394.26 346.25 1405.32 350.696 1418.55 350.696C1431.77 350.696 1442.83 346.25 1451.72 337.358C1460.61 328.466 1465.06 317.18 1465.06 303.5C1465.06 289.82 1460.61 278.534 1451.72 269.642C1442.83 260.75 1431.77 256.304 1418.55 256.304C1405.32 256.304 1394.26 260.75 1385.37 269.642C1376.71 278.534 1372.38 289.82 1372.38 303.5C1372.38 317.18 1376.71 328.466 1385.37 337.358Z" fill="black"/>
<path d="M1685.85 389H1634.89L1597.96 337.016L1560.68 389H1509.72L1572.31 301.79L1512.46 218H1563.41L1597.96 266.222L1632.5 218H1683.11L1623.26 301.448L1685.85 389Z" fill="black"/>
<path d="M1897.89 149.6C1930.49 149.6 1957.51 161.228 1978.94 184.484C2000.6 207.512 2011.43 235.784 2011.43 269.3C2011.43 302.816 2000.6 331.202 1978.94 354.458C1957.51 377.486 1930.49 389 1897.89 389H1804.52V149.6H1897.89ZM1897.89 358.904C1922.28 358.904 1942.23 350.354 1957.74 333.254C1973.24 316.154 1980.99 294.836 1980.99 269.3C1980.99 243.764 1973.24 222.446 1957.74 205.346C1942.23 188.246 1922.28 179.696 1897.89 179.696H1836.33V358.904H1897.89Z" fill="#24CA7A"/>
<path d="M2191.25 367.454C2173.69 384.782 2152.37 393.446 2127.29 393.446C2102.21 393.446 2080.89 384.782 2063.34 367.454C2046.01 350.126 2037.35 328.808 2037.35 303.5C2037.35 278.192 2046.01 256.874 2063.34 239.546C2080.89 222.218 2102.21 213.554 2127.29 213.554C2152.37 213.554 2173.69 222.218 2191.25 239.546C2208.8 256.874 2217.58 278.192 2217.58 303.5C2217.58 328.808 2208.8 350.126 2191.25 367.454ZM2127.29 364.376C2144.39 364.376 2158.76 358.562 2170.38 346.934C2182.01 335.306 2187.83 320.828 2187.83 303.5C2187.83 286.172 2182.01 271.694 2170.38 260.066C2158.76 248.438 2144.39 242.624 2127.29 242.624C2110.42 242.624 2096.17 248.438 2084.54 260.066C2072.91 271.694 2067.1 286.172 2067.1 303.5C2067.1 320.828 2072.91 335.306 2084.54 346.934C2096.17 358.562 2110.42 364.376 2127.29 364.376Z" fill="#24CA7A"/>
<path d="M2333.03 393.446C2307.26 393.446 2285.83 384.896 2268.73 367.796C2251.63 350.468 2243.08 329.036 2243.08 303.5C2243.08 277.964 2251.63 256.646 2268.73 239.546C2285.83 222.218 2307.26 213.554 2333.03 213.554C2349.9 213.554 2365.06 217.658 2378.51 225.866C2391.96 233.846 2402 244.676 2408.61 258.356L2383.64 272.72C2379.31 263.6 2372.58 256.304 2363.46 250.832C2354.57 245.36 2344.43 242.624 2333.03 242.624C2315.93 242.624 2301.56 248.438 2289.93 260.066C2278.53 271.694 2272.83 286.172 2272.83 303.5C2272.83 320.6 2278.53 334.964 2289.93 346.592C2301.56 358.22 2315.93 364.034 2333.03 364.034C2344.43 364.034 2354.69 361.412 2363.81 356.168C2372.93 350.696 2379.88 343.4 2384.67 334.28L2409.98 348.986C2402.68 362.438 2392.19 373.268 2378.51 381.476C2364.83 389.456 2349.67 393.446 2333.03 393.446Z" fill="#24CA7A"/>
<path d="M2463.67 264.17C2463.67 270.782 2466.97 276.14 2473.59 280.244C2480.2 284.12 2488.18 287.312 2497.53 289.82C2506.87 292.1 2516.22 294.836 2525.57 298.028C2534.92 300.992 2542.9 306.236 2549.51 313.76C2556.12 321.056 2559.43 330.518 2559.43 342.146C2559.43 357.65 2553.39 370.076 2541.3 379.424C2529.45 388.772 2514.17 393.446 2495.47 393.446C2478.83 393.446 2464.58 389.798 2452.72 382.502C2440.87 375.206 2432.43 365.516 2427.42 353.432L2453.07 338.726C2455.8 346.934 2460.93 353.432 2468.46 358.22C2475.98 363.008 2484.99 365.402 2495.47 365.402C2505.28 365.402 2513.37 363.578 2519.76 359.93C2526.14 356.054 2529.33 350.126 2529.33 342.146C2529.33 335.534 2526.03 330.29 2519.41 326.414C2512.8 322.31 2504.82 319.118 2495.47 316.838C2486.13 314.33 2476.78 311.48 2467.43 308.288C2458.08 305.096 2450.1 299.852 2443.49 292.556C2436.88 285.26 2433.57 275.912 2433.57 264.512C2433.57 249.692 2439.27 237.494 2450.67 227.918C2462.3 218.342 2476.78 213.554 2494.11 213.554C2508.01 213.554 2520.33 216.746 2531.04 223.13C2541.99 229.286 2550.19 237.95 2555.67 249.122L2530.7 263.144C2524.54 248.552 2512.35 241.256 2494.11 241.256C2485.67 241.256 2478.49 243.308 2472.56 247.412C2466.63 251.288 2463.67 256.874 2463.67 264.17Z" fill="#24CA7A"/>
</svg>
